<?xml version="1.0" encoding="UTF-8" standalone="no"?>
<!DOCTYPE svg PUBLIC "-//W3C//DTD SVG 1.1//EN"
 "http://www.w3.org/Graphics/SVG/1.1/DTD/svg11.dtd">
<!-- Generated by graphviz version 2.46.0 (20210119.1425)
 -->
<!-- Title: dependencies Pages: 1 -->
<svg width="2786pt" height="211pt"
 viewBox="0.00 0.00 2786.00 211.00" xmlns="http://www.w3.org/2000/svg" xmlns:xlink="http://www.w3.org/1999/xlink">
<g id="graph0" class="graph" transform="scale(1 1) rotate(0) translate(4 207)">
<title>dependencies</title>
<polygon fill="white" stroke="transparent" points="-4,4 -4,-207 2782,-207 2782,4 -4,4"/>
<text text-anchor="start" x="1368.01" y="-42.4" font-family="sans-serif" font-weight="bold" font-size="14.00">Legend</text>
<polygon fill="#ffffb3" stroke="transparent" points="1155,-10 1155,-30 1175,-30 1175,-10 1155,-10"/>
<text text-anchor="start" x="1178.63" y="-15.4" font-family="sans-serif" font-size="14.00"> &#160;Declarations</text>
<polygon fill="#8dd3c7" stroke="transparent" points="1268,-10 1268,-30 1288,-30 1288,-10 1268,-10"/>
<text text-anchor="start" x="1291.73" y="-15.4" font-family="sans-serif" font-size="14.00"> &#160;Module</text>
<polygon fill="#80b1d3" stroke="transparent" points="1354,-10 1354,-30 1374,-30 1374,-10 1354,-10"/>
<text text-anchor="start" x="1377.78" y="-15.4" font-family="sans-serif" font-size="14.00"> &#160;Bootstrap</text>
<polygon fill="#fdb462" stroke="transparent" points="1451,-10 1451,-30 1471,-30 1471,-10 1451,-10"/>
<text text-anchor="start" x="1474.67" y="-15.4" font-family="sans-serif" font-size="14.00"> &#160;Providers</text>
<polygon fill="#fb8072" stroke="transparent" points="1547,-10 1547,-30 1567,-30 1567,-10 1547,-10"/>
<text text-anchor="start" x="1570.73" y="-15.4" font-family="sans-serif" font-size="14.00"> &#160;Exports</text>
<g id="clust1" class="cluster">
<title>cluster_OrderModule</title>
<polygon fill="none" stroke="black" stroke-dasharray="1,5" points="8,-70 8,-195 2770,-195 2770,-70 8,-70"/>
</g>
<g id="clust19" class="cluster">
<title>cluster_OrderModule_imports</title>
<polygon fill="none" stroke="black" points="2492,-78 2492,-130 2762,-130 2762,-78 2492,-78"/>
</g>
<g id="clust2" class="cluster">
<title>cluster_OrderModule_declarations</title>
<polygon fill="none" stroke="black" points="16,-78 16,-130 2484,-130 2484,-78 16,-78"/>
</g>
<!-- CartComponent -->
<g id="node1" class="node">
<title>CartComponent</title>
<polygon fill="#ffffb3" stroke="black" points="2475.94,-122 2370.06,-122 2370.06,-86 2475.94,-86 2475.94,-122"/>
<text text-anchor="middle" x="2423" y="-99.8" font-family="Times,serif" font-size="14.00">CartComponent</text>
</g>
<!-- OrderModule -->
<g id="node17" class="node">
<title>OrderModule</title>
<polygon fill="#8dd3c7" stroke="black" points="1492.19,-187 1489.19,-191 1468.19,-191 1465.19,-187 1399.81,-187 1399.81,-151 1492.19,-151 1492.19,-187"/>
<text text-anchor="middle" x="1446" y="-164.8" font-family="Times,serif" font-size="14.00">OrderModule</text>
</g>
<!-- CartComponent&#45;&gt;OrderModule -->
<g id="edge1" class="edge">
<title>CartComponent&#45;&gt;OrderModule</title>
<path fill="none" stroke="black" d="M2423,-122.28C2423,-143.32 2423,-175 2423,-175 2423,-175 1502.14,-175 1502.14,-175"/>
<polygon fill="black" stroke="black" points="1502.14,-171.5 1492.14,-175 1502.14,-178.5 1502.14,-171.5"/>
</g>
<!-- CategoryCardsComponent -->
<g id="node2" class="node">
<title>CategoryCardsComponent</title>
<polygon fill="#ffffb3" stroke="black" points="2352.81,-122 2187.19,-122 2187.19,-86 2352.81,-86 2352.81,-122"/>
<text text-anchor="middle" x="2270" y="-99.8" font-family="Times,serif" font-size="14.00">CategoryCardsComponent</text>
</g>
<!-- CategoryCardsComponent&#45;&gt;OrderModule -->
<g id="edge2" class="edge">
<title>CategoryCardsComponent&#45;&gt;OrderModule</title>
<path fill="none" stroke="black" d="M2270,-122.31C2270,-142.15 2270,-171 2270,-171 2270,-171 1502.36,-171 1502.36,-171"/>
<polygon fill="black" stroke="black" points="1502.36,-167.5 1492.36,-171 1502.36,-174.5 1502.36,-167.5"/>
</g>
<!-- FbComponent -->
<g id="node3" class="node">
<title>FbComponent</title>
<polygon fill="#ffffb3" stroke="black" points="2169.12,-122 2072.88,-122 2072.88,-86 2169.12,-86 2169.12,-122"/>
<text text-anchor="middle" x="2121" y="-99.8" font-family="Times,serif" font-size="14.00">FbComponent</text>
</g>
<!-- FbComponent&#45;&gt;OrderModule -->
<g id="edge3" class="edge">
<title>FbComponent&#45;&gt;OrderModule</title>
<path fill="none" stroke="black" d="M2121,-122.22C2121,-140.83 2121,-167 2121,-167 2121,-167 1502.13,-167 1502.13,-167"/>
<polygon fill="black" stroke="black" points="1502.13,-163.5 1492.13,-167 1502.13,-170.5 1502.13,-163.5"/>
</g>
<!-- FbDrinksComponent -->
<g id="node4" class="node">
<title>FbDrinksComponent</title>
<polygon fill="#ffffb3" stroke="black" points="2055.22,-122 1920.78,-122 1920.78,-86 2055.22,-86 2055.22,-122"/>
<text text-anchor="middle" x="1988" y="-99.8" font-family="Times,serif" font-size="14.00">FbDrinksComponent</text>
</g>
<!-- FbDrinksComponent&#45;&gt;OrderModule -->
<g id="edge4" class="edge">
<title>FbDrinksComponent&#45;&gt;OrderModule</title>
<path fill="none" stroke="black" d="M1988,-122.02C1988,-139.37 1988,-163 1988,-163 1988,-163 1502.21,-163 1502.21,-163"/>
<polygon fill="black" stroke="black" points="1502.21,-159.5 1492.21,-163 1502.21,-166.5 1502.21,-159.5"/>
</g>
<!-- FbFoodComponent -->
<g id="node5" class="node">
<title>FbFoodComponent</title>
<polygon fill="#ffffb3" stroke="black" points="1902.4,-122 1777.6,-122 1777.6,-86 1902.4,-86 1902.4,-122"/>
<text text-anchor="middle" x="1840" y="-99.8" font-family="Times,serif" font-size="14.00">FbFoodComponent</text>
</g>
<!-- FbFoodComponent&#45;&gt;OrderModule -->
<g id="edge5" class="edge">
<title>FbFoodComponent&#45;&gt;OrderModule</title>
<path fill="none" stroke="black" d="M1840,-122.01C1840,-138.05 1840,-159 1840,-159 1840,-159 1502.36,-159 1502.36,-159"/>
<polygon fill="black" stroke="black" points="1502.36,-155.5 1492.36,-159 1502.36,-162.5 1502.36,-155.5"/>
</g>
<!-- FbHomeComponent -->
<g id="node6" class="node">
<title>FbHomeComponent</title>
<polygon fill="#ffffb3" stroke="black" points="1759.33,-122 1628.67,-122 1628.67,-86 1759.33,-86 1759.33,-122"/>
<text text-anchor="middle" x="1694" y="-99.8" font-family="Times,serif" font-size="14.00">FbHomeComponent</text>
</g>
<!-- FbHomeComponent&#45;&gt;OrderModule -->
<g id="edge6" class="edge">
<title>FbHomeComponent&#45;&gt;OrderModule</title>
<path fill="none" stroke="black" d="M1694,-122.12C1694,-136.78 1694,-155 1694,-155 1694,-155 1502.36,-155 1502.36,-155"/>
<polygon fill="black" stroke="black" points="1502.36,-151.5 1492.36,-155 1502.36,-158.5 1502.36,-151.5"/>
</g>
<!-- FbItemCardsComponent -->
<g id="node7" class="node">
<title>FbItemCardsComponent</title>
<polygon fill="#ffffb3" stroke="black" points="1611.43,-122 1456.57,-122 1456.57,-86 1611.43,-86 1611.43,-122"/>
<text text-anchor="middle" x="1534" y="-99.8" font-family="Times,serif" font-size="14.00">FbItemCardsComponent</text>
</g>
<!-- FbItemCardsComponent&#45;&gt;OrderModule -->
<g id="edge7" class="edge">
<title>FbItemCardsComponent&#45;&gt;OrderModule</title>
<path fill="none" stroke="black" d="M1474.44,-122.11C1474.44,-122.11 1474.44,-140.99 1474.44,-140.99"/>
<polygon fill="black" stroke="black" points="1470.94,-140.99 1474.44,-150.99 1477.94,-140.99 1470.94,-140.99"/>
</g>
<!-- FbNavHeaderComponent -->
<g id="node8" class="node">
<title>FbNavHeaderComponent</title>
<polygon fill="#ffffb3" stroke="black" points="1438.85,-122 1279.15,-122 1279.15,-86 1438.85,-86 1438.85,-122"/>
<text text-anchor="middle" x="1359" y="-99.8" font-family="Times,serif" font-size="14.00">FbNavHeaderComponent</text>
</g>
<!-- FbNavHeaderComponent&#45;&gt;OrderModule -->
<g id="edge8" class="edge">
<title>FbNavHeaderComponent&#45;&gt;OrderModule</title>
<path fill="none" stroke="black" d="M1419.41,-122.11C1419.41,-122.11 1419.41,-140.99 1419.41,-140.99"/>
<polygon fill="black" stroke="black" points="1415.91,-140.99 1419.41,-150.99 1422.91,-140.99 1415.91,-140.99"/>
</g>
<!-- HkAmenitiesComponent -->
<g id="node9" class="node">
<title>HkAmenitiesComponent</title>
<polygon fill="#ffffb3" stroke="black" points="1260.98,-122 1105.02,-122 1105.02,-86 1260.98,-86 1260.98,-122"/>
<text text-anchor="middle" x="1183" y="-99.8" font-family="Times,serif" font-size="14.00">HkAmenitiesComponent</text>
</g>
<!-- HkAmenitiesComponent&#45;&gt;OrderModule -->
<g id="edge9" class="edge">
<title>HkAmenitiesComponent&#45;&gt;OrderModule</title>
<path fill="none" stroke="black" d="M1183,-122.12C1183,-136.78 1183,-155 1183,-155 1183,-155 1389.89,-155 1389.89,-155"/>
<polygon fill="black" stroke="black" points="1389.89,-158.5 1399.89,-155 1389.89,-151.5 1389.89,-158.5"/>
</g>
<!-- HkComponent -->
<g id="node10" class="node">
<title>HkComponent</title>
<polygon fill="#ffffb3" stroke="black" points="1087.44,-122 988.56,-122 988.56,-86 1087.44,-86 1087.44,-122"/>
<text text-anchor="middle" x="1038" y="-99.8" font-family="Times,serif" font-size="14.00">HkComponent</text>
</g>
<!-- HkComponent&#45;&gt;OrderModule -->
<g id="edge10" class="edge">
<title>HkComponent&#45;&gt;OrderModule</title>
<path fill="none" stroke="black" d="M1038,-122.01C1038,-138.05 1038,-159 1038,-159 1038,-159 1389.59,-159 1389.59,-159"/>
<polygon fill="black" stroke="black" points="1389.59,-162.5 1399.59,-159 1389.59,-155.5 1389.59,-162.5"/>
</g>
<!-- HkHomeComponent -->
<g id="node11" class="node">
<title>HkHomeComponent</title>
<polygon fill="#ffffb3" stroke="black" points="970.15,-122 837.85,-122 837.85,-86 970.15,-86 970.15,-122"/>
<text text-anchor="middle" x="904" y="-99.8" font-family="Times,serif" font-size="14.00">HkHomeComponent</text>
</g>
<!-- HkHomeComponent&#45;&gt;OrderModule -->
<g id="edge11" class="edge">
<title>HkHomeComponent&#45;&gt;OrderModule</title>
<path fill="none" stroke="black" d="M904,-122.02C904,-139.37 904,-163 904,-163 904,-163 1389.79,-163 1389.79,-163"/>
<polygon fill="black" stroke="black" points="1389.79,-166.5 1399.79,-163 1389.79,-159.5 1389.79,-166.5"/>
</g>
<!-- HkNavHeaderComponent -->
<g id="node12" class="node">
<title>HkNavHeaderComponent</title>
<polygon fill="#ffffb3" stroke="black" points="820.17,-122 657.83,-122 657.83,-86 820.17,-86 820.17,-122"/>
<text text-anchor="middle" x="739" y="-99.8" font-family="Times,serif" font-size="14.00">HkNavHeaderComponent</text>
</g>
<!-- HkNavHeaderComponent&#45;&gt;OrderModule -->
<g id="edge12" class="edge">
<title>HkNavHeaderComponent&#45;&gt;OrderModule</title>
<path fill="none" stroke="black" d="M739,-122.22C739,-140.83 739,-167 739,-167 739,-167 1389.88,-167 1389.88,-167"/>
<polygon fill="black" stroke="black" points="1389.88,-170.5 1399.88,-167 1389.88,-163.5 1389.88,-170.5"/>
</g>
<!-- HkServicesComponent -->
<g id="node13" class="node">
<title>HkServicesComponent</title>
<polygon fill="#ffffb3" stroke="black" points="639.86,-122 494.14,-122 494.14,-86 639.86,-86 639.86,-122"/>
<text text-anchor="middle" x="567" y="-99.8" font-family="Times,serif" font-size="14.00">HkServicesComponent</text>
</g>
<!-- HkServicesComponent&#45;&gt;OrderModule -->
<g id="edge13" class="edge">
<title>HkServicesComponent&#45;&gt;OrderModule</title>
<path fill="none" stroke="black" d="M567,-122.31C567,-142.15 567,-171 567,-171 567,-171 1389.67,-171 1389.67,-171"/>
<polygon fill="black" stroke="black" points="1389.67,-174.5 1399.67,-171 1389.67,-167.5 1389.67,-174.5"/>
</g>
<!-- ItemCardsComponent -->
<g id="node14" class="node">
<title>ItemCardsComponent</title>
<polygon fill="#ffffb3" stroke="black" points="475.65,-122 336.35,-122 336.35,-86 475.65,-86 475.65,-122"/>
<text text-anchor="middle" x="406" y="-99.8" font-family="Times,serif" font-size="14.00">ItemCardsComponent</text>
</g>
<!-- ItemCardsComponent&#45;&gt;OrderModule -->
<g id="edge14" class="edge">
<title>ItemCardsComponent&#45;&gt;OrderModule</title>
<path fill="none" stroke="black" d="M406,-122.28C406,-143.32 406,-175 406,-175 406,-175 1389.63,-175 1389.63,-175"/>
<polygon fill="black" stroke="black" points="1389.63,-178.5 1399.63,-175 1389.63,-171.5 1389.63,-178.5"/>
</g>
<!-- OrderComponent -->
<g id="node15" class="node">
<title>OrderComponent</title>
<polygon fill="#ffffb3" stroke="black" points="317.97,-122 204.03,-122 204.03,-86 317.97,-86 317.97,-122"/>
<text text-anchor="middle" x="261" y="-99.8" font-family="Times,serif" font-size="14.00">OrderComponent</text>
</g>
<!-- OrderComponent&#45;&gt;OrderModule -->
<g id="edge15" class="edge">
<title>OrderComponent&#45;&gt;OrderModule</title>
<path fill="none" stroke="black" d="M261,-122.16C261,-144.35 261,-179 261,-179 261,-179 1389.55,-179 1389.55,-179"/>
<polygon fill="black" stroke="black" points="1389.55,-182.5 1399.55,-179 1389.55,-175.5 1389.55,-182.5"/>
</g>
<!-- ReviewOrdersComponent -->
<g id="node16" class="node">
<title>ReviewOrdersComponent</title>
<polygon fill="#ffffb3" stroke="black" points="186.18,-122 23.82,-122 23.82,-86 186.18,-86 186.18,-122"/>
<text text-anchor="middle" x="105" y="-99.8" font-family="Times,serif" font-size="14.00">ReviewOrdersComponent</text>
</g>
<!-- ReviewOrdersComponent&#45;&gt;OrderModule -->
<g id="edge16" class="edge">
<title>ReviewOrdersComponent&#45;&gt;OrderModule</title>
<path fill="none" stroke="black" d="M105,-122.32C105,-145.66 105,-183 105,-183 105,-183 1389.84,-183 1389.84,-183"/>
<polygon fill="black" stroke="black" points="1389.84,-186.5 1399.84,-183 1389.84,-179.5 1389.84,-186.5"/>
</g>
<!-- OrderRoutingModule -->
<g id="node18" class="node">
<title>OrderRoutingModule</title>
<polygon fill="#8dd3c7" stroke="black" points="2753.81,-122 2750.81,-126 2729.81,-126 2726.81,-122 2616.19,-122 2616.19,-86 2753.81,-86 2753.81,-122"/>
<text text-anchor="middle" x="2685" y="-99.8" font-family="Times,serif" font-size="14.00">OrderRoutingModule</text>
</g>
<!-- OrderRoutingModule&#45;&gt;OrderModule -->
<g id="edge17" class="edge">
<title>OrderRoutingModule&#45;&gt;OrderModule</title>
<path fill="none" stroke="black" d="M2685,-122.32C2685,-145.66 2685,-183 2685,-183 2685,-183 1502.31,-183 1502.31,-183"/>
<polygon fill="black" stroke="black" points="1502.31,-179.5 1492.31,-183 1502.31,-186.5 1502.31,-179.5"/>
</g>
<!-- SharedModule -->
<g id="node19" class="node">
<title>SharedModule</title>
<polygon fill="#8dd3c7" stroke="black" points="2598.42,-122 2595.42,-126 2574.42,-126 2571.42,-122 2499.58,-122 2499.58,-86 2598.42,-86 2598.42,-122"/>
<text text-anchor="middle" x="2549" y="-99.8" font-family="Times,serif" font-size="14.00">SharedModule</text>
</g>
<!-- SharedModule&#45;&gt;OrderModule -->
<g id="edge18" class="edge">
<title>SharedModule&#45;&gt;OrderModule</title>
<path fill="none" stroke="black" d="M2549,-122.16C2549,-144.35 2549,-179 2549,-179 2549,-179 1502.34,-179 1502.34,-179"/>
<polygon fill="black" stroke="black" points="1502.34,-175.5 1492.34,-179 1502.34,-182.5 1502.34,-175.5"/>
</g>
</g>
</svg>
