<?xml version="1.0" encoding="UTF-8" standalone="no"?>
<!DOCTYPE svg PUBLIC "-//W3C//DTD SVG 1.1//EN"
 "http://www.w3.org/Graphics/SVG/1.1/DTD/svg11.dtd">
<!-- Generated by graphviz version 2.46.0 (20210119.1425)
 -->
<!-- Title: dependencies Pages: 1 -->
<svg width="2431pt" height="211pt"
 viewBox="0.00 0.00 2431.00 211.00" xmlns="http://www.w3.org/2000/svg" xmlns:xlink="http://www.w3.org/1999/xlink">
<g id="graph0" class="graph" transform="scale(1 1) rotate(0) translate(4 207)">
<title>dependencies</title>
<polygon fill="white" stroke="transparent" points="-4,4 -4,-207 2427,-207 2427,4 -4,4"/>
<text text-anchor="start" x="1190.51" y="-42.4" font-family="sans-serif" font-weight="bold" font-size="14.00">Legend</text>
<polygon fill="#ffffb3" stroke="transparent" points="977.5,-10 977.5,-30 997.5,-30 997.5,-10 977.5,-10"/>
<text text-anchor="start" x="1001.13" y="-15.4" font-family="sans-serif" font-size="14.00"> &#160;Declarations</text>
<polygon fill="#8dd3c7" stroke="transparent" points="1090.5,-10 1090.5,-30 1110.5,-30 1110.5,-10 1090.5,-10"/>
<text text-anchor="start" x="1114.23" y="-15.4" font-family="sans-serif" font-size="14.00"> &#160;Module</text>
<polygon fill="#80b1d3" stroke="transparent" points="1176.5,-10 1176.5,-30 1196.5,-30 1196.5,-10 1176.5,-10"/>
<text text-anchor="start" x="1200.28" y="-15.4" font-family="sans-serif" font-size="14.00"> &#160;Bootstrap</text>
<polygon fill="#fdb462" stroke="transparent" points="1273.5,-10 1273.5,-30 1293.5,-30 1293.5,-10 1273.5,-10"/>
<text text-anchor="start" x="1297.17" y="-15.4" font-family="sans-serif" font-size="14.00"> &#160;Providers</text>
<polygon fill="#fb8072" stroke="transparent" points="1369.5,-10 1369.5,-30 1389.5,-30 1389.5,-10 1369.5,-10"/>
<text text-anchor="start" x="1393.23" y="-15.4" font-family="sans-serif" font-size="14.00"> &#160;Exports</text>
<g id="clust1" class="cluster">
<title>cluster_OrderModule</title>
<polygon fill="none" stroke="black" stroke-dasharray="1,5" points="8,-70 8,-195 2415,-195 2415,-70 8,-70"/>
</g>
<g id="clust2" class="cluster">
<title>cluster_OrderModule_declarations</title>
<polygon fill="none" stroke="black" points="294,-78 294,-130 2407,-130 2407,-78 294,-78"/>
</g>
<g id="clust17" class="cluster">
<title>cluster_OrderModule_imports</title>
<polygon fill="none" stroke="black" points="16,-78 16,-130 286,-130 286,-78 16,-78"/>
</g>
<!-- CartComponent -->
<g id="node1" class="node">
<title>CartComponent</title>
<polygon fill="#ffffb3" stroke="black" points="2398.94,-122 2293.06,-122 2293.06,-86 2398.94,-86 2398.94,-122"/>
<text text-anchor="middle" x="2346" y="-99.8" font-family="Times,serif" font-size="14.00">CartComponent</text>
</g>
<!-- OrderModule -->
<g id="node15" class="node">
<title>OrderModule</title>
<polygon fill="#8dd3c7" stroke="black" points="1295.19,-187 1292.19,-191 1271.19,-191 1268.19,-187 1202.81,-187 1202.81,-151 1295.19,-151 1295.19,-187"/>
<text text-anchor="middle" x="1249" y="-164.8" font-family="Times,serif" font-size="14.00">OrderModule</text>
</g>
<!-- CartComponent&#45;&gt;OrderModule -->
<g id="edge1" class="edge">
<title>CartComponent&#45;&gt;OrderModule</title>
<path fill="none" stroke="black" d="M2346,-122.32C2346,-145.66 2346,-183 2346,-183 2346,-183 1305.44,-183 1305.44,-183"/>
<polygon fill="black" stroke="black" points="1305.44,-179.5 1295.44,-183 1305.44,-186.5 1305.44,-179.5"/>
</g>
<!-- FbComponent -->
<g id="node2" class="node">
<title>FbComponent</title>
<polygon fill="#ffffb3" stroke="black" points="2275.12,-122 2178.88,-122 2178.88,-86 2275.12,-86 2275.12,-122"/>
<text text-anchor="middle" x="2227" y="-99.8" font-family="Times,serif" font-size="14.00">FbComponent</text>
</g>
<!-- FbComponent&#45;&gt;OrderModule -->
<g id="edge2" class="edge">
<title>FbComponent&#45;&gt;OrderModule</title>
<path fill="none" stroke="black" d="M2227,-122.29C2227,-144.21 2227,-178 2227,-178 2227,-178 1305.19,-178 1305.19,-178"/>
<polygon fill="black" stroke="black" points="1305.19,-174.5 1295.19,-178 1305.19,-181.5 1305.19,-174.5"/>
</g>
<!-- FbDrinksComponent -->
<g id="node3" class="node">
<title>FbDrinksComponent</title>
<polygon fill="#ffffb3" stroke="black" points="2161.22,-122 2026.78,-122 2026.78,-86 2161.22,-86 2161.22,-122"/>
<text text-anchor="middle" x="2094" y="-99.8" font-family="Times,serif" font-size="14.00">FbDrinksComponent</text>
</g>
<!-- FbDrinksComponent&#45;&gt;OrderModule -->
<g id="edge3" class="edge">
<title>FbDrinksComponent&#45;&gt;OrderModule</title>
<path fill="none" stroke="black" d="M2094,-122.03C2094,-142.77 2094,-174 2094,-174 2094,-174 1305.33,-174 1305.33,-174"/>
<polygon fill="black" stroke="black" points="1305.33,-170.5 1295.33,-174 1305.33,-177.5 1305.33,-170.5"/>
</g>
<!-- FbFoodComponent -->
<g id="node4" class="node">
<title>FbFoodComponent</title>
<polygon fill="#ffffb3" stroke="black" points="2008.4,-122 1883.6,-122 1883.6,-86 2008.4,-86 2008.4,-122"/>
<text text-anchor="middle" x="1946" y="-99.8" font-family="Times,serif" font-size="14.00">FbFoodComponent</text>
</g>
<!-- FbFoodComponent&#45;&gt;OrderModule -->
<g id="edge4" class="edge">
<title>FbFoodComponent&#45;&gt;OrderModule</title>
<path fill="none" stroke="black" d="M1946,-122.11C1946,-141.34 1946,-169 1946,-169 1946,-169 1305.27,-169 1305.27,-169"/>
<polygon fill="black" stroke="black" points="1305.27,-165.5 1295.27,-169 1305.27,-172.5 1305.27,-165.5"/>
</g>
<!-- FbHomeComponent -->
<g id="node5" class="node">
<title>FbHomeComponent</title>
<polygon fill="#ffffb3" stroke="black" points="1865.33,-122 1734.67,-122 1734.67,-86 1865.33,-86 1865.33,-122"/>
<text text-anchor="middle" x="1800" y="-99.8" font-family="Times,serif" font-size="14.00">FbHomeComponent</text>
</g>
<!-- FbHomeComponent&#45;&gt;OrderModule -->
<g id="edge5" class="edge">
<title>FbHomeComponent&#45;&gt;OrderModule</title>
<path fill="none" stroke="black" d="M1800,-122.3C1800,-140.27 1800,-165 1800,-165 1800,-165 1305.5,-165 1305.5,-165"/>
<polygon fill="black" stroke="black" points="1305.5,-161.5 1295.5,-165 1305.5,-168.5 1305.5,-161.5"/>
</g>
<!-- FbNavHeaderComponent -->
<g id="node6" class="node">
<title>FbNavHeaderComponent</title>
<polygon fill="#ffffb3" stroke="black" points="1716.85,-122 1557.15,-122 1557.15,-86 1716.85,-86 1716.85,-122"/>
<text text-anchor="middle" x="1637" y="-99.8" font-family="Times,serif" font-size="14.00">FbNavHeaderComponent</text>
</g>
<!-- FbNavHeaderComponent&#45;&gt;OrderModule -->
<g id="edge6" class="edge">
<title>FbNavHeaderComponent&#45;&gt;OrderModule</title>
<path fill="none" stroke="black" d="M1637,-122.03C1637,-138.4 1637,-160 1637,-160 1637,-160 1305.42,-160 1305.42,-160"/>
<polygon fill="black" stroke="black" points="1305.42,-156.5 1295.42,-160 1305.42,-163.5 1305.42,-156.5"/>
</g>
<!-- HkAmenitiesComponent -->
<g id="node7" class="node">
<title>HkAmenitiesComponent</title>
<polygon fill="#ffffb3" stroke="black" points="1538.98,-122 1383.02,-122 1383.02,-86 1538.98,-86 1538.98,-122"/>
<text text-anchor="middle" x="1461" y="-99.8" font-family="Times,serif" font-size="14.00">HkAmenitiesComponent</text>
</g>
<!-- HkAmenitiesComponent&#45;&gt;OrderModule -->
<g id="edge7" class="edge">
<title>HkAmenitiesComponent&#45;&gt;OrderModule</title>
<path fill="none" stroke="black" d="M1461,-122.19C1461,-137.18 1461,-156 1461,-156 1461,-156 1305.26,-156 1305.26,-156"/>
<polygon fill="black" stroke="black" points="1305.26,-152.5 1295.26,-156 1305.26,-159.5 1305.26,-152.5"/>
</g>
<!-- HkComponent -->
<g id="node8" class="node">
<title>HkComponent</title>
<polygon fill="#ffffb3" stroke="black" points="1365.44,-122 1266.56,-122 1266.56,-86 1365.44,-86 1365.44,-122"/>
<text text-anchor="middle" x="1316" y="-99.8" font-family="Times,serif" font-size="14.00">HkComponent</text>
</g>
<!-- HkComponent&#45;&gt;OrderModule -->
<g id="edge8" class="edge">
<title>HkComponent&#45;&gt;OrderModule</title>
<path fill="none" stroke="black" d="M1280.94,-122.11C1280.94,-122.11 1280.94,-140.99 1280.94,-140.99"/>
<polygon fill="black" stroke="black" points="1277.44,-140.99 1280.94,-150.99 1284.44,-140.99 1277.44,-140.99"/>
</g>
<!-- HkHomeComponent -->
<g id="node9" class="node">
<title>HkHomeComponent</title>
<polygon fill="#ffffb3" stroke="black" points="1248.15,-122 1115.85,-122 1115.85,-86 1248.15,-86 1248.15,-122"/>
<text text-anchor="middle" x="1182" y="-99.8" font-family="Times,serif" font-size="14.00">HkHomeComponent</text>
</g>
<!-- HkHomeComponent&#45;&gt;OrderModule -->
<g id="edge9" class="edge">
<title>HkHomeComponent&#45;&gt;OrderModule</title>
<path fill="none" stroke="black" d="M1225.61,-122.11C1225.61,-122.11 1225.61,-140.99 1225.61,-140.99"/>
<polygon fill="black" stroke="black" points="1222.11,-140.99 1225.61,-150.99 1229.11,-140.99 1222.11,-140.99"/>
</g>
<!-- HkNavHeaderComponent -->
<g id="node10" class="node">
<title>HkNavHeaderComponent</title>
<polygon fill="#ffffb3" stroke="black" points="1098.17,-122 935.83,-122 935.83,-86 1098.17,-86 1098.17,-122"/>
<text text-anchor="middle" x="1017" y="-99.8" font-family="Times,serif" font-size="14.00">HkNavHeaderComponent</text>
</g>
<!-- HkNavHeaderComponent&#45;&gt;OrderModule -->
<g id="edge10" class="edge">
<title>HkNavHeaderComponent&#45;&gt;OrderModule</title>
<path fill="none" stroke="black" d="M1017,-122.19C1017,-137.18 1017,-156 1017,-156 1017,-156 1192.89,-156 1192.89,-156"/>
<polygon fill="black" stroke="black" points="1192.89,-159.5 1202.89,-156 1192.89,-152.5 1192.89,-159.5"/>
</g>
<!-- HkServicesComponent -->
<g id="node11" class="node">
<title>HkServicesComponent</title>
<polygon fill="#ffffb3" stroke="black" points="917.86,-122 772.14,-122 772.14,-86 917.86,-86 917.86,-122"/>
<text text-anchor="middle" x="845" y="-99.8" font-family="Times,serif" font-size="14.00">HkServicesComponent</text>
</g>
<!-- HkServicesComponent&#45;&gt;OrderModule -->
<g id="edge11" class="edge">
<title>HkServicesComponent&#45;&gt;OrderModule</title>
<path fill="none" stroke="black" d="M845,-122.03C845,-138.4 845,-160 845,-160 845,-160 1192.66,-160 1192.66,-160"/>
<polygon fill="black" stroke="black" points="1192.66,-163.5 1202.66,-160 1192.66,-156.5 1192.66,-163.5"/>
</g>
<!-- ItemCardsComponent -->
<g id="node12" class="node">
<title>ItemCardsComponent</title>
<polygon fill="#ffffb3" stroke="black" points="753.65,-122 614.35,-122 614.35,-86 753.65,-86 753.65,-122"/>
<text text-anchor="middle" x="684" y="-99.8" font-family="Times,serif" font-size="14.00">ItemCardsComponent</text>
</g>
<!-- ItemCardsComponent&#45;&gt;OrderModule -->
<g id="edge12" class="edge">
<title>ItemCardsComponent&#45;&gt;OrderModule</title>
<path fill="none" stroke="black" d="M684,-122.3C684,-140.27 684,-165 684,-165 684,-165 1192.76,-165 1192.76,-165"/>
<polygon fill="black" stroke="black" points="1192.76,-168.5 1202.76,-165 1192.76,-161.5 1192.76,-168.5"/>
</g>
<!-- OrderComponent -->
<g id="node13" class="node">
<title>OrderComponent</title>
<polygon fill="#ffffb3" stroke="black" points="595.97,-122 482.03,-122 482.03,-86 595.97,-86 595.97,-122"/>
<text text-anchor="middle" x="539" y="-99.8" font-family="Times,serif" font-size="14.00">OrderComponent</text>
</g>
<!-- OrderComponent&#45;&gt;OrderModule -->
<g id="edge13" class="edge">
<title>OrderComponent&#45;&gt;OrderModule</title>
<path fill="none" stroke="black" d="M539,-122.11C539,-141.34 539,-169 539,-169 539,-169 1192.69,-169 1192.69,-169"/>
<polygon fill="black" stroke="black" points="1192.69,-172.5 1202.69,-169 1192.69,-165.5 1192.69,-172.5"/>
</g>
<!-- ReviewOrdersComponent -->
<g id="node14" class="node">
<title>ReviewOrdersComponent</title>
<polygon fill="#ffffb3" stroke="black" points="464.18,-122 301.82,-122 301.82,-86 464.18,-86 464.18,-122"/>
<text text-anchor="middle" x="383" y="-99.8" font-family="Times,serif" font-size="14.00">ReviewOrdersComponent</text>
</g>
<!-- ReviewOrdersComponent&#45;&gt;OrderModule -->
<g id="edge14" class="edge">
<title>ReviewOrdersComponent&#45;&gt;OrderModule</title>
<path fill="none" stroke="black" d="M383,-122.03C383,-142.77 383,-174 383,-174 383,-174 1192.75,-174 1192.75,-174"/>
<polygon fill="black" stroke="black" points="1192.75,-177.5 1202.75,-174 1192.75,-170.5 1192.75,-177.5"/>
</g>
<!-- OrderRoutingModule -->
<g id="node16" class="node">
<title>OrderRoutingModule</title>
<polygon fill="#8dd3c7" stroke="black" points="277.81,-122 274.81,-126 253.81,-126 250.81,-122 140.19,-122 140.19,-86 277.81,-86 277.81,-122"/>
<text text-anchor="middle" x="209" y="-99.8" font-family="Times,serif" font-size="14.00">OrderRoutingModule</text>
</g>
<!-- OrderRoutingModule&#45;&gt;OrderModule -->
<g id="edge15" class="edge">
<title>OrderRoutingModule&#45;&gt;OrderModule</title>
<path fill="none" stroke="black" d="M209,-122.29C209,-144.21 209,-178 209,-178 209,-178 1192.63,-178 1192.63,-178"/>
<polygon fill="black" stroke="black" points="1192.63,-181.5 1202.63,-178 1192.63,-174.5 1192.63,-181.5"/>
</g>
<!-- SharedModule -->
<g id="node17" class="node">
<title>SharedModule</title>
<polygon fill="#8dd3c7" stroke="black" points="122.42,-122 119.42,-126 98.42,-126 95.42,-122 23.58,-122 23.58,-86 122.42,-86 122.42,-122"/>
<text text-anchor="middle" x="73" y="-99.8" font-family="Times,serif" font-size="14.00">SharedModule</text>
</g>
<!-- SharedModule&#45;&gt;OrderModule -->
<g id="edge16" class="edge">
<title>SharedModule&#45;&gt;OrderModule</title>
<path fill="none" stroke="black" d="M73,-122.32C73,-145.66 73,-183 73,-183 73,-183 1192.9,-183 1192.9,-183"/>
<polygon fill="black" stroke="black" points="1192.9,-186.5 1202.9,-183 1192.9,-179.5 1192.9,-186.5"/>
</g>
</g>
</svg>
