<?xml version="1.0" encoding="UTF-8" standalone="no"?>
<!DOCTYPE svg PUBLIC "-//W3C//DTD SVG 1.1//EN"
 "http://www.w3.org/Graphics/SVG/1.1/DTD/svg11.dtd">
<!-- Generated by graphviz version 2.46.0 (20210119.1425)
 -->
<!-- Title: dependencies Pages: 1 -->
<svg width="2966pt" height="211pt"
 viewBox="0.00 0.00 2966.00 211.00" xmlns="http://www.w3.org/2000/svg" xmlns:xlink="http://www.w3.org/1999/xlink">
<g id="graph0" class="graph" transform="scale(1 1) rotate(0) translate(4 207)">
<title>dependencies</title>
<polygon fill="white" stroke="transparent" points="-4,4 -4,-207 2962,-207 2962,4 -4,4"/>
<text text-anchor="start" x="1458.01" y="-42.4" font-family="sans-serif" font-weight="bold" font-size="14.00">Legend</text>
<polygon fill="#ffffb3" stroke="transparent" points="1245,-10 1245,-30 1265,-30 1265,-10 1245,-10"/>
<text text-anchor="start" x="1268.63" y="-15.4" font-family="sans-serif" font-size="14.00"> &#160;Declarations</text>
<polygon fill="#8dd3c7" stroke="transparent" points="1358,-10 1358,-30 1378,-30 1378,-10 1358,-10"/>
<text text-anchor="start" x="1381.73" y="-15.4" font-family="sans-serif" font-size="14.00"> &#160;Module</text>
<polygon fill="#80b1d3" stroke="transparent" points="1444,-10 1444,-30 1464,-30 1464,-10 1444,-10"/>
<text text-anchor="start" x="1467.78" y="-15.4" font-family="sans-serif" font-size="14.00"> &#160;Bootstrap</text>
<polygon fill="#fdb462" stroke="transparent" points="1541,-10 1541,-30 1561,-30 1561,-10 1541,-10"/>
<text text-anchor="start" x="1564.67" y="-15.4" font-family="sans-serif" font-size="14.00"> &#160;Providers</text>
<polygon fill="#fb8072" stroke="transparent" points="1637,-10 1637,-30 1657,-30 1657,-10 1637,-10"/>
<text text-anchor="start" x="1660.73" y="-15.4" font-family="sans-serif" font-size="14.00"> &#160;Exports</text>
<g id="clust1" class="cluster">
<title>cluster_OrderModule</title>
<polygon fill="none" stroke="black" stroke-dasharray="1,5" points="8,-70 8,-195 2950,-195 2950,-70 8,-70"/>
</g>
<g id="clust2" class="cluster">
<title>cluster_OrderModule_declarations</title>
<polygon fill="none" stroke="black" points="294,-78 294,-130 2942,-130 2942,-78 294,-78"/>
</g>
<g id="clust20" class="cluster">
<title>cluster_OrderModule_imports</title>
<polygon fill="none" stroke="black" points="16,-78 16,-130 286,-130 286,-78 16,-78"/>
</g>
<!-- CartComponent -->
<g id="node1" class="node">
<title>CartComponent</title>
<polygon fill="#ffffb3" stroke="black" points="2933.94,-122 2828.06,-122 2828.06,-86 2933.94,-86 2933.94,-122"/>
<text text-anchor="middle" x="2881" y="-99.8" font-family="Times,serif" font-size="14.00">CartComponent</text>
</g>
<!-- OrderModule -->
<g id="node18" class="node">
<title>OrderModule</title>
<polygon fill="#8dd3c7" stroke="black" points="1542.19,-187 1539.19,-191 1518.19,-191 1515.19,-187 1449.81,-187 1449.81,-151 1542.19,-151 1542.19,-187"/>
<text text-anchor="middle" x="1496" y="-164.8" font-family="Times,serif" font-size="14.00">OrderModule</text>
</g>
<!-- CartComponent&#45;&gt;OrderModule -->
<g id="edge1" class="edge">
<title>CartComponent&#45;&gt;OrderModule</title>
<path fill="none" stroke="black" d="M2881,-122.15C2881,-145.76 2881,-184 2881,-184 2881,-184 1552.48,-184 1552.48,-184"/>
<polygon fill="black" stroke="black" points="1552.48,-180.5 1542.48,-184 1552.48,-187.5 1552.48,-180.5"/>
</g>
<!-- CategoryCardsComponent -->
<g id="node2" class="node">
<title>CategoryCardsComponent</title>
<polygon fill="#ffffb3" stroke="black" points="2810.81,-122 2645.19,-122 2645.19,-86 2810.81,-86 2810.81,-122"/>
<text text-anchor="middle" x="2728" y="-99.8" font-family="Times,serif" font-size="14.00">CategoryCardsComponent</text>
</g>
<!-- CategoryCardsComponent&#45;&gt;OrderModule -->
<g id="edge2" class="edge">
<title>CategoryCardsComponent&#45;&gt;OrderModule</title>
<path fill="none" stroke="black" d="M2728,-122.01C2728,-144.49 2728,-180 2728,-180 2728,-180 1552.42,-180 1552.42,-180"/>
<polygon fill="black" stroke="black" points="1552.42,-176.5 1542.42,-180 1552.42,-183.5 1552.42,-176.5"/>
</g>
<!-- FbComponent -->
<g id="node3" class="node">
<title>FbComponent</title>
<polygon fill="#ffffb3" stroke="black" points="2627.12,-122 2530.88,-122 2530.88,-86 2627.12,-86 2627.12,-122"/>
<text text-anchor="middle" x="2579" y="-99.8" font-family="Times,serif" font-size="14.00">FbComponent</text>
</g>
<!-- FbComponent&#45;&gt;OrderModule -->
<g id="edge3" class="edge">
<title>FbComponent&#45;&gt;OrderModule</title>
<path fill="none" stroke="black" d="M2579,-122.04C2579,-143.66 2579,-177 2579,-177 2579,-177 1552.19,-177 1552.19,-177"/>
<polygon fill="black" stroke="black" points="1552.19,-173.5 1542.19,-177 1552.19,-180.5 1552.19,-173.5"/>
</g>
<!-- FbDrinksComponent -->
<g id="node4" class="node">
<title>FbDrinksComponent</title>
<polygon fill="#ffffb3" stroke="black" points="2513.22,-122 2378.78,-122 2378.78,-86 2513.22,-86 2513.22,-122"/>
<text text-anchor="middle" x="2446" y="-99.8" font-family="Times,serif" font-size="14.00">FbDrinksComponent</text>
</g>
<!-- FbDrinksComponent&#45;&gt;OrderModule -->
<g id="edge4" class="edge">
<title>FbDrinksComponent&#45;&gt;OrderModule</title>
<path fill="none" stroke="black" d="M2446,-122.13C2446,-142.57 2446,-173 2446,-173 2446,-173 1552.14,-173 1552.14,-173"/>
<polygon fill="black" stroke="black" points="1552.14,-169.5 1542.14,-173 1552.14,-176.5 1552.14,-169.5"/>
</g>
<!-- FbFoodComponent -->
<g id="node5" class="node">
<title>FbFoodComponent</title>
<polygon fill="#ffffb3" stroke="black" points="2360.4,-122 2235.6,-122 2235.6,-86 2360.4,-86 2360.4,-122"/>
<text text-anchor="middle" x="2298" y="-99.8" font-family="Times,serif" font-size="14.00">FbFoodComponent</text>
</g>
<!-- FbFoodComponent&#45;&gt;OrderModule -->
<g id="edge5" class="edge">
<title>FbFoodComponent&#45;&gt;OrderModule</title>
<path fill="none" stroke="black" d="M2298,-122.11C2298,-141.34 2298,-169 2298,-169 2298,-169 1552.29,-169 1552.29,-169"/>
<polygon fill="black" stroke="black" points="1552.29,-165.5 1542.29,-169 1552.29,-172.5 1552.29,-165.5"/>
</g>
<!-- FbHomeComponent -->
<g id="node6" class="node">
<title>FbHomeComponent</title>
<polygon fill="#ffffb3" stroke="black" points="2217.33,-122 2086.67,-122 2086.67,-86 2217.33,-86 2217.33,-122"/>
<text text-anchor="middle" x="2152" y="-99.8" font-family="Times,serif" font-size="14.00">FbHomeComponent</text>
</g>
<!-- FbHomeComponent&#45;&gt;OrderModule -->
<g id="edge6" class="edge">
<title>FbHomeComponent&#45;&gt;OrderModule</title>
<path fill="none" stroke="black" d="M2152,-122.27C2152,-140.56 2152,-166 2152,-166 2152,-166 1552.13,-166 1552.13,-166"/>
<polygon fill="black" stroke="black" points="1552.13,-162.5 1542.13,-166 1552.13,-169.5 1552.13,-162.5"/>
</g>
<!-- FbItemCardsComponent -->
<g id="node7" class="node">
<title>FbItemCardsComponent</title>
<polygon fill="#ffffb3" stroke="black" points="2069.43,-122 1914.57,-122 1914.57,-86 2069.43,-86 2069.43,-122"/>
<text text-anchor="middle" x="1992" y="-99.8" font-family="Times,serif" font-size="14.00">FbItemCardsComponent</text>
</g>
<!-- FbItemCardsComponent&#45;&gt;OrderModule -->
<g id="edge7" class="edge">
<title>FbItemCardsComponent&#45;&gt;OrderModule</title>
<path fill="none" stroke="black" d="M1992,-122.03C1992,-139.06 1992,-162 1992,-162 1992,-162 1552.22,-162 1552.22,-162"/>
<polygon fill="black" stroke="black" points="1552.22,-158.5 1542.22,-162 1552.22,-165.5 1552.22,-158.5"/>
</g>
<!-- FbNavHeaderComponent -->
<g id="node8" class="node">
<title>FbNavHeaderComponent</title>
<polygon fill="#ffffb3" stroke="black" points="1896.85,-122 1737.15,-122 1737.15,-86 1896.85,-86 1896.85,-122"/>
<text text-anchor="middle" x="1817" y="-99.8" font-family="Times,serif" font-size="14.00">FbNavHeaderComponent</text>
</g>
<!-- FbNavHeaderComponent&#45;&gt;OrderModule -->
<g id="edge8" class="edge">
<title>FbNavHeaderComponent&#45;&gt;OrderModule</title>
<path fill="none" stroke="black" d="M1817,-122.01C1817,-138.05 1817,-159 1817,-159 1817,-159 1552.33,-159 1552.33,-159"/>
<polygon fill="black" stroke="black" points="1552.33,-155.5 1542.33,-159 1552.33,-162.5 1552.33,-155.5"/>
</g>
<!-- HkAmenitiesComponent -->
<g id="node9" class="node">
<title>HkAmenitiesComponent</title>
<polygon fill="#ffffb3" stroke="black" points="1718.98,-122 1563.02,-122 1563.02,-86 1718.98,-86 1718.98,-122"/>
<text text-anchor="middle" x="1641" y="-99.8" font-family="Times,serif" font-size="14.00">HkAmenitiesComponent</text>
</g>
<!-- HkAmenitiesComponent&#45;&gt;OrderModule -->
<g id="edge9" class="edge">
<title>HkAmenitiesComponent&#45;&gt;OrderModule</title>
<path fill="none" stroke="black" d="M1641,-122.12C1641,-136.78 1641,-155 1641,-155 1641,-155 1552.28,-155 1552.28,-155"/>
<polygon fill="black" stroke="black" points="1552.28,-151.5 1542.28,-155 1552.28,-158.5 1552.28,-151.5"/>
</g>
<!-- HkComponent -->
<g id="node10" class="node">
<title>HkComponent</title>
<polygon fill="#ffffb3" stroke="black" points="1545.44,-122 1446.56,-122 1446.56,-86 1545.44,-86 1545.44,-122"/>
<text text-anchor="middle" x="1496" y="-99.8" font-family="Times,serif" font-size="14.00">HkComponent</text>
</g>
<!-- HkComponent&#45;&gt;OrderModule -->
<g id="edge10" class="edge">
<title>HkComponent&#45;&gt;OrderModule</title>
<path fill="none" stroke="black" d="M1496,-122.11C1496,-122.11 1496,-140.99 1496,-140.99"/>
<polygon fill="black" stroke="black" points="1492.5,-140.99 1496,-150.99 1499.5,-140.99 1492.5,-140.99"/>
</g>
<!-- HkHomeComponent -->
<g id="node11" class="node">
<title>HkHomeComponent</title>
<polygon fill="#ffffb3" stroke="black" points="1428.15,-122 1295.85,-122 1295.85,-86 1428.15,-86 1428.15,-122"/>
<text text-anchor="middle" x="1362" y="-99.8" font-family="Times,serif" font-size="14.00">HkHomeComponent</text>
</g>
<!-- HkHomeComponent&#45;&gt;OrderModule -->
<g id="edge11" class="edge">
<title>HkHomeComponent&#45;&gt;OrderModule</title>
<path fill="none" stroke="black" d="M1362,-122.12C1362,-136.78 1362,-155 1362,-155 1362,-155 1439.88,-155 1439.88,-155"/>
<polygon fill="black" stroke="black" points="1439.88,-158.5 1449.88,-155 1439.88,-151.5 1439.88,-158.5"/>
</g>
<!-- HkNavHeaderComponent -->
<g id="node12" class="node">
<title>HkNavHeaderComponent</title>
<polygon fill="#ffffb3" stroke="black" points="1278.17,-122 1115.83,-122 1115.83,-86 1278.17,-86 1278.17,-122"/>
<text text-anchor="middle" x="1197" y="-99.8" font-family="Times,serif" font-size="14.00">HkNavHeaderComponent</text>
</g>
<!-- HkNavHeaderComponent&#45;&gt;OrderModule -->
<g id="edge12" class="edge">
<title>HkNavHeaderComponent&#45;&gt;OrderModule</title>
<path fill="none" stroke="black" d="M1197,-122.01C1197,-138.05 1197,-159 1197,-159 1197,-159 1439.61,-159 1439.61,-159"/>
<polygon fill="black" stroke="black" points="1439.61,-162.5 1449.61,-159 1439.61,-155.5 1439.61,-162.5"/>
</g>
<!-- HkServicesComponent -->
<g id="node13" class="node">
<title>HkServicesComponent</title>
<polygon fill="#ffffb3" stroke="black" points="1097.86,-122 952.14,-122 952.14,-86 1097.86,-86 1097.86,-122"/>
<text text-anchor="middle" x="1025" y="-99.8" font-family="Times,serif" font-size="14.00">HkServicesComponent</text>
</g>
<!-- HkServicesComponent&#45;&gt;OrderModule -->
<g id="edge13" class="edge">
<title>HkServicesComponent&#45;&gt;OrderModule</title>
<path fill="none" stroke="black" d="M1025,-122.03C1025,-139.06 1025,-162 1025,-162 1025,-162 1439.55,-162 1439.55,-162"/>
<polygon fill="black" stroke="black" points="1439.55,-165.5 1449.55,-162 1439.55,-158.5 1439.55,-165.5"/>
</g>
<!-- ItemCardsComponent -->
<g id="node14" class="node">
<title>ItemCardsComponent</title>
<polygon fill="#ffffb3" stroke="black" points="933.65,-122 794.35,-122 794.35,-86 933.65,-86 933.65,-122"/>
<text text-anchor="middle" x="864" y="-99.8" font-family="Times,serif" font-size="14.00">ItemCardsComponent</text>
</g>
<!-- ItemCardsComponent&#45;&gt;OrderModule -->
<g id="edge14" class="edge">
<title>ItemCardsComponent&#45;&gt;OrderModule</title>
<path fill="none" stroke="black" d="M864,-122.27C864,-140.56 864,-166 864,-166 864,-166 1439.78,-166 1439.78,-166"/>
<polygon fill="black" stroke="black" points="1439.78,-169.5 1449.78,-166 1439.78,-162.5 1439.78,-169.5"/>
</g>
<!-- OrderComponent -->
<g id="node15" class="node">
<title>OrderComponent</title>
<polygon fill="#ffffb3" stroke="black" points="775.97,-122 662.03,-122 662.03,-86 775.97,-86 775.97,-122"/>
<text text-anchor="middle" x="719" y="-99.8" font-family="Times,serif" font-size="14.00">OrderComponent</text>
</g>
<!-- OrderComponent&#45;&gt;OrderModule -->
<g id="edge15" class="edge">
<title>OrderComponent&#45;&gt;OrderModule</title>
<path fill="none" stroke="black" d="M719,-122.11C719,-141.34 719,-169 719,-169 719,-169 1439.72,-169 1439.72,-169"/>
<polygon fill="black" stroke="black" points="1439.72,-172.5 1449.72,-169 1439.72,-165.5 1439.72,-172.5"/>
</g>
<!-- ReviewOrdersComponent -->
<g id="node16" class="node">
<title>ReviewOrdersComponent</title>
<polygon fill="#ffffb3" stroke="black" points="644.18,-122 481.82,-122 481.82,-86 644.18,-86 644.18,-122"/>
<text text-anchor="middle" x="563" y="-99.8" font-family="Times,serif" font-size="14.00">ReviewOrdersComponent</text>
</g>
<!-- ReviewOrdersComponent&#45;&gt;OrderModule -->
<g id="edge16" class="edge">
<title>ReviewOrdersComponent&#45;&gt;OrderModule</title>
<path fill="none" stroke="black" d="M563,-122.13C563,-142.57 563,-173 563,-173 563,-173 1439.73,-173 1439.73,-173"/>
<polygon fill="black" stroke="black" points="1439.73,-176.5 1449.73,-173 1439.73,-169.5 1439.73,-176.5"/>
</g>
<!-- ServicesCardsComponent -->
<g id="node17" class="node">
<title>ServicesCardsComponent</title>
<polygon fill="#ffffb3" stroke="black" points="463.91,-122 302.09,-122 302.09,-86 463.91,-86 463.91,-122"/>
<text text-anchor="middle" x="383" y="-99.8" font-family="Times,serif" font-size="14.00">ServicesCardsComponent</text>
</g>
<!-- ServicesCardsComponent&#45;&gt;OrderModule -->
<g id="edge17" class="edge">
<title>ServicesCardsComponent&#45;&gt;OrderModule</title>
<path fill="none" stroke="black" d="M383,-122.04C383,-143.66 383,-177 383,-177 383,-177 1439.59,-177 1439.59,-177"/>
<polygon fill="black" stroke="black" points="1439.59,-180.5 1449.59,-177 1439.59,-173.5 1439.59,-180.5"/>
</g>
<!-- OrderRoutingModule -->
<g id="node19" class="node">
<title>OrderRoutingModule</title>
<polygon fill="#8dd3c7" stroke="black" points="277.81,-122 274.81,-126 253.81,-126 250.81,-122 140.19,-122 140.19,-86 277.81,-86 277.81,-122"/>
<text text-anchor="middle" x="209" y="-99.8" font-family="Times,serif" font-size="14.00">OrderRoutingModule</text>
</g>
<!-- OrderRoutingModule&#45;&gt;OrderModule -->
<g id="edge18" class="edge">
<title>OrderRoutingModule&#45;&gt;OrderModule</title>
<path fill="none" stroke="black" d="M209,-122.01C209,-144.49 209,-180 209,-180 209,-180 1439.82,-180 1439.82,-180"/>
<polygon fill="black" stroke="black" points="1439.82,-183.5 1449.82,-180 1439.82,-176.5 1439.82,-183.5"/>
</g>
<!-- SharedModule -->
<g id="node20" class="node">
<title>SharedModule</title>
<polygon fill="#8dd3c7" stroke="black" points="122.42,-122 119.42,-126 98.42,-126 95.42,-122 23.58,-122 23.58,-86 122.42,-86 122.42,-122"/>
<text text-anchor="middle" x="73" y="-99.8" font-family="Times,serif" font-size="14.00">SharedModule</text>
</g>
<!-- SharedModule&#45;&gt;OrderModule -->
<g id="edge19" class="edge">
<title>SharedModule&#45;&gt;OrderModule</title>
<path fill="none" stroke="black" d="M73,-122.15C73,-145.76 73,-184 73,-184 73,-184 1439.87,-184 1439.87,-184"/>
<polygon fill="black" stroke="black" points="1439.87,-187.5 1449.87,-184 1439.87,-180.5 1439.87,-187.5"/>
</g>
</g>
</svg>
