<?xml version="1.0" encoding="UTF-8" standalone="no"?>
<!DOCTYPE svg PUBLIC "-//W3C//DTD SVG 1.1//EN"
 "http://www.w3.org/Graphics/SVG/1.1/DTD/svg11.dtd">
<!-- Generated by graphviz version 2.46.0 (20210119.1425)
 -->
<!-- Title: dependencies Pages: 1 -->
<svg width="2966pt" height="211pt"
 viewBox="0.00 0.00 2966.00 211.00" xmlns="http://www.w3.org/2000/svg" xmlns:xlink="http://www.w3.org/1999/xlink">
<g id="graph0" class="graph" transform="scale(1 1) rotate(0) translate(4 207)">
<title>dependencies</title>
<polygon fill="white" stroke="transparent" points="-4,4 -4,-207 2962,-207 2962,4 -4,4"/>
<text text-anchor="start" x="1458.01" y="-42.4" font-family="sans-serif" font-weight="bold" font-size="14.00">Legend</text>
<polygon fill="#ffffb3" stroke="transparent" points="1245,-10 1245,-30 1265,-30 1265,-10 1245,-10"/>
<text text-anchor="start" x="1268.63" y="-15.4" font-family="sans-serif" font-size="14.00"> &#160;Declarations</text>
<polygon fill="#8dd3c7" stroke="transparent" points="1358,-10 1358,-30 1378,-30 1378,-10 1358,-10"/>
<text text-anchor="start" x="1381.73" y="-15.4" font-family="sans-serif" font-size="14.00"> &#160;Module</text>
<polygon fill="#80b1d3" stroke="transparent" points="1444,-10 1444,-30 1464,-30 1464,-10 1444,-10"/>
<text text-anchor="start" x="1467.78" y="-15.4" font-family="sans-serif" font-size="14.00"> &#160;Bootstrap</text>
<polygon fill="#fdb462" stroke="transparent" points="1541,-10 1541,-30 1561,-30 1561,-10 1541,-10"/>
<text text-anchor="start" x="1564.67" y="-15.4" font-family="sans-serif" font-size="14.00"> &#160;Providers</text>
<polygon fill="#fb8072" stroke="transparent" points="1637,-10 1637,-30 1657,-30 1657,-10 1637,-10"/>
<text text-anchor="start" x="1660.73" y="-15.4" font-family="sans-serif" font-size="14.00"> &#160;Exports</text>
<g id="clust1" class="cluster">
<title>cluster_OrderModule</title>
<polygon fill="none" stroke="black" stroke-dasharray="1,5" points="8,-70 8,-195 2950,-195 2950,-70 8,-70"/>
</g>
<g id="clust20" class="cluster">
<title>cluster_OrderModule_imports</title>
<polygon fill="none" stroke="black" points="2672,-78 2672,-130 2942,-130 2942,-78 2672,-78"/>
</g>
<g id="clust2" class="cluster">
<title>cluster_OrderModule_declarations</title>
<polygon fill="none" stroke="black" points="16,-78 16,-130 2664,-130 2664,-78 16,-78"/>
</g>
<!-- CartComponent -->
<g id="node1" class="node">
<title>CartComponent</title>
<polygon fill="#ffffb3" stroke="black" points="2655.94,-122 2550.06,-122 2550.06,-86 2655.94,-86 2655.94,-122"/>
<text text-anchor="middle" x="2603" y="-99.8" font-family="Times,serif" font-size="14.00">CartComponent</text>
</g>
<!-- OrderModule -->
<g id="node18" class="node">
<title>OrderModule</title>
<polygon fill="#8dd3c7" stroke="black" points="1585.19,-187 1582.19,-191 1561.19,-191 1558.19,-187 1492.81,-187 1492.81,-151 1585.19,-151 1585.19,-187"/>
<text text-anchor="middle" x="1539" y="-164.8" font-family="Times,serif" font-size="14.00">OrderModule</text>
</g>
<!-- CartComponent&#45;&gt;OrderModule -->
<g id="edge1" class="edge">
<title>CartComponent&#45;&gt;OrderModule</title>
<path fill="none" stroke="black" d="M2603,-122.04C2603,-143.66 2603,-177 2603,-177 2603,-177 1595.4,-177 1595.4,-177"/>
<polygon fill="black" stroke="black" points="1595.4,-173.5 1585.4,-177 1595.4,-180.5 1595.4,-173.5"/>
</g>
<!-- CategoryCardsComponent -->
<g id="node2" class="node">
<title>CategoryCardsComponent</title>
<polygon fill="#ffffb3" stroke="black" points="2532.81,-122 2367.19,-122 2367.19,-86 2532.81,-86 2532.81,-122"/>
<text text-anchor="middle" x="2450" y="-99.8" font-family="Times,serif" font-size="14.00">CategoryCardsComponent</text>
</g>
<!-- CategoryCardsComponent&#45;&gt;OrderModule -->
<g id="edge2" class="edge">
<title>CategoryCardsComponent&#45;&gt;OrderModule</title>
<path fill="none" stroke="black" d="M2450,-122.13C2450,-142.57 2450,-173 2450,-173 2450,-173 1595.11,-173 1595.11,-173"/>
<polygon fill="black" stroke="black" points="1595.11,-169.5 1585.11,-173 1595.11,-176.5 1595.11,-169.5"/>
</g>
<!-- FbComponent -->
<g id="node3" class="node">
<title>FbComponent</title>
<polygon fill="#ffffb3" stroke="black" points="2349.12,-122 2252.88,-122 2252.88,-86 2349.12,-86 2349.12,-122"/>
<text text-anchor="middle" x="2301" y="-99.8" font-family="Times,serif" font-size="14.00">FbComponent</text>
</g>
<!-- FbComponent&#45;&gt;OrderModule -->
<g id="edge3" class="edge">
<title>FbComponent&#45;&gt;OrderModule</title>
<path fill="none" stroke="black" d="M2301,-122.11C2301,-141.34 2301,-169 2301,-169 2301,-169 1595.23,-169 1595.23,-169"/>
<polygon fill="black" stroke="black" points="1595.23,-165.5 1585.23,-169 1595.23,-172.5 1595.23,-165.5"/>
</g>
<!-- FbDrinksComponent -->
<g id="node4" class="node">
<title>FbDrinksComponent</title>
<polygon fill="#ffffb3" stroke="black" points="2235.22,-122 2100.78,-122 2100.78,-86 2235.22,-86 2235.22,-122"/>
<text text-anchor="middle" x="2168" y="-99.8" font-family="Times,serif" font-size="14.00">FbDrinksComponent</text>
</g>
<!-- FbDrinksComponent&#45;&gt;OrderModule -->
<g id="edge4" class="edge">
<title>FbDrinksComponent&#45;&gt;OrderModule</title>
<path fill="none" stroke="black" d="M2168,-122.27C2168,-140.56 2168,-166 2168,-166 2168,-166 1595.25,-166 1595.25,-166"/>
<polygon fill="black" stroke="black" points="1595.25,-162.5 1585.25,-166 1595.25,-169.5 1595.25,-162.5"/>
</g>
<!-- FbFoodComponent -->
<g id="node5" class="node">
<title>FbFoodComponent</title>
<polygon fill="#ffffb3" stroke="black" points="2082.4,-122 1957.6,-122 1957.6,-86 2082.4,-86 2082.4,-122"/>
<text text-anchor="middle" x="2020" y="-99.8" font-family="Times,serif" font-size="14.00">FbFoodComponent</text>
</g>
<!-- FbFoodComponent&#45;&gt;OrderModule -->
<g id="edge5" class="edge">
<title>FbFoodComponent&#45;&gt;OrderModule</title>
<path fill="none" stroke="black" d="M2020,-122.03C2020,-139.06 2020,-162 2020,-162 2020,-162 1595.12,-162 1595.12,-162"/>
<polygon fill="black" stroke="black" points="1595.12,-158.5 1585.12,-162 1595.12,-165.5 1595.12,-158.5"/>
</g>
<!-- FbHomeComponent -->
<g id="node6" class="node">
<title>FbHomeComponent</title>
<polygon fill="#ffffb3" stroke="black" points="1939.33,-122 1808.67,-122 1808.67,-86 1939.33,-86 1939.33,-122"/>
<text text-anchor="middle" x="1874" y="-99.8" font-family="Times,serif" font-size="14.00">FbHomeComponent</text>
</g>
<!-- FbHomeComponent&#45;&gt;OrderModule -->
<g id="edge6" class="edge">
<title>FbHomeComponent&#45;&gt;OrderModule</title>
<path fill="none" stroke="black" d="M1874,-122.01C1874,-138.05 1874,-159 1874,-159 1874,-159 1595.23,-159 1595.23,-159"/>
<polygon fill="black" stroke="black" points="1595.23,-155.5 1585.23,-159 1595.23,-162.5 1595.23,-155.5"/>
</g>
<!-- FbItemCardsComponent -->
<g id="node7" class="node">
<title>FbItemCardsComponent</title>
<polygon fill="#ffffb3" stroke="black" points="1791.43,-122 1636.57,-122 1636.57,-86 1791.43,-86 1791.43,-122"/>
<text text-anchor="middle" x="1714" y="-99.8" font-family="Times,serif" font-size="14.00">FbItemCardsComponent</text>
</g>
<!-- FbItemCardsComponent&#45;&gt;OrderModule -->
<g id="edge7" class="edge">
<title>FbItemCardsComponent&#45;&gt;OrderModule</title>
<path fill="none" stroke="black" d="M1714,-122.12C1714,-136.78 1714,-155 1714,-155 1714,-155 1595.44,-155 1595.44,-155"/>
<polygon fill="black" stroke="black" points="1595.44,-151.5 1585.44,-155 1595.44,-158.5 1595.44,-151.5"/>
</g>
<!-- FbNavHeaderComponent -->
<g id="node8" class="node">
<title>FbNavHeaderComponent</title>
<polygon fill="#ffffb3" stroke="black" points="1618.85,-122 1459.15,-122 1459.15,-86 1618.85,-86 1618.85,-122"/>
<text text-anchor="middle" x="1539" y="-99.8" font-family="Times,serif" font-size="14.00">FbNavHeaderComponent</text>
</g>
<!-- FbNavHeaderComponent&#45;&gt;OrderModule -->
<g id="edge8" class="edge">
<title>FbNavHeaderComponent&#45;&gt;OrderModule</title>
<path fill="none" stroke="black" d="M1539,-122.11C1539,-122.11 1539,-140.99 1539,-140.99"/>
<polygon fill="black" stroke="black" points="1535.5,-140.99 1539,-150.99 1542.5,-140.99 1535.5,-140.99"/>
</g>
<!-- HkAmenitiesComponent -->
<g id="node9" class="node">
<title>HkAmenitiesComponent</title>
<polygon fill="#ffffb3" stroke="black" points="1440.98,-122 1285.02,-122 1285.02,-86 1440.98,-86 1440.98,-122"/>
<text text-anchor="middle" x="1363" y="-99.8" font-family="Times,serif" font-size="14.00">HkAmenitiesComponent</text>
</g>
<!-- HkAmenitiesComponent&#45;&gt;OrderModule -->
<g id="edge9" class="edge">
<title>HkAmenitiesComponent&#45;&gt;OrderModule</title>
<path fill="none" stroke="black" d="M1363,-122.12C1363,-136.78 1363,-155 1363,-155 1363,-155 1482.76,-155 1482.76,-155"/>
<polygon fill="black" stroke="black" points="1482.76,-158.5 1492.76,-155 1482.76,-151.5 1482.76,-158.5"/>
</g>
<!-- HkComponent -->
<g id="node10" class="node">
<title>HkComponent</title>
<polygon fill="#ffffb3" stroke="black" points="1267.44,-122 1168.56,-122 1168.56,-86 1267.44,-86 1267.44,-122"/>
<text text-anchor="middle" x="1218" y="-99.8" font-family="Times,serif" font-size="14.00">HkComponent</text>
</g>
<!-- HkComponent&#45;&gt;OrderModule -->
<g id="edge10" class="edge">
<title>HkComponent&#45;&gt;OrderModule</title>
<path fill="none" stroke="black" d="M1218,-122.01C1218,-138.05 1218,-159 1218,-159 1218,-159 1482.67,-159 1482.67,-159"/>
<polygon fill="black" stroke="black" points="1482.67,-162.5 1492.67,-159 1482.67,-155.5 1482.67,-162.5"/>
</g>
<!-- HkHomeComponent -->
<g id="node11" class="node">
<title>HkHomeComponent</title>
<polygon fill="#ffffb3" stroke="black" points="1150.15,-122 1017.85,-122 1017.85,-86 1150.15,-86 1150.15,-122"/>
<text text-anchor="middle" x="1084" y="-99.8" font-family="Times,serif" font-size="14.00">HkHomeComponent</text>
</g>
<!-- HkHomeComponent&#45;&gt;OrderModule -->
<g id="edge11" class="edge">
<title>HkHomeComponent&#45;&gt;OrderModule</title>
<path fill="none" stroke="black" d="M1084,-122.03C1084,-139.06 1084,-162 1084,-162 1084,-162 1482.87,-162 1482.87,-162"/>
<polygon fill="black" stroke="black" points="1482.87,-165.5 1492.87,-162 1482.87,-158.5 1482.87,-165.5"/>
</g>
<!-- HkNavHeaderComponent -->
<g id="node12" class="node">
<title>HkNavHeaderComponent</title>
<polygon fill="#ffffb3" stroke="black" points="1000.17,-122 837.83,-122 837.83,-86 1000.17,-86 1000.17,-122"/>
<text text-anchor="middle" x="919" y="-99.8" font-family="Times,serif" font-size="14.00">HkNavHeaderComponent</text>
</g>
<!-- HkNavHeaderComponent&#45;&gt;OrderModule -->
<g id="edge12" class="edge">
<title>HkNavHeaderComponent&#45;&gt;OrderModule</title>
<path fill="none" stroke="black" d="M919,-122.27C919,-140.56 919,-166 919,-166 919,-166 1482.65,-166 1482.65,-166"/>
<polygon fill="black" stroke="black" points="1482.65,-169.5 1492.65,-166 1482.65,-162.5 1482.65,-169.5"/>
</g>
<!-- HkServicesComponent -->
<g id="node13" class="node">
<title>HkServicesComponent</title>
<polygon fill="#ffffb3" stroke="black" points="819.86,-122 674.14,-122 674.14,-86 819.86,-86 819.86,-122"/>
<text text-anchor="middle" x="747" y="-99.8" font-family="Times,serif" font-size="14.00">HkServicesComponent</text>
</g>
<!-- HkServicesComponent&#45;&gt;OrderModule -->
<g id="edge13" class="edge">
<title>HkServicesComponent&#45;&gt;OrderModule</title>
<path fill="none" stroke="black" d="M747,-122.11C747,-141.34 747,-169 747,-169 747,-169 1482.7,-169 1482.7,-169"/>
<polygon fill="black" stroke="black" points="1482.7,-172.5 1492.7,-169 1482.7,-165.5 1482.7,-172.5"/>
</g>
<!-- ItemCardsComponent -->
<g id="node14" class="node">
<title>ItemCardsComponent</title>
<polygon fill="#ffffb3" stroke="black" points="655.65,-122 516.35,-122 516.35,-86 655.65,-86 655.65,-122"/>
<text text-anchor="middle" x="586" y="-99.8" font-family="Times,serif" font-size="14.00">ItemCardsComponent</text>
</g>
<!-- ItemCardsComponent&#45;&gt;OrderModule -->
<g id="edge14" class="edge">
<title>ItemCardsComponent&#45;&gt;OrderModule</title>
<path fill="none" stroke="black" d="M586,-122.13C586,-142.57 586,-173 586,-173 586,-173 1482.71,-173 1482.71,-173"/>
<polygon fill="black" stroke="black" points="1482.71,-176.5 1492.71,-173 1482.71,-169.5 1482.71,-176.5"/>
</g>
<!-- OrderComponent -->
<g id="node15" class="node">
<title>OrderComponent</title>
<polygon fill="#ffffb3" stroke="black" points="497.97,-122 384.03,-122 384.03,-86 497.97,-86 497.97,-122"/>
<text text-anchor="middle" x="441" y="-99.8" font-family="Times,serif" font-size="14.00">OrderComponent</text>
</g>
<!-- OrderComponent&#45;&gt;OrderModule -->
<g id="edge15" class="edge">
<title>OrderComponent&#45;&gt;OrderModule</title>
<path fill="none" stroke="black" d="M441,-122.04C441,-143.66 441,-177 441,-177 441,-177 1482.87,-177 1482.87,-177"/>
<polygon fill="black" stroke="black" points="1482.87,-180.5 1492.87,-177 1482.87,-173.5 1482.87,-180.5"/>
</g>
<!-- ReviewOrdersComponent -->
<g id="node16" class="node">
<title>ReviewOrdersComponent</title>
<polygon fill="#ffffb3" stroke="black" points="366.18,-122 203.82,-122 203.82,-86 366.18,-86 366.18,-122"/>
<text text-anchor="middle" x="285" y="-99.8" font-family="Times,serif" font-size="14.00">ReviewOrdersComponent</text>
</g>
<!-- ReviewOrdersComponent&#45;&gt;OrderModule -->
<g id="edge16" class="edge">
<title>ReviewOrdersComponent&#45;&gt;OrderModule</title>
<path fill="none" stroke="black" d="M285,-122.01C285,-144.49 285,-180 285,-180 285,-180 1482.88,-180 1482.88,-180"/>
<polygon fill="black" stroke="black" points="1482.88,-183.5 1492.88,-180 1482.88,-176.5 1482.88,-183.5"/>
</g>
<!-- ServicesCardsComponent -->
<g id="node17" class="node">
<title>ServicesCardsComponent</title>
<polygon fill="#ffffb3" stroke="black" points="185.91,-122 24.09,-122 24.09,-86 185.91,-86 185.91,-122"/>
<text text-anchor="middle" x="105" y="-99.8" font-family="Times,serif" font-size="14.00">ServicesCardsComponent</text>
</g>
<!-- ServicesCardsComponent&#45;&gt;OrderModule -->
<g id="edge17" class="edge">
<title>ServicesCardsComponent&#45;&gt;OrderModule</title>
<path fill="none" stroke="black" d="M105,-122.15C105,-145.76 105,-184 105,-184 105,-184 1482.51,-184 1482.51,-184"/>
<polygon fill="black" stroke="black" points="1482.51,-187.5 1492.51,-184 1482.51,-180.5 1482.51,-187.5"/>
</g>
<!-- OrderRoutingModule -->
<g id="node19" class="node">
<title>OrderRoutingModule</title>
<polygon fill="#8dd3c7" stroke="black" points="2933.81,-122 2930.81,-126 2909.81,-126 2906.81,-122 2796.19,-122 2796.19,-86 2933.81,-86 2933.81,-122"/>
<text text-anchor="middle" x="2865" y="-99.8" font-family="Times,serif" font-size="14.00">OrderRoutingModule</text>
</g>
<!-- OrderRoutingModule&#45;&gt;OrderModule -->
<g id="edge18" class="edge">
<title>OrderRoutingModule&#45;&gt;OrderModule</title>
<path fill="none" stroke="black" d="M2865,-122.15C2865,-145.76 2865,-184 2865,-184 2865,-184 1595.42,-184 1595.42,-184"/>
<polygon fill="black" stroke="black" points="1595.42,-180.5 1585.42,-184 1595.42,-187.5 1595.42,-180.5"/>
</g>
<!-- SharedModule -->
<g id="node20" class="node">
<title>SharedModule</title>
<polygon fill="#8dd3c7" stroke="black" points="2778.42,-122 2775.42,-126 2754.42,-126 2751.42,-122 2679.58,-122 2679.58,-86 2778.42,-86 2778.42,-122"/>
<text text-anchor="middle" x="2729" y="-99.8" font-family="Times,serif" font-size="14.00">SharedModule</text>
</g>
<!-- SharedModule&#45;&gt;OrderModule -->
<g id="edge19" class="edge">
<title>SharedModule&#45;&gt;OrderModule</title>
<path fill="none" stroke="black" d="M2729,-122.01C2729,-144.49 2729,-180 2729,-180 2729,-180 1595.28,-180 1595.28,-180"/>
<polygon fill="black" stroke="black" points="1595.28,-176.5 1585.28,-180 1595.28,-183.5 1595.28,-176.5"/>
</g>
</g>
</svg>
