<?xml version="1.0" encoding="UTF-8" standalone="no"?>
<!DOCTYPE svg PUBLIC "-//W3C//DTD SVG 1.1//EN"
 "http://www.w3.org/Graphics/SVG/1.1/DTD/svg11.dtd">
<!-- Generated by graphviz version 2.46.0 (20210119.1425)
 -->
<!-- Title: dependencies Pages: 1 -->
<svg width="2431pt" height="211pt"
 viewBox="0.00 0.00 2431.00 211.00" xmlns="http://www.w3.org/2000/svg" xmlns:xlink="http://www.w3.org/1999/xlink">
<g id="graph0" class="graph" transform="scale(1 1) rotate(0) translate(4 207)">
<title>dependencies</title>
<polygon fill="white" stroke="transparent" points="-4,4 -4,-207 2427,-207 2427,4 -4,4"/>
<text text-anchor="start" x="1190.51" y="-42.4" font-family="sans-serif" font-weight="bold" font-size="14.00">Legend</text>
<polygon fill="#ffffb3" stroke="transparent" points="977.5,-10 977.5,-30 997.5,-30 997.5,-10 977.5,-10"/>
<text text-anchor="start" x="1001.13" y="-15.4" font-family="sans-serif" font-size="14.00"> &#160;Declarations</text>
<polygon fill="#8dd3c7" stroke="transparent" points="1090.5,-10 1090.5,-30 1110.5,-30 1110.5,-10 1090.5,-10"/>
<text text-anchor="start" x="1114.23" y="-15.4" font-family="sans-serif" font-size="14.00"> &#160;Module</text>
<polygon fill="#80b1d3" stroke="transparent" points="1176.5,-10 1176.5,-30 1196.5,-30 1196.5,-10 1176.5,-10"/>
<text text-anchor="start" x="1200.28" y="-15.4" font-family="sans-serif" font-size="14.00"> &#160;Bootstrap</text>
<polygon fill="#fdb462" stroke="transparent" points="1273.5,-10 1273.5,-30 1293.5,-30 1293.5,-10 1273.5,-10"/>
<text text-anchor="start" x="1297.17" y="-15.4" font-family="sans-serif" font-size="14.00"> &#160;Providers</text>
<polygon fill="#fb8072" stroke="transparent" points="1369.5,-10 1369.5,-30 1389.5,-30 1389.5,-10 1369.5,-10"/>
<text text-anchor="start" x="1393.23" y="-15.4" font-family="sans-serif" font-size="14.00"> &#160;Exports</text>
<g id="clust1" class="cluster">
<title>cluster_OrderModule</title>
<polygon fill="none" stroke="black" stroke-dasharray="1,5" points="8,-70 8,-195 2415,-195 2415,-70 8,-70"/>
</g>
<g id="clust17" class="cluster">
<title>cluster_OrderModule_imports</title>
<polygon fill="none" stroke="black" points="2137,-78 2137,-130 2407,-130 2407,-78 2137,-78"/>
</g>
<g id="clust2" class="cluster">
<title>cluster_OrderModule_declarations</title>
<polygon fill="none" stroke="black" points="16,-78 16,-130 2129,-130 2129,-78 16,-78"/>
</g>
<!-- CartComponent -->
<g id="node1" class="node">
<title>CartComponent</title>
<polygon fill="#ffffb3" stroke="black" points="2120.94,-122 2015.06,-122 2015.06,-86 2120.94,-86 2120.94,-122"/>
<text text-anchor="middle" x="2068" y="-99.8" font-family="Times,serif" font-size="14.00">CartComponent</text>
</g>
<!-- OrderModule -->
<g id="node15" class="node">
<title>OrderModule</title>
<polygon fill="#8dd3c7" stroke="black" points="1317.19,-187 1314.19,-191 1293.19,-191 1290.19,-187 1224.81,-187 1224.81,-151 1317.19,-151 1317.19,-187"/>
<text text-anchor="middle" x="1271" y="-164.8" font-family="Times,serif" font-size="14.00">OrderModule</text>
</g>
<!-- CartComponent&#45;&gt;OrderModule -->
<g id="edge1" class="edge">
<title>CartComponent&#45;&gt;OrderModule</title>
<path fill="none" stroke="black" d="M2068,-122.03C2068,-142.77 2068,-174 2068,-174 2068,-174 1327.3,-174 1327.3,-174"/>
<polygon fill="black" stroke="black" points="1327.3,-170.5 1317.3,-174 1327.29,-177.5 1327.3,-170.5"/>
</g>
<!-- FbComponent -->
<g id="node2" class="node">
<title>FbComponent</title>
<polygon fill="#ffffb3" stroke="black" points="1997.12,-122 1900.88,-122 1900.88,-86 1997.12,-86 1997.12,-122"/>
<text text-anchor="middle" x="1949" y="-99.8" font-family="Times,serif" font-size="14.00">FbComponent</text>
</g>
<!-- FbComponent&#45;&gt;OrderModule -->
<g id="edge2" class="edge">
<title>FbComponent&#45;&gt;OrderModule</title>
<path fill="none" stroke="black" d="M1949,-122.11C1949,-141.34 1949,-169 1949,-169 1949,-169 1327.33,-169 1327.33,-169"/>
<polygon fill="black" stroke="black" points="1327.33,-165.5 1317.33,-169 1327.33,-172.5 1327.33,-165.5"/>
</g>
<!-- FbDrinksComponent -->
<g id="node3" class="node">
<title>FbDrinksComponent</title>
<polygon fill="#ffffb3" stroke="black" points="1883.22,-122 1748.78,-122 1748.78,-86 1883.22,-86 1883.22,-122"/>
<text text-anchor="middle" x="1816" y="-99.8" font-family="Times,serif" font-size="14.00">FbDrinksComponent</text>
</g>
<!-- FbDrinksComponent&#45;&gt;OrderModule -->
<g id="edge3" class="edge">
<title>FbDrinksComponent&#45;&gt;OrderModule</title>
<path fill="none" stroke="black" d="M1816,-122.3C1816,-140.27 1816,-165 1816,-165 1816,-165 1327.47,-165 1327.47,-165"/>
<polygon fill="black" stroke="black" points="1327.47,-161.5 1317.47,-165 1327.47,-168.5 1327.47,-161.5"/>
</g>
<!-- FbFoodComponent -->
<g id="node4" class="node">
<title>FbFoodComponent</title>
<polygon fill="#ffffb3" stroke="black" points="1730.4,-122 1605.6,-122 1605.6,-86 1730.4,-86 1730.4,-122"/>
<text text-anchor="middle" x="1668" y="-99.8" font-family="Times,serif" font-size="14.00">FbFoodComponent</text>
</g>
<!-- FbFoodComponent&#45;&gt;OrderModule -->
<g id="edge4" class="edge">
<title>FbFoodComponent&#45;&gt;OrderModule</title>
<path fill="none" stroke="black" d="M1668,-122.03C1668,-138.4 1668,-160 1668,-160 1668,-160 1327.32,-160 1327.32,-160"/>
<polygon fill="black" stroke="black" points="1327.32,-156.5 1317.32,-160 1327.32,-163.5 1327.32,-156.5"/>
</g>
<!-- FbHomeComponent -->
<g id="node5" class="node">
<title>FbHomeComponent</title>
<polygon fill="#ffffb3" stroke="black" points="1587.33,-122 1456.67,-122 1456.67,-86 1587.33,-86 1587.33,-122"/>
<text text-anchor="middle" x="1522" y="-99.8" font-family="Times,serif" font-size="14.00">FbHomeComponent</text>
</g>
<!-- FbHomeComponent&#45;&gt;OrderModule -->
<g id="edge5" class="edge">
<title>FbHomeComponent&#45;&gt;OrderModule</title>
<path fill="none" stroke="black" d="M1522,-122.19C1522,-137.18 1522,-156 1522,-156 1522,-156 1327.33,-156 1327.33,-156"/>
<polygon fill="black" stroke="black" points="1327.33,-152.5 1317.33,-156 1327.33,-159.5 1327.33,-152.5"/>
</g>
<!-- FbNavHeaderComponent -->
<g id="node6" class="node">
<title>FbNavHeaderComponent</title>
<polygon fill="#ffffb3" stroke="black" points="1438.85,-122 1279.15,-122 1279.15,-86 1438.85,-86 1438.85,-122"/>
<text text-anchor="middle" x="1359" y="-99.8" font-family="Times,serif" font-size="14.00">FbNavHeaderComponent</text>
</g>
<!-- FbNavHeaderComponent&#45;&gt;OrderModule -->
<g id="edge6" class="edge">
<title>FbNavHeaderComponent&#45;&gt;OrderModule</title>
<path fill="none" stroke="black" d="M1298.09,-122.11C1298.09,-122.11 1298.09,-140.99 1298.09,-140.99"/>
<polygon fill="black" stroke="black" points="1294.59,-140.99 1298.09,-150.99 1301.59,-140.99 1294.59,-140.99"/>
</g>
<!-- HkAmenitiesComponent -->
<g id="node7" class="node">
<title>HkAmenitiesComponent</title>
<polygon fill="#ffffb3" stroke="black" points="1260.98,-122 1105.02,-122 1105.02,-86 1260.98,-86 1260.98,-122"/>
<text text-anchor="middle" x="1183" y="-99.8" font-family="Times,serif" font-size="14.00">HkAmenitiesComponent</text>
</g>
<!-- HkAmenitiesComponent&#45;&gt;OrderModule -->
<g id="edge7" class="edge">
<title>HkAmenitiesComponent&#45;&gt;OrderModule</title>
<path fill="none" stroke="black" d="M1242.95,-122.11C1242.95,-122.11 1242.95,-140.99 1242.95,-140.99"/>
<polygon fill="black" stroke="black" points="1239.45,-140.99 1242.95,-150.99 1246.45,-140.99 1239.45,-140.99"/>
</g>
<!-- HkComponent -->
<g id="node8" class="node">
<title>HkComponent</title>
<polygon fill="#ffffb3" stroke="black" points="1087.44,-122 988.56,-122 988.56,-86 1087.44,-86 1087.44,-122"/>
<text text-anchor="middle" x="1038" y="-99.8" font-family="Times,serif" font-size="14.00">HkComponent</text>
</g>
<!-- HkComponent&#45;&gt;OrderModule -->
<g id="edge8" class="edge">
<title>HkComponent&#45;&gt;OrderModule</title>
<path fill="none" stroke="black" d="M1038,-122.19C1038,-137.18 1038,-156 1038,-156 1038,-156 1214.69,-156 1214.69,-156"/>
<polygon fill="black" stroke="black" points="1214.69,-159.5 1224.69,-156 1214.69,-152.5 1214.69,-159.5"/>
</g>
<!-- HkHomeComponent -->
<g id="node9" class="node">
<title>HkHomeComponent</title>
<polygon fill="#ffffb3" stroke="black" points="970.15,-122 837.85,-122 837.85,-86 970.15,-86 970.15,-122"/>
<text text-anchor="middle" x="904" y="-99.8" font-family="Times,serif" font-size="14.00">HkHomeComponent</text>
</g>
<!-- HkHomeComponent&#45;&gt;OrderModule -->
<g id="edge9" class="edge">
<title>HkHomeComponent&#45;&gt;OrderModule</title>
<path fill="none" stroke="black" d="M904,-122.03C904,-138.4 904,-160 904,-160 904,-160 1214.89,-160 1214.89,-160"/>
<polygon fill="black" stroke="black" points="1214.89,-163.5 1224.89,-160 1214.89,-156.5 1214.89,-163.5"/>
</g>
<!-- HkNavHeaderComponent -->
<g id="node10" class="node">
<title>HkNavHeaderComponent</title>
<polygon fill="#ffffb3" stroke="black" points="820.17,-122 657.83,-122 657.83,-86 820.17,-86 820.17,-122"/>
<text text-anchor="middle" x="739" y="-99.8" font-family="Times,serif" font-size="14.00">HkNavHeaderComponent</text>
</g>
<!-- HkNavHeaderComponent&#45;&gt;OrderModule -->
<g id="edge10" class="edge">
<title>HkNavHeaderComponent&#45;&gt;OrderModule</title>
<path fill="none" stroke="black" d="M739,-122.3C739,-140.27 739,-165 739,-165 739,-165 1214.72,-165 1214.72,-165"/>
<polygon fill="black" stroke="black" points="1214.72,-168.5 1224.72,-165 1214.72,-161.5 1214.72,-168.5"/>
</g>
<!-- HkServicesComponent -->
<g id="node11" class="node">
<title>HkServicesComponent</title>
<polygon fill="#ffffb3" stroke="black" points="639.86,-122 494.14,-122 494.14,-86 639.86,-86 639.86,-122"/>
<text text-anchor="middle" x="567" y="-99.8" font-family="Times,serif" font-size="14.00">HkServicesComponent</text>
</g>
<!-- HkServicesComponent&#45;&gt;OrderModule -->
<g id="edge11" class="edge">
<title>HkServicesComponent&#45;&gt;OrderModule</title>
<path fill="none" stroke="black" d="M567,-122.11C567,-141.34 567,-169 567,-169 567,-169 1214.81,-169 1214.81,-169"/>
<polygon fill="black" stroke="black" points="1214.81,-172.5 1224.81,-169 1214.81,-165.5 1214.81,-172.5"/>
</g>
<!-- ItemCardsComponent -->
<g id="node12" class="node">
<title>ItemCardsComponent</title>
<polygon fill="#ffffb3" stroke="black" points="475.65,-122 336.35,-122 336.35,-86 475.65,-86 475.65,-122"/>
<text text-anchor="middle" x="406" y="-99.8" font-family="Times,serif" font-size="14.00">ItemCardsComponent</text>
</g>
<!-- ItemCardsComponent&#45;&gt;OrderModule -->
<g id="edge12" class="edge">
<title>ItemCardsComponent&#45;&gt;OrderModule</title>
<path fill="none" stroke="black" d="M406,-122.03C406,-142.77 406,-174 406,-174 406,-174 1214.8,-174 1214.8,-174"/>
<polygon fill="black" stroke="black" points="1214.8,-177.5 1224.8,-174 1214.8,-170.5 1214.8,-177.5"/>
</g>
<!-- OrderComponent -->
<g id="node13" class="node">
<title>OrderComponent</title>
<polygon fill="#ffffb3" stroke="black" points="317.97,-122 204.03,-122 204.03,-86 317.97,-86 317.97,-122"/>
<text text-anchor="middle" x="261" y="-99.8" font-family="Times,serif" font-size="14.00">OrderComponent</text>
</g>
<!-- OrderComponent&#45;&gt;OrderModule -->
<g id="edge13" class="edge">
<title>OrderComponent&#45;&gt;OrderModule</title>
<path fill="none" stroke="black" d="M261,-122.29C261,-144.21 261,-178 261,-178 261,-178 1214.65,-178 1214.65,-178"/>
<polygon fill="black" stroke="black" points="1214.65,-181.5 1224.65,-178 1214.65,-174.5 1214.65,-181.5"/>
</g>
<!-- ReviewOrdersComponent -->
<g id="node14" class="node">
<title>ReviewOrdersComponent</title>
<polygon fill="#ffffb3" stroke="black" points="186.18,-122 23.82,-122 23.82,-86 186.18,-86 186.18,-122"/>
<text text-anchor="middle" x="105" y="-99.8" font-family="Times,serif" font-size="14.00">ReviewOrdersComponent</text>
</g>
<!-- ReviewOrdersComponent&#45;&gt;OrderModule -->
<g id="edge14" class="edge">
<title>ReviewOrdersComponent&#45;&gt;OrderModule</title>
<path fill="none" stroke="black" d="M105,-122.32C105,-145.66 105,-183 105,-183 105,-183 1214.57,-183 1214.57,-183"/>
<polygon fill="black" stroke="black" points="1214.57,-186.5 1224.57,-183 1214.57,-179.5 1214.57,-186.5"/>
</g>
<!-- OrderRoutingModule -->
<g id="node16" class="node">
<title>OrderRoutingModule</title>
<polygon fill="#8dd3c7" stroke="black" points="2398.81,-122 2395.81,-126 2374.81,-126 2371.81,-122 2261.19,-122 2261.19,-86 2398.81,-86 2398.81,-122"/>
<text text-anchor="middle" x="2330" y="-99.8" font-family="Times,serif" font-size="14.00">OrderRoutingModule</text>
</g>
<!-- OrderRoutingModule&#45;&gt;OrderModule -->
<g id="edge15" class="edge">
<title>OrderRoutingModule&#45;&gt;OrderModule</title>
<path fill="none" stroke="black" d="M2330,-122.32C2330,-145.66 2330,-183 2330,-183 2330,-183 1327.18,-183 1327.18,-183"/>
<polygon fill="black" stroke="black" points="1327.18,-179.5 1317.18,-183 1327.18,-186.5 1327.18,-179.5"/>
</g>
<!-- SharedModule -->
<g id="node17" class="node">
<title>SharedModule</title>
<polygon fill="#8dd3c7" stroke="black" points="2243.42,-122 2240.42,-126 2219.42,-126 2216.42,-122 2144.58,-122 2144.58,-86 2243.42,-86 2243.42,-122"/>
<text text-anchor="middle" x="2194" y="-99.8" font-family="Times,serif" font-size="14.00">SharedModule</text>
</g>
<!-- SharedModule&#45;&gt;OrderModule -->
<g id="edge16" class="edge">
<title>SharedModule&#45;&gt;OrderModule</title>
<path fill="none" stroke="black" d="M2194,-122.29C2194,-144.21 2194,-178 2194,-178 2194,-178 1327.4,-178 1327.4,-178"/>
<polygon fill="black" stroke="black" points="1327.4,-174.5 1317.4,-178 1327.4,-181.5 1327.4,-174.5"/>
</g>
</g>
</svg>
