<?xml version="1.0" encoding="UTF-8" standalone="no"?>
<!DOCTYPE svg PUBLIC "-//W3C//DTD SVG 1.1//EN"
 "http://www.w3.org/Graphics/SVG/1.1/DTD/svg11.dtd">
<!-- Generated by graphviz version 2.46.0 (20210119.1425)
 -->
<!-- Title: dependencies Pages: 1 -->
<svg width="886pt" height="284pt"
 viewBox="0.00 0.00 886.00 284.00" xmlns="http://www.w3.org/2000/svg" xmlns:xlink="http://www.w3.org/1999/xlink">
<g id="graph0" class="graph" transform="scale(1 1) rotate(0) translate(4 280)">
<title>dependencies</title>
<polygon fill="white" stroke="transparent" points="-4,4 -4,-280 882,-280 882,4 -4,4"/>
<text text-anchor="start" x="418.01" y="-42.4" font-family="sans-serif" font-weight="bold" font-size="14.00">Legend</text>
<polygon fill="#ffffb3" stroke="transparent" points="205,-10 205,-30 225,-30 225,-10 205,-10"/>
<text text-anchor="start" x="228.63" y="-15.4" font-family="sans-serif" font-size="14.00"> &#160;Declarations</text>
<polygon fill="#8dd3c7" stroke="transparent" points="318,-10 318,-30 338,-30 338,-10 318,-10"/>
<text text-anchor="start" x="341.73" y="-15.4" font-family="sans-serif" font-size="14.00"> &#160;Module</text>
<polygon fill="#80b1d3" stroke="transparent" points="404,-10 404,-30 424,-30 424,-10 404,-10"/>
<text text-anchor="start" x="427.78" y="-15.4" font-family="sans-serif" font-size="14.00"> &#160;Bootstrap</text>
<polygon fill="#fdb462" stroke="transparent" points="501,-10 501,-30 521,-30 521,-10 501,-10"/>
<text text-anchor="start" x="524.67" y="-15.4" font-family="sans-serif" font-size="14.00"> &#160;Providers</text>
<polygon fill="#fb8072" stroke="transparent" points="597,-10 597,-30 617,-30 617,-10 597,-10"/>
<text text-anchor="start" x="620.73" y="-15.4" font-family="sans-serif" font-size="14.00"> &#160;Exports</text>
<g id="clust1" class="cluster">
<title>cluster_SharedModule</title>
<polygon fill="none" stroke="black" stroke-dasharray="1,5" points="8,-70 8,-268 870,-268 870,-70 8,-70"/>
</g>
<g id="clust9" class="cluster">
<title>cluster_SharedModule_exports</title>
<polygon fill="none" stroke="black" points="103,-208 103,-260 751,-260 751,-208 103,-208"/>
</g>
<g id="clust2" class="cluster">
<title>cluster_SharedModule_declarations</title>
<polygon fill="none" stroke="black" points="16,-78 16,-130 862,-130 862,-78 16,-78"/>
</g>
<!-- ConfirmationDialogComponent -->
<g id="node1" class="node">
<title>ConfirmationDialogComponent</title>
<polygon fill="#ffffb3" stroke="black" points="854.37,-122 659.63,-122 659.63,-86 854.37,-86 854.37,-122"/>
<text text-anchor="middle" x="757" y="-99.8" font-family="Times,serif" font-size="14.00">ConfirmationDialogComponent</text>
</g>
<!-- SharedModule -->
<g id="node6" class="node">
<title>SharedModule</title>
<polygon fill="#8dd3c7" stroke="black" points="473.42,-187 470.42,-191 449.42,-191 446.42,-187 374.58,-187 374.58,-151 473.42,-151 473.42,-187"/>
<text text-anchor="middle" x="424" y="-164.8" font-family="Times,serif" font-size="14.00">SharedModule</text>
</g>
<!-- ConfirmationDialogComponent&#45;&gt;SharedModule -->
<g id="edge1" class="edge">
<title>ConfirmationDialogComponent&#45;&gt;SharedModule</title>
<path fill="none" stroke="black" d="M701.13,-122.11C701.13,-141.34 701.13,-169 701.13,-169 701.13,-169 483.23,-169 483.23,-169"/>
<polygon fill="black" stroke="black" points="483.23,-165.5 473.23,-169 483.23,-172.5 483.23,-165.5"/>
</g>
<!-- FooterComponent -->
<g id="node2" class="node">
<title>FooterComponent</title>
<polygon fill="#ffffb3" stroke="black" points="641.88,-122 524.12,-122 524.12,-86 641.88,-86 641.88,-122"/>
<text text-anchor="middle" x="583" y="-99.8" font-family="Times,serif" font-size="14.00">FooterComponent</text>
</g>
<!-- FooterComponent&#45;&gt;SharedModule -->
<g id="edge2" class="edge">
<title>FooterComponent&#45;&gt;SharedModule</title>
<path fill="none" stroke="black" d="M563.85,-122.03C563.85,-138.4 563.85,-160 563.85,-160 563.85,-160 483.3,-160 483.3,-160"/>
<polygon fill="black" stroke="black" points="483.3,-156.5 473.3,-160 483.3,-163.5 483.3,-156.5"/>
</g>
<!-- OptionsDialogComponent -->
<g id="node3" class="node">
<title>OptionsDialogComponent</title>
<polygon fill="#ffffb3" stroke="black" points="505.77,-122 342.23,-122 342.23,-86 505.77,-86 505.77,-122"/>
<text text-anchor="middle" x="424" y="-99.8" font-family="Times,serif" font-size="14.00">OptionsDialogComponent</text>
</g>
<!-- OptionsDialogComponent&#45;&gt;SharedModule -->
<g id="edge3" class="edge">
<title>OptionsDialogComponent&#45;&gt;SharedModule</title>
<path fill="none" stroke="black" d="M424,-122.11C424,-122.11 424,-140.99 424,-140.99"/>
<polygon fill="black" stroke="black" points="420.5,-140.99 424,-150.99 427.5,-140.99 420.5,-140.99"/>
</g>
<!-- PublicHeaderComponent -->
<g id="node4" class="node">
<title>PublicHeaderComponent</title>
<polygon fill="#ffffb3" stroke="black" points="323.52,-122 166.48,-122 166.48,-86 323.52,-86 323.52,-122"/>
<text text-anchor="middle" x="245" y="-99.8" font-family="Times,serif" font-size="14.00">PublicHeaderComponent</text>
</g>
<!-- PublicHeaderComponent&#45;&gt;SharedModule -->
<g id="edge4" class="edge">
<title>PublicHeaderComponent&#45;&gt;SharedModule</title>
<path fill="none" stroke="black" d="M290.62,-122.03C290.62,-138.4 290.62,-160 290.62,-160 290.62,-160 364.72,-160 364.72,-160"/>
<polygon fill="black" stroke="black" points="364.72,-163.5 374.72,-160 364.71,-156.5 364.72,-163.5"/>
</g>
<!-- SpinnerComponent -->
<g id="node5" class="node">
<title>SpinnerComponent</title>
<polygon fill="#ffffb3" stroke="black" points="148.38,-122 23.62,-122 23.62,-86 148.38,-86 148.38,-122"/>
<text text-anchor="middle" x="86" y="-99.8" font-family="Times,serif" font-size="14.00">SpinnerComponent</text>
</g>
<!-- SpinnerComponent&#45;&gt;SharedModule -->
<g id="edge5" class="edge">
<title>SpinnerComponent&#45;&gt;SharedModule</title>
<path fill="none" stroke="black" d="M129.62,-122.11C129.62,-141.34 129.62,-169 129.62,-169 129.62,-169 364.73,-169 364.73,-169"/>
<polygon fill="black" stroke="black" points="364.73,-172.5 374.73,-169 364.73,-165.5 364.73,-172.5"/>
</g>
<!-- FooterComponent  -->
<g id="node7" class="node">
<title>FooterComponent </title>
<polygon fill="#fb8072" stroke="black" points="742.88,-252 621.12,-252 621.12,-216 742.88,-216 742.88,-252"/>
<text text-anchor="middle" x="682" y="-229.8" font-family="Times,serif" font-size="14.00">FooterComponent </text>
</g>
<!-- SharedModule&#45;&gt;FooterComponent  -->
<g id="edge6" class="edge">
<title>SharedModule&#45;&gt;FooterComponent </title>
<path fill="none" stroke="black" stroke-dasharray="5,2" d="M473.47,-178C534.88,-178 631.62,-178 631.62,-178 631.62,-178 631.62,-205.97 631.62,-205.97"/>
<polygon fill="black" stroke="black" points="628.13,-205.97 631.62,-215.97 635.13,-205.97 628.13,-205.97"/>
</g>
<!-- OptionsDialogComponent  -->
<g id="node8" class="node">
<title>OptionsDialogComponent </title>
<polygon fill="#fb8072" stroke="black" points="603.77,-252 436.23,-252 436.23,-216 603.77,-216 603.77,-252"/>
<text text-anchor="middle" x="520" y="-229.8" font-family="Times,serif" font-size="14.00">OptionsDialogComponent </text>
</g>
<!-- SharedModule&#45;&gt;OptionsDialogComponent  -->
<g id="edge7" class="edge">
<title>SharedModule&#45;&gt;OptionsDialogComponent </title>
<path fill="none" stroke="black" stroke-dasharray="5,2" d="M454.79,-187.11C454.79,-187.11 454.79,-205.99 454.79,-205.99"/>
<polygon fill="black" stroke="black" points="451.29,-205.99 454.79,-215.99 458.29,-205.99 451.29,-205.99"/>
</g>
<!-- PublicHeaderComponent  -->
<g id="node9" class="node">
<title>PublicHeaderComponent </title>
<polygon fill="#fb8072" stroke="black" points="418.52,-252 257.48,-252 257.48,-216 418.52,-216 418.52,-252"/>
<text text-anchor="middle" x="338" y="-229.8" font-family="Times,serif" font-size="14.00">PublicHeaderComponent </text>
</g>
<!-- SharedModule&#45;&gt;PublicHeaderComponent  -->
<g id="edge8" class="edge">
<title>SharedModule&#45;&gt;PublicHeaderComponent </title>
<path fill="none" stroke="black" stroke-dasharray="5,2" d="M396.65,-187.11C396.65,-187.11 396.65,-205.99 396.65,-205.99"/>
<polygon fill="black" stroke="black" points="393.15,-205.99 396.65,-215.99 400.15,-205.99 393.15,-205.99"/>
</g>
<!-- SpinnerComponent  -->
<g id="node10" class="node">
<title>SpinnerComponent </title>
<polygon fill="#fb8072" stroke="black" points="239.38,-252 110.62,-252 110.62,-216 239.38,-216 239.38,-252"/>
<text text-anchor="middle" x="175" y="-229.8" font-family="Times,serif" font-size="14.00">SpinnerComponent </text>
</g>
<!-- SharedModule&#45;&gt;SpinnerComponent  -->
<g id="edge9" class="edge">
<title>SharedModule&#45;&gt;SpinnerComponent </title>
<path fill="none" stroke="black" stroke-dasharray="5,2" d="M374.61,-178C309.4,-178 202.71,-178 202.71,-178 202.71,-178 202.71,-205.97 202.71,-205.97"/>
<polygon fill="black" stroke="black" points="199.21,-205.97 202.71,-215.97 206.21,-205.97 199.21,-205.97"/>
</g>
</g>
</svg>
