<?xml version="1.0" encoding="UTF-8" standalone="no"?>
<!DOCTYPE svg PUBLIC "-//W3C//DTD SVG 1.1//EN"
 "http://www.w3.org/Graphics/SVG/1.1/DTD/svg11.dtd">
<!-- Generated by graphviz version 2.46.0 (20210119.1425)
 -->
<!-- Title: dependencies Pages: 1 -->
<svg width="744pt" height="284pt"
 viewBox="0.00 0.00 744.00 284.00" xmlns="http://www.w3.org/2000/svg" xmlns:xlink="http://www.w3.org/1999/xlink">
<g id="graph0" class="graph" transform="scale(1 1) rotate(0) translate(4 280)">
<title>dependencies</title>
<polygon fill="white" stroke="transparent" points="-4,4 -4,-280 740,-280 740,4 -4,4"/>
<text text-anchor="start" x="347.01" y="-42.4" font-family="sans-serif" font-weight="bold" font-size="14.00">Legend</text>
<polygon fill="#ffffb3" stroke="transparent" points="134,-10 134,-30 154,-30 154,-10 134,-10"/>
<text text-anchor="start" x="157.63" y="-15.4" font-family="sans-serif" font-size="14.00"> &#160;Declarations</text>
<polygon fill="#8dd3c7" stroke="transparent" points="247,-10 247,-30 267,-30 267,-10 247,-10"/>
<text text-anchor="start" x="270.73" y="-15.4" font-family="sans-serif" font-size="14.00"> &#160;Module</text>
<polygon fill="#80b1d3" stroke="transparent" points="333,-10 333,-30 353,-30 353,-10 333,-10"/>
<text text-anchor="start" x="356.78" y="-15.4" font-family="sans-serif" font-size="14.00"> &#160;Bootstrap</text>
<polygon fill="#fdb462" stroke="transparent" points="430,-10 430,-30 450,-30 450,-10 430,-10"/>
<text text-anchor="start" x="453.67" y="-15.4" font-family="sans-serif" font-size="14.00"> &#160;Providers</text>
<polygon fill="#fb8072" stroke="transparent" points="526,-10 526,-30 546,-30 546,-10 526,-10"/>
<text text-anchor="start" x="549.73" y="-15.4" font-family="sans-serif" font-size="14.00"> &#160;Exports</text>
<g id="clust1" class="cluster">
<title>cluster_SharedModule</title>
<polygon fill="none" stroke="black" stroke-dasharray="1,5" points="8,-70 8,-268 728,-268 728,-70 8,-70"/>
</g>
<g id="clust8" class="cluster">
<title>cluster_SharedModule_exports</title>
<polygon fill="none" stroke="black" points="93,-208 93,-260 595,-260 595,-208 93,-208"/>
</g>
<g id="clust2" class="cluster">
<title>cluster_SharedModule_declarations</title>
<polygon fill="none" stroke="black" points="16,-78 16,-130 720,-130 720,-78 16,-78"/>
</g>
<!-- ConfirmationDialogComponent -->
<g id="node1" class="node">
<title>ConfirmationDialogComponent</title>
<polygon fill="#ffffb3" stroke="black" points="712.37,-122 517.63,-122 517.63,-86 712.37,-86 712.37,-122"/>
<text text-anchor="middle" x="615" y="-99.8" font-family="Times,serif" font-size="14.00">ConfirmationDialogComponent</text>
</g>
<!-- SharedModule -->
<g id="node5" class="node">
<title>SharedModule</title>
<polygon fill="#8dd3c7" stroke="black" points="413.42,-187 410.42,-191 389.42,-191 386.42,-187 314.58,-187 314.58,-151 413.42,-151 413.42,-187"/>
<text text-anchor="middle" x="364" y="-164.8" font-family="Times,serif" font-size="14.00">SharedModule</text>
</g>
<!-- ConfirmationDialogComponent&#45;&gt;SharedModule -->
<g id="edge1" class="edge">
<title>ConfirmationDialogComponent&#45;&gt;SharedModule</title>
<path fill="none" stroke="black" d="M552.13,-122.02C552.13,-139.37 552.13,-163 552.13,-163 552.13,-163 423.43,-163 423.43,-163"/>
<polygon fill="black" stroke="black" points="423.43,-159.5 413.43,-163 423.43,-166.5 423.43,-159.5"/>
</g>
<!-- FooterComponent -->
<g id="node2" class="node">
<title>FooterComponent</title>
<polygon fill="#ffffb3" stroke="black" points="499.88,-122 382.12,-122 382.12,-86 499.88,-86 499.88,-122"/>
<text text-anchor="middle" x="441" y="-99.8" font-family="Times,serif" font-size="14.00">FooterComponent</text>
</g>
<!-- FooterComponent&#45;&gt;SharedModule -->
<g id="edge2" class="edge">
<title>FooterComponent&#45;&gt;SharedModule</title>
<path fill="none" stroke="black" d="M397.64,-122.11C397.64,-122.11 397.64,-140.99 397.64,-140.99"/>
<polygon fill="black" stroke="black" points="394.14,-140.99 397.64,-150.99 401.14,-140.99 394.14,-140.99"/>
</g>
<!-- OptionsDialogComponent -->
<g id="node3" class="node">
<title>OptionsDialogComponent</title>
<polygon fill="#ffffb3" stroke="black" points="363.77,-122 200.23,-122 200.23,-86 363.77,-86 363.77,-122"/>
<text text-anchor="middle" x="282" y="-99.8" font-family="Times,serif" font-size="14.00">OptionsDialogComponent</text>
</g>
<!-- OptionsDialogComponent&#45;&gt;SharedModule -->
<g id="edge3" class="edge">
<title>OptionsDialogComponent&#45;&gt;SharedModule</title>
<path fill="none" stroke="black" d="M339.34,-122.11C339.34,-122.11 339.34,-140.99 339.34,-140.99"/>
<polygon fill="black" stroke="black" points="335.84,-140.99 339.34,-150.99 342.84,-140.99 335.84,-140.99"/>
</g>
<!-- PublicHeaderComponent -->
<g id="node4" class="node">
<title>PublicHeaderComponent</title>
<polygon fill="#ffffb3" stroke="black" points="181.52,-122 24.48,-122 24.48,-86 181.52,-86 181.52,-122"/>
<text text-anchor="middle" x="103" y="-99.8" font-family="Times,serif" font-size="14.00">PublicHeaderComponent</text>
</g>
<!-- PublicHeaderComponent&#45;&gt;SharedModule -->
<g id="edge4" class="edge">
<title>PublicHeaderComponent&#45;&gt;SharedModule</title>
<path fill="none" stroke="black" d="M141.62,-122.02C141.62,-139.37 141.62,-163 141.62,-163 141.62,-163 304.65,-163 304.65,-163"/>
<polygon fill="black" stroke="black" points="304.65,-166.5 314.65,-163 304.65,-159.5 304.65,-166.5"/>
</g>
<!-- FooterComponent  -->
<g id="node6" class="node">
<title>FooterComponent </title>
<polygon fill="#fb8072" stroke="black" points="586.88,-252 465.12,-252 465.12,-216 586.88,-216 586.88,-252"/>
<text text-anchor="middle" x="526" y="-229.8" font-family="Times,serif" font-size="14.00">FooterComponent </text>
</g>
<!-- SharedModule&#45;&gt;FooterComponent  -->
<g id="edge5" class="edge">
<title>SharedModule&#45;&gt;FooterComponent </title>
<path fill="none" stroke="black" stroke-dasharray="5,2" d="M413.28,-175C445.87,-175 482.62,-175 482.62,-175 482.62,-175 482.62,-205.98 482.62,-205.98"/>
<polygon fill="black" stroke="black" points="479.13,-205.98 482.62,-215.98 486.13,-205.98 479.13,-205.98"/>
</g>
<!-- OptionsDialogComponent  -->
<g id="node7" class="node">
<title>OptionsDialogComponent </title>
<polygon fill="#fb8072" stroke="black" points="447.77,-252 280.23,-252 280.23,-216 447.77,-216 447.77,-252"/>
<text text-anchor="middle" x="364" y="-229.8" font-family="Times,serif" font-size="14.00">OptionsDialogComponent </text>
</g>
<!-- SharedModule&#45;&gt;OptionsDialogComponent  -->
<g id="edge6" class="edge">
<title>SharedModule&#45;&gt;OptionsDialogComponent </title>
<path fill="none" stroke="black" stroke-dasharray="5,2" d="M364,-187.11C364,-187.11 364,-205.99 364,-205.99"/>
<polygon fill="black" stroke="black" points="360.5,-205.99 364,-215.99 367.5,-205.99 360.5,-205.99"/>
</g>
<!-- PublicHeaderComponent  -->
<g id="node8" class="node">
<title>PublicHeaderComponent </title>
<polygon fill="#fb8072" stroke="black" points="262.52,-252 101.48,-252 101.48,-216 262.52,-216 262.52,-252"/>
<text text-anchor="middle" x="182" y="-229.8" font-family="Times,serif" font-size="14.00">PublicHeaderComponent </text>
</g>
<!-- SharedModule&#45;&gt;PublicHeaderComponent  -->
<g id="edge7" class="edge">
<title>SharedModule&#45;&gt;PublicHeaderComponent </title>
<path fill="none" stroke="black" stroke-dasharray="5,2" d="M314.59,-175C276.87,-175 231.31,-175 231.31,-175 231.31,-175 231.31,-205.98 231.31,-205.98"/>
<polygon fill="black" stroke="black" points="227.81,-205.98 231.31,-215.98 234.81,-205.98 227.81,-205.98"/>
</g>
</g>
</svg>
