<?xml version="1.0" encoding="UTF-8" standalone="no"?>
<!DOCTYPE svg PUBLIC "-//W3C//DTD SVG 1.1//EN"
 "http://www.w3.org/Graphics/SVG/1.1/DTD/svg11.dtd">
<!-- Generated by graphviz version 2.46.0 (20210119.1425)
 -->
<!-- Title: dependencies Pages: 1 -->
<svg width="1265pt" height="284pt"
 viewBox="0.00 0.00 1265.00 284.00" xmlns="http://www.w3.org/2000/svg" xmlns:xlink="http://www.w3.org/1999/xlink">
<g id="graph0" class="graph" transform="scale(1 1) rotate(0) translate(4 280)">
<title>dependencies</title>
<polygon fill="white" stroke="transparent" points="-4,4 -4,-280 1261,-280 1261,4 -4,4"/>
<text text-anchor="start" x="607.51" y="-42.4" font-family="sans-serif" font-weight="bold" font-size="14.00">Legend</text>
<polygon fill="#ffffb3" stroke="transparent" points="394.5,-10 394.5,-30 414.5,-30 414.5,-10 394.5,-10"/>
<text text-anchor="start" x="418.13" y="-15.4" font-family="sans-serif" font-size="14.00"> &#160;Declarations</text>
<polygon fill="#8dd3c7" stroke="transparent" points="507.5,-10 507.5,-30 527.5,-30 527.5,-10 507.5,-10"/>
<text text-anchor="start" x="531.23" y="-15.4" font-family="sans-serif" font-size="14.00"> &#160;Module</text>
<polygon fill="#80b1d3" stroke="transparent" points="593.5,-10 593.5,-30 613.5,-30 613.5,-10 593.5,-10"/>
<text text-anchor="start" x="617.28" y="-15.4" font-family="sans-serif" font-size="14.00"> &#160;Bootstrap</text>
<polygon fill="#fdb462" stroke="transparent" points="690.5,-10 690.5,-30 710.5,-30 710.5,-10 690.5,-10"/>
<text text-anchor="start" x="714.17" y="-15.4" font-family="sans-serif" font-size="14.00"> &#160;Providers</text>
<polygon fill="#fb8072" stroke="transparent" points="786.5,-10 786.5,-30 806.5,-30 806.5,-10 786.5,-10"/>
<text text-anchor="start" x="810.23" y="-15.4" font-family="sans-serif" font-size="14.00"> &#160;Exports</text>
<g id="clust1" class="cluster">
<title>cluster_SharedModule</title>
<polygon fill="none" stroke="black" stroke-dasharray="1,5" points="8,-70 8,-268 1249,-268 1249,-70 8,-70"/>
</g>
<g id="clust11" class="cluster">
<title>cluster_SharedModule_exports</title>
<polygon fill="none" stroke="black" points="91,-208 91,-260 1125,-260 1125,-208 91,-208"/>
</g>
<g id="clust2" class="cluster">
<title>cluster_SharedModule_declarations</title>
<polygon fill="none" stroke="black" points="16,-78 16,-130 1241,-130 1241,-78 16,-78"/>
</g>
<!-- ConfirmationDialogComponent -->
<g id="node1" class="node">
<title>ConfirmationDialogComponent</title>
<polygon fill="#ffffb3" stroke="black" points="1233.37,-122 1038.63,-122 1038.63,-86 1233.37,-86 1233.37,-122"/>
<text text-anchor="middle" x="1136" y="-99.8" font-family="Times,serif" font-size="14.00">ConfirmationDialogComponent</text>
</g>
<!-- SharedModule -->
<g id="node8" class="node">
<title>SharedModule</title>
<polygon fill="#8dd3c7" stroke="black" points="673.42,-187 670.42,-191 649.42,-191 646.42,-187 574.58,-187 574.58,-151 673.42,-151 673.42,-187"/>
<text text-anchor="middle" x="624" y="-164.8" font-family="Times,serif" font-size="14.00">SharedModule</text>
</g>
<!-- ConfirmationDialogComponent&#45;&gt;SharedModule -->
<g id="edge1" class="edge">
<title>ConfirmationDialogComponent&#45;&gt;SharedModule</title>
<path fill="none" stroke="black" d="M1077.63,-122.11C1077.63,-141.34 1077.63,-169 1077.63,-169 1077.63,-169 683.41,-169 683.41,-169"/>
<polygon fill="black" stroke="black" points="683.41,-165.5 673.41,-169 683.41,-172.5 683.41,-165.5"/>
</g>
<!-- FooterComponent -->
<g id="node2" class="node">
<title>FooterComponent</title>
<polygon fill="#ffffb3" stroke="black" points="1020.88,-122 903.12,-122 903.12,-86 1020.88,-86 1020.88,-122"/>
<text text-anchor="middle" x="962" y="-99.8" font-family="Times,serif" font-size="14.00">FooterComponent</text>
</g>
<!-- FooterComponent&#45;&gt;SharedModule -->
<g id="edge2" class="edge">
<title>FooterComponent&#45;&gt;SharedModule</title>
<path fill="none" stroke="black" d="M940.35,-122.02C940.35,-139.37 940.35,-163 940.35,-163 940.35,-163 683.43,-163 683.43,-163"/>
<polygon fill="black" stroke="black" points="683.43,-159.5 673.43,-163 683.43,-166.5 683.43,-159.5"/>
</g>
<!-- OptionsDialogComponent -->
<g id="node3" class="node">
<title>OptionsDialogComponent</title>
<polygon fill="#ffffb3" stroke="black" points="884.77,-122 721.23,-122 721.23,-86 884.77,-86 884.77,-122"/>
<text text-anchor="middle" x="803" y="-99.8" font-family="Times,serif" font-size="14.00">OptionsDialogComponent</text>
</g>
<!-- OptionsDialogComponent&#45;&gt;SharedModule -->
<g id="edge3" class="edge">
<title>OptionsDialogComponent&#45;&gt;SharedModule</title>
<path fill="none" stroke="black" d="M756.81,-122.24C756.81,-137.57 756.81,-157 756.81,-157 756.81,-157 683.45,-157 683.45,-157"/>
<polygon fill="black" stroke="black" points="683.45,-153.5 673.45,-157 683.45,-160.5 683.45,-153.5"/>
</g>
<!-- PublicHeaderComponent -->
<g id="node4" class="node">
<title>PublicHeaderComponent</title>
<polygon fill="#ffffb3" stroke="black" points="702.52,-122 545.48,-122 545.48,-86 702.52,-86 702.52,-122"/>
<text text-anchor="middle" x="624" y="-99.8" font-family="Times,serif" font-size="14.00">PublicHeaderComponent</text>
</g>
<!-- PublicHeaderComponent&#45;&gt;SharedModule -->
<g id="edge4" class="edge">
<title>PublicHeaderComponent&#45;&gt;SharedModule</title>
<path fill="none" stroke="black" d="M624,-122.11C624,-122.11 624,-140.99 624,-140.99"/>
<polygon fill="black" stroke="black" points="620.5,-140.99 624,-150.99 627.5,-140.99 620.5,-140.99"/>
</g>
<!-- SpinnerComponent -->
<g id="node5" class="node">
<title>SpinnerComponent</title>
<polygon fill="#ffffb3" stroke="black" points="527.38,-122 402.62,-122 402.62,-86 527.38,-86 527.38,-122"/>
<text text-anchor="middle" x="465" y="-99.8" font-family="Times,serif" font-size="14.00">SpinnerComponent</text>
</g>
<!-- SpinnerComponent&#45;&gt;SharedModule -->
<g id="edge5" class="edge">
<title>SpinnerComponent&#45;&gt;SharedModule</title>
<path fill="none" stroke="black" d="M506.12,-122.24C506.12,-137.57 506.12,-157 506.12,-157 506.12,-157 564.69,-157 564.69,-157"/>
<polygon fill="black" stroke="black" points="564.69,-160.5 574.69,-157 564.69,-153.5 564.69,-160.5"/>
</g>
<!-- UploadDialogComponent -->
<g id="node6" class="node">
<title>UploadDialogComponent</title>
<polygon fill="#ffffb3" stroke="black" points="384.15,-122 223.85,-122 223.85,-86 384.15,-86 384.15,-122"/>
<text text-anchor="middle" x="304" y="-99.8" font-family="Times,serif" font-size="14.00">UploadDialogComponent</text>
</g>
<!-- UploadDialogComponent&#45;&gt;SharedModule -->
<g id="edge6" class="edge">
<title>UploadDialogComponent&#45;&gt;SharedModule</title>
<path fill="none" stroke="black" d="M343.62,-122.02C343.62,-139.37 343.62,-163 343.62,-163 343.62,-163 564.52,-163 564.52,-163"/>
<polygon fill="black" stroke="black" points="564.52,-166.5 574.52,-163 564.52,-159.5 564.52,-166.5"/>
</g>
<!-- ValidateNationalitiesListPipe -->
<g id="node7" class="node">
<title>ValidateNationalitiesListPipe</title>
<polygon fill="#ffffb3" stroke="black" points="205.63,-122 24.37,-122 24.37,-86 205.63,-86 205.63,-122"/>
<text text-anchor="middle" x="115" y="-99.8" font-family="Times,serif" font-size="14.00">ValidateNationalitiesListPipe</text>
</g>
<!-- ValidateNationalitiesListPipe&#45;&gt;SharedModule -->
<g id="edge7" class="edge">
<title>ValidateNationalitiesListPipe&#45;&gt;SharedModule</title>
<path fill="none" stroke="black" d="M152.62,-122.11C152.62,-141.34 152.62,-169 152.62,-169 152.62,-169 564.45,-169 564.45,-169"/>
<polygon fill="black" stroke="black" points="564.45,-172.5 574.45,-169 564.45,-165.5 564.45,-172.5"/>
</g>
<!-- FooterComponent  -->
<g id="node9" class="node">
<title>FooterComponent </title>
<polygon fill="#fb8072" stroke="black" points="1116.88,-252 995.12,-252 995.12,-216 1116.88,-216 1116.88,-252"/>
<text text-anchor="middle" x="1056" y="-229.8" font-family="Times,serif" font-size="14.00">FooterComponent </text>
</g>
<!-- SharedModule&#45;&gt;FooterComponent  -->
<g id="edge8" class="edge">
<title>SharedModule&#45;&gt;FooterComponent </title>
<path fill="none" stroke="black" stroke-dasharray="5,2" d="M673.43,-175C777.18,-175 1008.12,-175 1008.12,-175 1008.12,-175 1008.12,-205.98 1008.12,-205.98"/>
<polygon fill="black" stroke="black" points="1004.63,-205.98 1008.12,-215.98 1011.63,-205.98 1004.63,-205.98"/>
</g>
<!-- OptionsDialogComponent  -->
<g id="node10" class="node">
<title>OptionsDialogComponent </title>
<polygon fill="#fb8072" stroke="black" points="977.77,-252 810.23,-252 810.23,-216 977.77,-216 977.77,-252"/>
<text text-anchor="middle" x="894" y="-229.8" font-family="Times,serif" font-size="14.00">OptionsDialogComponent </text>
</g>
<!-- SharedModule&#45;&gt;OptionsDialogComponent  -->
<g id="edge9" class="edge">
<title>SharedModule&#45;&gt;OptionsDialogComponent </title>
<path fill="none" stroke="black" stroke-dasharray="5,2" d="M673.35,-181C739.21,-181 847.62,-181 847.62,-181 847.62,-181 847.62,-205.76 847.62,-205.76"/>
<polygon fill="black" stroke="black" points="844.13,-205.76 847.62,-215.76 851.13,-205.76 844.13,-205.76"/>
</g>
<!-- PublicHeaderComponent  -->
<g id="node11" class="node">
<title>PublicHeaderComponent </title>
<polygon fill="#fb8072" stroke="black" points="792.52,-252 631.48,-252 631.48,-216 792.52,-216 792.52,-252"/>
<text text-anchor="middle" x="712" y="-229.8" font-family="Times,serif" font-size="14.00">PublicHeaderComponent </text>
</g>
<!-- SharedModule&#45;&gt;PublicHeaderComponent  -->
<g id="edge10" class="edge">
<title>SharedModule&#45;&gt;PublicHeaderComponent </title>
<path fill="none" stroke="black" stroke-dasharray="5,2" d="M652.35,-187.11C652.35,-187.11 652.35,-205.99 652.35,-205.99"/>
<polygon fill="black" stroke="black" points="648.85,-205.99 652.35,-215.99 655.85,-205.99 648.85,-205.99"/>
</g>
<!-- SpinnerComponent  -->
<g id="node12" class="node">
<title>SpinnerComponent </title>
<polygon fill="#fb8072" stroke="black" points="613.38,-252 484.62,-252 484.62,-216 613.38,-216 613.38,-252"/>
<text text-anchor="middle" x="549" y="-229.8" font-family="Times,serif" font-size="14.00">SpinnerComponent </text>
</g>
<!-- SharedModule&#45;&gt;SpinnerComponent  -->
<g id="edge11" class="edge">
<title>SharedModule&#45;&gt;SpinnerComponent </title>
<path fill="none" stroke="black" stroke-dasharray="5,2" d="M593.99,-187.11C593.99,-187.11 593.99,-205.99 593.99,-205.99"/>
<polygon fill="black" stroke="black" points="590.49,-205.99 593.99,-215.99 597.49,-205.99 590.49,-205.99"/>
</g>
<!-- UploadDialogComponent  -->
<g id="node13" class="node">
<title>UploadDialogComponent </title>
<polygon fill="#fb8072" stroke="black" points="467.15,-252 302.85,-252 302.85,-216 467.15,-216 467.15,-252"/>
<text text-anchor="middle" x="385" y="-229.8" font-family="Times,serif" font-size="14.00">UploadDialogComponent </text>
</g>
<!-- SharedModule&#45;&gt;UploadDialogComponent  -->
<g id="edge12" class="edge">
<title>SharedModule&#45;&gt;UploadDialogComponent </title>
<path fill="none" stroke="black" stroke-dasharray="5,2" d="M574.79,-181C518.73,-181 434.82,-181 434.82,-181 434.82,-181 434.82,-205.76 434.82,-205.76"/>
<polygon fill="black" stroke="black" points="431.32,-205.76 434.82,-215.76 438.32,-205.76 431.32,-205.76"/>
</g>
<!-- ValidateNationalitiesListPipe  -->
<g id="node14" class="node">
<title>ValidateNationalitiesListPipe </title>
<polygon fill="#fb8072" stroke="black" points="284.63,-252 99.37,-252 99.37,-216 284.63,-216 284.63,-252"/>
<text text-anchor="middle" x="192" y="-229.8" font-family="Times,serif" font-size="14.00">ValidateNationalitiesListPipe </text>
</g>
<!-- SharedModule&#45;&gt;ValidateNationalitiesListPipe  -->
<g id="edge13" class="edge">
<title>SharedModule&#45;&gt;ValidateNationalitiesListPipe </title>
<path fill="none" stroke="black" stroke-dasharray="5,2" d="M574.5,-175C473.71,-175 254.12,-175 254.12,-175 254.12,-175 254.12,-205.98 254.12,-205.98"/>
<polygon fill="black" stroke="black" points="250.62,-205.98 254.12,-215.98 257.62,-205.98 250.62,-205.98"/>
</g>
</g>
</svg>
