<?xml version="1.0" encoding="utf-8"?>
<svg version="1.1" xmlns:xlink="http://www.w3.org/1999/xlink" width="36px" height="34px" xmlns="http://www.w3.org/2000/svg">
  <g transform="matrix(1 0 0 1 -310 -431 )">
    <path d="M 20.4140625 23.2200520833333  C 20.5546875 23.3528645833333  20.625 23.5225694444444  20.625 23.7291666666667  L 20.625 27.2708333333333  C 20.625 27.4774305555556  20.5546875 27.6471354166667  20.4140625 27.7799479166667  C 20.2734375 27.9127604166667  20.09375 27.9791666666667  19.875 27.9791666666667  L 16.125 27.9791666666667  C 15.90625 27.9791666666667  15.7265625 27.9127604166667  15.5859375 27.7799479166667  C 15.4453125 27.6471354166667  15.375 27.4774305555556  15.375 27.2708333333333  L 15.375 23.7291666666667  C 15.375 23.5225694444444  15.4453125 23.3528645833333  15.5859375 23.2200520833333  C 15.7265625 23.0872395833333  15.90625 23.0208333333333  16.125 23.0208333333333  L 19.875 23.0208333333333  C 20.09375 23.0208333333333  20.2734375 23.0872395833333  20.4140625 23.2200520833333  Z M 24.05859375 8.001953125  C 25.76953125 9.32269965277778  26.625 10.9053819444444  26.625 12.75  C 26.625 13.4878472222222  26.5078125 14.1519097222222  26.2734375 14.7421875  C 26.0390625 15.3324652777778  25.68359375 15.8415798611111  25.20703125 16.26953125  C 24.73046875 16.6974826388889  24.32421875 17.0221354166667  23.98828125 17.2434895833333  C 23.65234375 17.46484375  23.1875 17.73046875  22.59375 18.0403645833333  C 22.09375 18.3059895833333  21.73046875 18.5125868055556  21.50390625 18.66015625  C 21.27734375 18.8077256944444  21.07421875 18.9848090277778  20.89453125 19.19140625  C 20.71484375 19.3980034722222  20.625 19.6119791666667  20.625 19.8333333333333  L 20.625 20.5416666666667  C 20.625 20.7482638888889  20.5546875 20.91796875  20.4140625 21.05078125  C 20.2734375 21.18359375  20.09375 21.25  19.875 21.25  L 16.125 21.25  C 15.90625 21.25  15.7265625 21.18359375  15.5859375 21.05078125  C 15.4453125 20.91796875  15.375 20.7482638888889  15.375 20.5416666666667  L 15.375 19.0364583333333  C 15.375 18.5199652777778  15.45703125 18.0440538194444  15.62109375 17.6087239583333  C 15.78515625 17.1733940972222  15.97265625 16.8229166666667  16.18359375 16.5572916666667  C 16.39453125 16.2916666666667  16.69921875 16.0297309027778  17.09765625 15.771484375  C 17.49609375 15.5132378472222  17.81640625 15.3250868055556  18.05859375 15.20703125  C 18.30078125 15.0889756944444  18.6484375 14.9340277777778  19.1015625 14.7421875  C 19.9296875 14.3732638888889  20.515625 14.0559895833333  20.859375 13.7903645833333  C 21.203125 13.5247395833333  21.375 13.1631944444444  21.375 12.7057291666667  C 21.375 12.0859375  21.03515625 11.5583767361111  20.35546875 11.123046875  C 19.67578125 10.6877170138889  18.9296875 10.4700520833333  18.1171875 10.4700520833333  C 17.2421875 10.4700520833333  16.5 10.6692708333333  15.890625 11.0677083333333  C 15.4375 11.3628472222222  14.8125 11.9752604166667  14.015625 12.9049479166667  C 13.875 13.08203125  13.6796875 13.1705729166667  13.4296875 13.1705729166667  C 13.2578125 13.1705729166667  13.109375 13.1263020833333  12.984375 13.0377604166667  L 10.453125 11.22265625  C 10.296875 11.1193576388889  10.203125 10.9717881944444  10.171875 10.7799479166667  C 10.140625 10.5881076388889  10.1796875 10.4184027777778  10.2890625 10.2708333333333  C 12.1953125 7.4375  14.921875 6.02083333333333  18.46875 6.02083333333333  C 20.484375 6.02083333333333  22.34765625 6.68120659722222  24.05859375 8.001953125  Z M 23.82421875 3.96223958333333  C 21.97265625 3.20963541666667  20.03125 2.83333333333333  18 2.83333333333333  C 15.96875 2.83333333333333  14.02734375 3.20963541666667  12.17578125 3.96223958333333  C 10.32421875 4.71484375  8.73046875 5.72200520833333  7.39453125 6.98372395833333  C 6.05859375 8.24544270833333  4.9921875 9.75065104166667  4.1953125 11.4993489583333  C 3.3984375 13.248046875  3 15.0815972222222  3 17  C 3 18.9184027777778  3.3984375 20.751953125  4.1953125 22.5006510416667  C 4.9921875 24.2493489583333  6.05859375 25.7545572916667  7.39453125 27.0162760416667  C 8.73046875 28.2779947916667  10.32421875 29.28515625  12.17578125 30.0377604166667  C 14.02734375 30.7903645833333  15.96875 31.1666666666667  18 31.1666666666667  C 20.03125 31.1666666666667  21.97265625 30.7903645833333  23.82421875 30.0377604166667  C 25.67578125 29.28515625  27.26953125 28.2779947916667  28.60546875 27.0162760416667  C 29.94140625 25.7545572916667  31.0078125 24.2493489583333  31.8046875 22.5006510416667  C 32.6015625 20.751953125  33 18.9184027777778  33 17  C 33 15.0815972222222  32.6015625 13.248046875  31.8046875 11.4993489583333  C 31.0078125 9.75065104166667  29.94140625 8.24544270833333  28.60546875 6.98372395833333  C 27.26953125 5.72200520833333  25.67578125 4.71484375  23.82421875 3.96223958333333  Z M 33.5859375 8.466796875  C 35.1953125 11.0713975694444  36 13.9157986111111  36 17  C 36 20.0842013888889  35.1953125 22.9286024305556  33.5859375 25.533203125  C 31.9765625 28.1378038194444  29.79296875 30.2000868055556  27.03515625 31.7200520833333  C 24.27734375 33.2400173611111  21.265625 34  18 34  C 14.734375 34  11.72265625 33.2400173611111  8.96484375 31.7200520833333  C 6.20703125 30.2000868055556  4.0234375 28.1378038194444  2.4140625 25.533203125  C 0.8046875 22.9286024305556  0 20.0842013888889  0 17  C 0 13.9157986111111  0.8046875 11.0713975694444  2.4140625 8.466796875  C 4.0234375 5.86219618055556  6.20703125 3.79991319444444  8.96484375 2.27994791666667  C 11.72265625 0.759982638888886  14.734375 0  18 0  C 21.265625 0  24.27734375 0.759982638888886  27.03515625 2.27994791666667  C 29.79296875 3.79991319444444  31.9765625 5.86219618055556  33.5859375 8.466796875  Z " fill-rule="nonzero" fill="#000000" stroke="none" transform="matrix(1 0 0 1 310 431 )" />
  </g>
</svg>