<?xml version="1.0" encoding="UTF-8" standalone="no"?>
<!DOCTYPE svg PUBLIC "-//W3C//DTD SVG 1.1//EN"
 "http://www.w3.org/Graphics/SVG/1.1/DTD/svg11.dtd">
<!-- Generated by graphviz version 2.46.0 (20210119.1425)
 -->
<!-- Title: dependencies Pages: 1 -->
<svg width="504pt" height="284pt"
 viewBox="0.00 0.00 504.00 284.00" xmlns="http://www.w3.org/2000/svg" xmlns:xlink="http://www.w3.org/1999/xlink">
<g id="graph0" class="graph" transform="scale(1 1) rotate(0) translate(4 280)">
<title>dependencies</title>
<polygon fill="white" stroke="transparent" points="-4,4 -4,-280 500,-280 500,4 -4,4"/>
<text text-anchor="start" x="227.01" y="-42.4" font-family="sans-serif" font-weight="bold" font-size="14.00">Legend</text>
<polygon fill="#ffffb3" stroke="transparent" points="14,-10 14,-30 34,-30 34,-10 14,-10"/>
<text text-anchor="start" x="37.63" y="-15.4" font-family="sans-serif" font-size="14.00"> &#160;Declarations</text>
<polygon fill="#8dd3c7" stroke="transparent" points="127,-10 127,-30 147,-30 147,-10 127,-10"/>
<text text-anchor="start" x="150.73" y="-15.4" font-family="sans-serif" font-size="14.00"> &#160;Module</text>
<polygon fill="#80b1d3" stroke="transparent" points="213,-10 213,-30 233,-30 233,-10 213,-10"/>
<text text-anchor="start" x="236.78" y="-15.4" font-family="sans-serif" font-size="14.00"> &#160;Bootstrap</text>
<polygon fill="#fdb462" stroke="transparent" points="310,-10 310,-30 330,-30 330,-10 310,-10"/>
<text text-anchor="start" x="333.67" y="-15.4" font-family="sans-serif" font-size="14.00"> &#160;Providers</text>
<polygon fill="#fb8072" stroke="transparent" points="406,-10 406,-30 426,-30 426,-10 406,-10"/>
<text text-anchor="start" x="429.73" y="-15.4" font-family="sans-serif" font-size="14.00"> &#160;Exports</text>
<g id="clust1" class="cluster">
<title>cluster_PreCheckModule</title>
<polygon fill="none" stroke="black" stroke-dasharray="1,5" points="14,-70 14,-268 482,-268 482,-70 14,-70"/>
</g>
<g id="clust4" class="cluster">
<title>cluster_PreCheckModule_imports</title>
<polygon fill="none" stroke="black" points="182,-78 182,-130 474,-130 474,-78 182,-78"/>
</g>
<g id="clust5" class="cluster">
<title>cluster_PreCheckModule_exports</title>
<polygon fill="none" stroke="black" points="150,-208 150,-260 328,-260 328,-208 150,-208"/>
</g>
<g id="clust2" class="cluster">
<title>cluster_PreCheckModule_declarations</title>
<polygon fill="none" stroke="black" points="22,-78 22,-130 174,-130 174,-78 22,-78"/>
</g>
<!-- PreCheckComponent -->
<g id="node1" class="node">
<title>PreCheckComponent</title>
<polygon fill="#ffffb3" stroke="black" points="165.76,-122 30.24,-122 30.24,-86 165.76,-86 165.76,-122"/>
<text text-anchor="middle" x="98" y="-99.8" font-family="Times,serif" font-size="14.00">PreCheckComponent</text>
</g>
<!-- PreCheckModule -->
<g id="node2" class="node">
<title>PreCheckModule</title>
<polygon fill="#8dd3c7" stroke="black" points="295.97,-187 292.97,-191 271.97,-191 268.97,-187 182.03,-187 182.03,-151 295.97,-151 295.97,-187"/>
<text text-anchor="middle" x="239" y="-164.8" font-family="Times,serif" font-size="14.00">PreCheckModule</text>
</g>
<!-- PreCheckComponent&#45;&gt;PreCheckModule -->
<g id="edge1" class="edge">
<title>PreCheckComponent&#45;&gt;PreCheckModule</title>
<path fill="none" stroke="black" d="M165.95,-104C177.53,-104 185.9,-104 185.9,-104 185.9,-104 185.9,-140.89 185.9,-140.89"/>
<polygon fill="black" stroke="black" points="182.4,-140.89 185.9,-150.89 189.4,-140.89 182.4,-140.89"/>
</g>
<!-- PreCheckRoutingModule  -->
<g id="node5" class="node">
<title>PreCheckRoutingModule </title>
<polygon fill="#fb8072" stroke="black" points="320.09,-252 157.91,-252 157.91,-216 320.09,-216 320.09,-252"/>
<text text-anchor="middle" x="239" y="-229.8" font-family="Times,serif" font-size="14.00">PreCheckRoutingModule </text>
</g>
<!-- PreCheckModule&#45;&gt;PreCheckRoutingModule  -->
<g id="edge4" class="edge">
<title>PreCheckModule&#45;&gt;PreCheckRoutingModule </title>
<path fill="none" stroke="black" stroke-dasharray="5,2" d="M239,-187.11C239,-187.11 239,-205.99 239,-205.99"/>
<polygon fill="black" stroke="black" points="235.5,-205.99 239,-215.99 242.5,-205.99 235.5,-205.99"/>
</g>
<!-- PreCheckRoutingModule -->
<g id="node3" class="node">
<title>PreCheckRoutingModule</title>
<polygon fill="#8dd3c7" stroke="black" points="465.59,-122 462.59,-126 441.59,-126 438.59,-122 306.41,-122 306.41,-86 465.59,-86 465.59,-122"/>
<text text-anchor="middle" x="386" y="-99.8" font-family="Times,serif" font-size="14.00">PreCheckRoutingModule</text>
</g>
<!-- PreCheckRoutingModule&#45;&gt;PreCheckModule -->
<g id="edge2" class="edge">
<title>PreCheckRoutingModule&#45;&gt;PreCheckModule</title>
<path fill="none" stroke="black" d="M306.36,-104C297.79,-104 292.1,-104 292.1,-104 292.1,-104 292.1,-140.89 292.1,-140.89"/>
<polygon fill="black" stroke="black" points="288.6,-140.89 292.1,-150.89 295.6,-140.89 288.6,-140.89"/>
</g>
<!-- SharedModule -->
<g id="node4" class="node">
<title>SharedModule</title>
<polygon fill="#8dd3c7" stroke="black" points="288.42,-122 285.42,-126 264.42,-126 261.42,-122 189.58,-122 189.58,-86 288.42,-86 288.42,-122"/>
<text text-anchor="middle" x="239" y="-99.8" font-family="Times,serif" font-size="14.00">SharedModule</text>
</g>
<!-- SharedModule&#45;&gt;PreCheckModule -->
<g id="edge3" class="edge">
<title>SharedModule&#45;&gt;PreCheckModule</title>
<path fill="none" stroke="black" d="M239,-122.11C239,-122.11 239,-140.99 239,-140.99"/>
<polygon fill="black" stroke="black" points="235.5,-140.99 239,-150.99 242.5,-140.99 235.5,-140.99"/>
</g>
</g>
</svg>
