<?xml version="1.0" encoding="UTF-8" standalone="no"?>
<!DOCTYPE svg PUBLIC "-//W3C//DTD SVG 1.1//EN"
 "http://www.w3.org/Graphics/SVG/1.1/DTD/svg11.dtd">
<!-- Generated by graphviz version 2.46.0 (20210119.1425)
 -->
<!-- Title: dependencies Pages: 1 -->
<svg width="504pt" height="284pt"
 viewBox="0.00 0.00 504.00 284.00" xmlns="http://www.w3.org/2000/svg" xmlns:xlink="http://www.w3.org/1999/xlink">
<g id="graph0" class="graph" transform="scale(1 1) rotate(0) translate(4 280)">
<title>dependencies</title>
<polygon fill="white" stroke="transparent" points="-4,4 -4,-280 500,-280 500,4 -4,4"/>
<text text-anchor="start" x="227.01" y="-42.4" font-family="sans-serif" font-weight="bold" font-size="14.00">Legend</text>
<polygon fill="#ffffb3" stroke="transparent" points="14,-10 14,-30 34,-30 34,-10 14,-10"/>
<text text-anchor="start" x="37.63" y="-15.4" font-family="sans-serif" font-size="14.00"> &#160;Declarations</text>
<polygon fill="#8dd3c7" stroke="transparent" points="127,-10 127,-30 147,-30 147,-10 127,-10"/>
<text text-anchor="start" x="150.73" y="-15.4" font-family="sans-serif" font-size="14.00"> &#160;Module</text>
<polygon fill="#80b1d3" stroke="transparent" points="213,-10 213,-30 233,-30 233,-10 213,-10"/>
<text text-anchor="start" x="236.78" y="-15.4" font-family="sans-serif" font-size="14.00"> &#160;Bootstrap</text>
<polygon fill="#fdb462" stroke="transparent" points="310,-10 310,-30 330,-30 330,-10 310,-10"/>
<text text-anchor="start" x="333.67" y="-15.4" font-family="sans-serif" font-size="14.00"> &#160;Providers</text>
<polygon fill="#fb8072" stroke="transparent" points="406,-10 406,-30 426,-30 426,-10 406,-10"/>
<text text-anchor="start" x="429.73" y="-15.4" font-family="sans-serif" font-size="14.00"> &#160;Exports</text>
<g id="clust1" class="cluster">
<title>cluster_PreCheckModule</title>
<polygon fill="none" stroke="black" stroke-dasharray="1,5" points="14,-70 14,-268 482,-268 482,-70 14,-70"/>
</g>
<g id="clust2" class="cluster">
<title>cluster_PreCheckModule_declarations</title>
<polygon fill="none" stroke="black" points="322,-78 322,-130 474,-130 474,-78 322,-78"/>
</g>
<g id="clust4" class="cluster">
<title>cluster_PreCheckModule_imports</title>
<polygon fill="none" stroke="black" points="22,-78 22,-130 314,-130 314,-78 22,-78"/>
</g>
<g id="clust5" class="cluster">
<title>cluster_PreCheckModule_exports</title>
<polygon fill="none" stroke="black" points="137,-208 137,-260 315,-260 315,-208 137,-208"/>
</g>
<!-- PreCheckComponent -->
<g id="node1" class="node">
<title>PreCheckComponent</title>
<polygon fill="#ffffb3" stroke="black" points="465.76,-122 330.24,-122 330.24,-86 465.76,-86 465.76,-122"/>
<text text-anchor="middle" x="398" y="-99.8" font-family="Times,serif" font-size="14.00">PreCheckComponent</text>
</g>
<!-- PreCheckModule -->
<g id="node2" class="node">
<title>PreCheckModule</title>
<polygon fill="#8dd3c7" stroke="black" points="282.97,-187 279.97,-191 258.97,-191 255.97,-187 169.03,-187 169.03,-151 282.97,-151 282.97,-187"/>
<text text-anchor="middle" x="226" y="-164.8" font-family="Times,serif" font-size="14.00">PreCheckModule</text>
</g>
<!-- PreCheckComponent&#45;&gt;PreCheckModule -->
<g id="edge1" class="edge">
<title>PreCheckComponent&#45;&gt;PreCheckModule</title>
<path fill="none" stroke="black" d="M398,-122.11C398,-141.34 398,-169 398,-169 398,-169 293.27,-169 293.27,-169"/>
<polygon fill="black" stroke="black" points="293.27,-165.5 283.27,-169 293.27,-172.5 293.27,-165.5"/>
</g>
<!-- PreCheckRoutingModule  -->
<g id="node5" class="node">
<title>PreCheckRoutingModule </title>
<polygon fill="#fb8072" stroke="black" points="307.09,-252 144.91,-252 144.91,-216 307.09,-216 307.09,-252"/>
<text text-anchor="middle" x="226" y="-229.8" font-family="Times,serif" font-size="14.00">PreCheckRoutingModule </text>
</g>
<!-- PreCheckModule&#45;&gt;PreCheckRoutingModule  -->
<g id="edge4" class="edge">
<title>PreCheckModule&#45;&gt;PreCheckRoutingModule </title>
<path fill="none" stroke="black" stroke-dasharray="5,2" d="M226,-187.11C226,-187.11 226,-205.99 226,-205.99"/>
<polygon fill="black" stroke="black" points="222.5,-205.99 226,-215.99 229.5,-205.99 222.5,-205.99"/>
</g>
<!-- PreCheckRoutingModule -->
<g id="node3" class="node">
<title>PreCheckRoutingModule</title>
<polygon fill="#8dd3c7" stroke="black" points="305.59,-122 302.59,-126 281.59,-126 278.59,-122 146.41,-122 146.41,-86 305.59,-86 305.59,-122"/>
<text text-anchor="middle" x="226" y="-99.8" font-family="Times,serif" font-size="14.00">PreCheckRoutingModule</text>
</g>
<!-- PreCheckRoutingModule&#45;&gt;PreCheckModule -->
<g id="edge2" class="edge">
<title>PreCheckRoutingModule&#45;&gt;PreCheckModule</title>
<path fill="none" stroke="black" d="M226,-122.11C226,-122.11 226,-140.99 226,-140.99"/>
<polygon fill="black" stroke="black" points="222.5,-140.99 226,-150.99 229.5,-140.99 222.5,-140.99"/>
</g>
<!-- SharedModule -->
<g id="node4" class="node">
<title>SharedModule</title>
<polygon fill="#8dd3c7" stroke="black" points="128.42,-122 125.42,-126 104.42,-126 101.42,-122 29.58,-122 29.58,-86 128.42,-86 128.42,-122"/>
<text text-anchor="middle" x="79" y="-99.8" font-family="Times,serif" font-size="14.00">SharedModule</text>
</g>
<!-- SharedModule&#45;&gt;PreCheckModule -->
<g id="edge3" class="edge">
<title>SharedModule&#45;&gt;PreCheckModule</title>
<path fill="none" stroke="black" d="M79,-122.11C79,-141.34 79,-169 79,-169 79,-169 158.75,-169 158.75,-169"/>
<polygon fill="black" stroke="black" points="158.75,-172.5 168.75,-169 158.75,-165.5 158.75,-172.5"/>
</g>
</g>
</svg>
