<?xml version="1.0" encoding="UTF-8" standalone="no"?>
<!DOCTYPE svg PUBLIC "-//W3C//DTD SVG 1.1//EN"
 "http://www.w3.org/Graphics/SVG/1.1/DTD/svg11.dtd">
<!-- Generated by graphviz version 2.46.0 (20210119.1425)
 -->
<!-- Title: dependencies Pages: 1 -->
<svg width="610pt" height="284pt"
 viewBox="0.00 0.00 610.00 284.00" xmlns="http://www.w3.org/2000/svg" xmlns:xlink="http://www.w3.org/1999/xlink">
<g id="graph0" class="graph" transform="scale(1 1) rotate(0) translate(4 280)">
<title>dependencies</title>
<polygon fill="white" stroke="transparent" points="-4,4 -4,-280 606,-280 606,4 -4,4"/>
<text text-anchor="start" x="280.01" y="-42.4" font-family="sans-serif" font-weight="bold" font-size="14.00">Legend</text>
<polygon fill="#ffffb3" stroke="transparent" points="67,-10 67,-30 87,-30 87,-10 67,-10"/>
<text text-anchor="start" x="90.63" y="-15.4" font-family="sans-serif" font-size="14.00"> &#160;Declarations</text>
<polygon fill="#8dd3c7" stroke="transparent" points="180,-10 180,-30 200,-30 200,-10 180,-10"/>
<text text-anchor="start" x="203.73" y="-15.4" font-family="sans-serif" font-size="14.00"> &#160;Module</text>
<polygon fill="#80b1d3" stroke="transparent" points="266,-10 266,-30 286,-30 286,-10 266,-10"/>
<text text-anchor="start" x="289.78" y="-15.4" font-family="sans-serif" font-size="14.00"> &#160;Bootstrap</text>
<polygon fill="#fdb462" stroke="transparent" points="363,-10 363,-30 383,-30 383,-10 363,-10"/>
<text text-anchor="start" x="386.67" y="-15.4" font-family="sans-serif" font-size="14.00"> &#160;Providers</text>
<polygon fill="#fb8072" stroke="transparent" points="459,-10 459,-30 479,-30 479,-10 459,-10"/>
<text text-anchor="start" x="482.73" y="-15.4" font-family="sans-serif" font-size="14.00"> &#160;Exports</text>
<g id="clust1" class="cluster">
<title>cluster_MainModule</title>
<polygon fill="none" stroke="black" stroke-dasharray="1,5" points="8,-70 8,-268 594,-268 594,-70 8,-70"/>
</g>
<g id="clust2" class="cluster">
<title>cluster_MainModule_declarations</title>
<polygon fill="none" stroke="black" points="290,-78 290,-130 586,-130 586,-78 290,-78"/>
</g>
<g id="clust5" class="cluster">
<title>cluster_MainModule_imports</title>
<polygon fill="none" stroke="black" points="16,-78 16,-130 282,-130 282,-78 16,-78"/>
</g>
<g id="clust6" class="cluster">
<title>cluster_MainModule_exports</title>
<polygon fill="none" stroke="black" points="213,-208 213,-260 367,-260 367,-208 213,-208"/>
</g>
<!-- MainComponent -->
<g id="node1" class="node">
<title>MainComponent</title>
<polygon fill="#ffffb3" stroke="black" points="578.38,-122 467.62,-122 467.62,-86 578.38,-86 578.38,-122"/>
<text text-anchor="middle" x="523" y="-99.8" font-family="Times,serif" font-size="14.00">MainComponent</text>
</g>
<!-- MainModule -->
<g id="node3" class="node">
<title>MainModule</title>
<polygon fill="#8dd3c7" stroke="black" points="334.6,-187 331.6,-191 310.6,-191 307.6,-187 245.4,-187 245.4,-151 334.6,-151 334.6,-187"/>
<text text-anchor="middle" x="290" y="-164.8" font-family="Times,serif" font-size="14.00">MainModule</text>
</g>
<!-- MainComponent&#45;&gt;MainModule -->
<g id="edge1" class="edge">
<title>MainComponent&#45;&gt;MainModule</title>
<path fill="none" stroke="black" d="M523,-122.11C523,-141.34 523,-169 523,-169 523,-169 344.65,-169 344.65,-169"/>
<polygon fill="black" stroke="black" points="344.65,-165.5 334.65,-169 344.65,-172.5 344.65,-165.5"/>
</g>
<!-- MenuDialogComponent -->
<g id="node2" class="node">
<title>MenuDialogComponent</title>
<polygon fill="#ffffb3" stroke="black" points="450.09,-122 297.91,-122 297.91,-86 450.09,-86 450.09,-122"/>
<text text-anchor="middle" x="374" y="-99.8" font-family="Times,serif" font-size="14.00">MenuDialogComponent</text>
</g>
<!-- MenuDialogComponent&#45;&gt;MainModule -->
<g id="edge2" class="edge">
<title>MenuDialogComponent&#45;&gt;MainModule</title>
<path fill="none" stroke="black" d="M316.25,-122.11C316.25,-122.11 316.25,-140.99 316.25,-140.99"/>
<polygon fill="black" stroke="black" points="312.75,-140.99 316.25,-150.99 319.75,-140.99 312.75,-140.99"/>
</g>
<!-- MainRoutingModule  -->
<g id="node6" class="node">
<title>MainRoutingModule </title>
<polygon fill="#fb8072" stroke="black" points="358.72,-252 221.28,-252 221.28,-216 358.72,-216 358.72,-252"/>
<text text-anchor="middle" x="290" y="-229.8" font-family="Times,serif" font-size="14.00">MainRoutingModule </text>
</g>
<!-- MainModule&#45;&gt;MainRoutingModule  -->
<g id="edge5" class="edge">
<title>MainModule&#45;&gt;MainRoutingModule </title>
<path fill="none" stroke="black" stroke-dasharray="5,2" d="M290,-187.11C290,-187.11 290,-205.99 290,-205.99"/>
<polygon fill="black" stroke="black" points="286.5,-205.99 290,-215.99 293.5,-205.99 286.5,-205.99"/>
</g>
<!-- MainRoutingModule -->
<g id="node4" class="node">
<title>MainRoutingModule</title>
<polygon fill="#8dd3c7" stroke="black" points="274.22,-122 271.22,-126 250.22,-126 247.22,-122 139.78,-122 139.78,-86 274.22,-86 274.22,-122"/>
<text text-anchor="middle" x="207" y="-99.8" font-family="Times,serif" font-size="14.00">MainRoutingModule</text>
</g>
<!-- MainRoutingModule&#45;&gt;MainModule -->
<g id="edge3" class="edge">
<title>MainRoutingModule&#45;&gt;MainModule</title>
<path fill="none" stroke="black" d="M259.78,-122.11C259.78,-122.11 259.78,-140.99 259.78,-140.99"/>
<polygon fill="black" stroke="black" points="256.28,-140.99 259.78,-150.99 263.28,-140.99 256.28,-140.99"/>
</g>
<!-- SharedModule -->
<g id="node5" class="node">
<title>SharedModule</title>
<polygon fill="#8dd3c7" stroke="black" points="122.42,-122 119.42,-126 98.42,-126 95.42,-122 23.58,-122 23.58,-86 122.42,-86 122.42,-122"/>
<text text-anchor="middle" x="73" y="-99.8" font-family="Times,serif" font-size="14.00">SharedModule</text>
</g>
<!-- SharedModule&#45;&gt;MainModule -->
<g id="edge4" class="edge">
<title>SharedModule&#45;&gt;MainModule</title>
<path fill="none" stroke="black" d="M73,-122.11C73,-141.34 73,-169 73,-169 73,-169 235.3,-169 235.3,-169"/>
<polygon fill="black" stroke="black" points="235.3,-172.5 245.3,-169 235.3,-165.5 235.3,-172.5"/>
</g>
</g>
</svg>
