<?xml version="1.0" encoding="UTF-8" standalone="no"?>
<!DOCTYPE svg PUBLIC "-//W3C//DTD SVG 1.1//EN"
 "http://www.w3.org/Graphics/SVG/1.1/DTD/svg11.dtd">
<!-- Generated by graphviz version 2.46.0 (20210119.1425)
 -->
<!-- Title: dependencies Pages: 1 -->
<svg width="774pt" height="284pt"
 viewBox="0.00 0.00 774.00 284.00" xmlns="http://www.w3.org/2000/svg" xmlns:xlink="http://www.w3.org/1999/xlink">
<g id="graph0" class="graph" transform="scale(1 1) rotate(0) translate(4 280)">
<title>dependencies</title>
<polygon fill="white" stroke="transparent" points="-4,4 -4,-280 770,-280 770,4 -4,4"/>
<text text-anchor="start" x="362.01" y="-42.4" font-family="sans-serif" font-weight="bold" font-size="14.00">Legend</text>
<polygon fill="#ffffb3" stroke="transparent" points="149,-10 149,-30 169,-30 169,-10 149,-10"/>
<text text-anchor="start" x="172.63" y="-15.4" font-family="sans-serif" font-size="14.00"> &#160;Declarations</text>
<polygon fill="#8dd3c7" stroke="transparent" points="262,-10 262,-30 282,-30 282,-10 262,-10"/>
<text text-anchor="start" x="285.73" y="-15.4" font-family="sans-serif" font-size="14.00"> &#160;Module</text>
<polygon fill="#80b1d3" stroke="transparent" points="348,-10 348,-30 368,-30 368,-10 348,-10"/>
<text text-anchor="start" x="371.78" y="-15.4" font-family="sans-serif" font-size="14.00"> &#160;Bootstrap</text>
<polygon fill="#fdb462" stroke="transparent" points="445,-10 445,-30 465,-30 465,-10 445,-10"/>
<text text-anchor="start" x="468.67" y="-15.4" font-family="sans-serif" font-size="14.00"> &#160;Providers</text>
<polygon fill="#fb8072" stroke="transparent" points="541,-10 541,-30 561,-30 561,-10 541,-10"/>
<text text-anchor="start" x="564.73" y="-15.4" font-family="sans-serif" font-size="14.00"> &#160;Exports</text>
<g id="clust1" class="cluster">
<title>cluster_MainModule</title>
<polygon fill="none" stroke="black" stroke-dasharray="1,5" points="8,-70 8,-268 758,-268 758,-70 8,-70"/>
</g>
<g id="clust6" class="cluster">
<title>cluster_MainModule_imports</title>
<polygon fill="none" stroke="black" points="484,-78 484,-130 750,-130 750,-78 484,-78"/>
</g>
<g id="clust2" class="cluster">
<title>cluster_MainModule_declarations</title>
<polygon fill="none" stroke="black" points="16,-78 16,-130 476,-130 476,-78 16,-78"/>
</g>
<g id="clust7" class="cluster">
<title>cluster_MainModule_exports</title>
<polygon fill="none" stroke="black" points="336,-208 336,-260 490,-260 490,-208 336,-208"/>
</g>
<!-- MainComponent -->
<g id="node1" class="node">
<title>MainComponent</title>
<polygon fill="#ffffb3" stroke="black" points="468.38,-122 357.62,-122 357.62,-86 468.38,-86 468.38,-122"/>
<text text-anchor="middle" x="413" y="-99.8" font-family="Times,serif" font-size="14.00">MainComponent</text>
</g>
<!-- MainModule -->
<g id="node4" class="node">
<title>MainModule</title>
<polygon fill="#8dd3c7" stroke="black" points="457.6,-187 454.6,-191 433.6,-191 430.6,-187 368.4,-187 368.4,-151 457.6,-151 457.6,-187"/>
<text text-anchor="middle" x="413" y="-164.8" font-family="Times,serif" font-size="14.00">MainModule</text>
</g>
<!-- MainComponent&#45;&gt;MainModule -->
<g id="edge1" class="edge">
<title>MainComponent&#45;&gt;MainModule</title>
<path fill="none" stroke="black" d="M413,-122.11C413,-122.11 413,-140.99 413,-140.99"/>
<polygon fill="black" stroke="black" points="409.5,-140.99 413,-150.99 416.5,-140.99 409.5,-140.99"/>
</g>
<!-- MenuDialogComponent -->
<g id="node2" class="node">
<title>MenuDialogComponent</title>
<polygon fill="#ffffb3" stroke="black" points="340.09,-122 187.91,-122 187.91,-86 340.09,-86 340.09,-122"/>
<text text-anchor="middle" x="264" y="-99.8" font-family="Times,serif" font-size="14.00">MenuDialogComponent</text>
</g>
<!-- MenuDialogComponent&#45;&gt;MainModule -->
<g id="edge2" class="edge">
<title>MenuDialogComponent&#45;&gt;MainModule</title>
<path fill="none" stroke="black" d="M264,-122.02C264,-139.37 264,-163 264,-163 264,-163 358.3,-163 358.3,-163"/>
<polygon fill="black" stroke="black" points="358.3,-166.5 368.3,-163 358.3,-159.5 358.3,-166.5"/>
</g>
<!-- NavHeaderComponent -->
<g id="node3" class="node">
<title>NavHeaderComponent</title>
<polygon fill="#ffffb3" stroke="black" points="169.56,-122 24.44,-122 24.44,-86 169.56,-86 169.56,-122"/>
<text text-anchor="middle" x="97" y="-99.8" font-family="Times,serif" font-size="14.00">NavHeaderComponent</text>
</g>
<!-- NavHeaderComponent&#45;&gt;MainModule -->
<g id="edge3" class="edge">
<title>NavHeaderComponent&#45;&gt;MainModule</title>
<path fill="none" stroke="black" d="M97,-122.28C97,-143.32 97,-175 97,-175 97,-175 358.4,-175 358.4,-175"/>
<polygon fill="black" stroke="black" points="358.4,-178.5 368.4,-175 358.4,-171.5 358.4,-178.5"/>
</g>
<!-- MainRoutingModule  -->
<g id="node7" class="node">
<title>MainRoutingModule </title>
<polygon fill="#fb8072" stroke="black" points="481.72,-252 344.28,-252 344.28,-216 481.72,-216 481.72,-252"/>
<text text-anchor="middle" x="413" y="-229.8" font-family="Times,serif" font-size="14.00">MainRoutingModule </text>
</g>
<!-- MainModule&#45;&gt;MainRoutingModule  -->
<g id="edge6" class="edge">
<title>MainModule&#45;&gt;MainRoutingModule </title>
<path fill="none" stroke="black" stroke-dasharray="5,2" d="M413,-187.11C413,-187.11 413,-205.99 413,-205.99"/>
<polygon fill="black" stroke="black" points="409.5,-205.99 413,-215.99 416.5,-205.99 409.5,-205.99"/>
</g>
<!-- MainRoutingModule -->
<g id="node5" class="node">
<title>MainRoutingModule</title>
<polygon fill="#8dd3c7" stroke="black" points="742.22,-122 739.22,-126 718.22,-126 715.22,-122 607.78,-122 607.78,-86 742.22,-86 742.22,-122"/>
<text text-anchor="middle" x="675" y="-99.8" font-family="Times,serif" font-size="14.00">MainRoutingModule</text>
</g>
<!-- MainRoutingModule&#45;&gt;MainModule -->
<g id="edge4" class="edge">
<title>MainRoutingModule&#45;&gt;MainModule</title>
<path fill="none" stroke="black" d="M675,-122.28C675,-143.32 675,-175 675,-175 675,-175 467.74,-175 467.74,-175"/>
<polygon fill="black" stroke="black" points="467.74,-171.5 457.74,-175 467.74,-178.5 467.74,-171.5"/>
</g>
<!-- SharedModule -->
<g id="node6" class="node">
<title>SharedModule</title>
<polygon fill="#8dd3c7" stroke="black" points="590.42,-122 587.42,-126 566.42,-126 563.42,-122 491.58,-122 491.58,-86 590.42,-86 590.42,-122"/>
<text text-anchor="middle" x="541" y="-99.8" font-family="Times,serif" font-size="14.00">SharedModule</text>
</g>
<!-- SharedModule&#45;&gt;MainModule -->
<g id="edge5" class="edge">
<title>SharedModule&#45;&gt;MainModule</title>
<path fill="none" stroke="black" d="M541,-122.02C541,-139.37 541,-163 541,-163 541,-163 467.77,-163 467.77,-163"/>
<polygon fill="black" stroke="black" points="467.77,-159.5 457.77,-163 467.77,-166.5 467.77,-159.5"/>
</g>
</g>
</svg>
