<?xml version="1.0" encoding="UTF-8" standalone="no"?>
<!DOCTYPE svg PUBLIC "-//W3C//DTD SVG 1.1//EN"
 "http://www.w3.org/Graphics/SVG/1.1/DTD/svg11.dtd">
<!-- Generated by graphviz version 2.46.0 (20210119.1425)
 -->
<!-- Title: dependencies Pages: 1 -->
<svg width="610pt" height="284pt"
 viewBox="0.00 0.00 610.00 284.00" xmlns="http://www.w3.org/2000/svg" xmlns:xlink="http://www.w3.org/1999/xlink">
<g id="graph0" class="graph" transform="scale(1 1) rotate(0) translate(4 280)">
<title>dependencies</title>
<polygon fill="white" stroke="transparent" points="-4,4 -4,-280 606,-280 606,4 -4,4"/>
<text text-anchor="start" x="280.01" y="-42.4" font-family="sans-serif" font-weight="bold" font-size="14.00">Legend</text>
<polygon fill="#ffffb3" stroke="transparent" points="67,-10 67,-30 87,-30 87,-10 67,-10"/>
<text text-anchor="start" x="90.63" y="-15.4" font-family="sans-serif" font-size="14.00"> &#160;Declarations</text>
<polygon fill="#8dd3c7" stroke="transparent" points="180,-10 180,-30 200,-30 200,-10 180,-10"/>
<text text-anchor="start" x="203.73" y="-15.4" font-family="sans-serif" font-size="14.00"> &#160;Module</text>
<polygon fill="#80b1d3" stroke="transparent" points="266,-10 266,-30 286,-30 286,-10 266,-10"/>
<text text-anchor="start" x="289.78" y="-15.4" font-family="sans-serif" font-size="14.00"> &#160;Bootstrap</text>
<polygon fill="#fdb462" stroke="transparent" points="363,-10 363,-30 383,-30 383,-10 363,-10"/>
<text text-anchor="start" x="386.67" y="-15.4" font-family="sans-serif" font-size="14.00"> &#160;Providers</text>
<polygon fill="#fb8072" stroke="transparent" points="459,-10 459,-30 479,-30 479,-10 459,-10"/>
<text text-anchor="start" x="482.73" y="-15.4" font-family="sans-serif" font-size="14.00"> &#160;Exports</text>
<g id="clust1" class="cluster">
<title>cluster_MainModule</title>
<polygon fill="none" stroke="black" stroke-dasharray="1,5" points="8,-70 8,-268 594,-268 594,-70 8,-70"/>
</g>
<g id="clust5" class="cluster">
<title>cluster_MainModule_imports</title>
<polygon fill="none" stroke="black" points="320,-78 320,-130 586,-130 586,-78 320,-78"/>
</g>
<g id="clust6" class="cluster">
<title>cluster_MainModule_exports</title>
<polygon fill="none" stroke="black" points="236,-208 236,-260 390,-260 390,-208 236,-208"/>
</g>
<g id="clust2" class="cluster">
<title>cluster_MainModule_declarations</title>
<polygon fill="none" stroke="black" points="16,-78 16,-130 312,-130 312,-78 16,-78"/>
</g>
<!-- MainComponent -->
<g id="node1" class="node">
<title>MainComponent</title>
<polygon fill="#ffffb3" stroke="black" points="304.38,-122 193.62,-122 193.62,-86 304.38,-86 304.38,-122"/>
<text text-anchor="middle" x="249" y="-99.8" font-family="Times,serif" font-size="14.00">MainComponent</text>
</g>
<!-- MainModule -->
<g id="node3" class="node">
<title>MainModule</title>
<polygon fill="#8dd3c7" stroke="black" points="357.6,-187 354.6,-191 333.6,-191 330.6,-187 268.4,-187 268.4,-151 357.6,-151 357.6,-187"/>
<text text-anchor="middle" x="313" y="-164.8" font-family="Times,serif" font-size="14.00">MainModule</text>
</g>
<!-- MainComponent&#45;&gt;MainModule -->
<g id="edge1" class="edge">
<title>MainComponent&#45;&gt;MainModule</title>
<path fill="none" stroke="black" d="M286.45,-122.11C286.45,-122.11 286.45,-140.99 286.45,-140.99"/>
<polygon fill="black" stroke="black" points="282.95,-140.99 286.45,-150.99 289.95,-140.99 282.95,-140.99"/>
</g>
<!-- MenuDialogComponent -->
<g id="node2" class="node">
<title>MenuDialogComponent</title>
<polygon fill="#ffffb3" stroke="black" points="176.09,-122 23.91,-122 23.91,-86 176.09,-86 176.09,-122"/>
<text text-anchor="middle" x="100" y="-99.8" font-family="Times,serif" font-size="14.00">MenuDialogComponent</text>
</g>
<!-- MenuDialogComponent&#45;&gt;MainModule -->
<g id="edge2" class="edge">
<title>MenuDialogComponent&#45;&gt;MainModule</title>
<path fill="none" stroke="black" d="M100,-122.11C100,-141.34 100,-169 100,-169 100,-169 258.35,-169 258.35,-169"/>
<polygon fill="black" stroke="black" points="258.35,-172.5 268.35,-169 258.35,-165.5 258.35,-172.5"/>
</g>
<!-- MainRoutingModule  -->
<g id="node6" class="node">
<title>MainRoutingModule </title>
<polygon fill="#fb8072" stroke="black" points="381.72,-252 244.28,-252 244.28,-216 381.72,-216 381.72,-252"/>
<text text-anchor="middle" x="313" y="-229.8" font-family="Times,serif" font-size="14.00">MainRoutingModule </text>
</g>
<!-- MainModule&#45;&gt;MainRoutingModule  -->
<g id="edge5" class="edge">
<title>MainModule&#45;&gt;MainRoutingModule </title>
<path fill="none" stroke="black" stroke-dasharray="5,2" d="M313,-187.11C313,-187.11 313,-205.99 313,-205.99"/>
<polygon fill="black" stroke="black" points="309.5,-205.99 313,-215.99 316.5,-205.99 309.5,-205.99"/>
</g>
<!-- MainRoutingModule -->
<g id="node4" class="node">
<title>MainRoutingModule</title>
<polygon fill="#8dd3c7" stroke="black" points="578.22,-122 575.22,-126 554.22,-126 551.22,-122 443.78,-122 443.78,-86 578.22,-86 578.22,-122"/>
<text text-anchor="middle" x="511" y="-99.8" font-family="Times,serif" font-size="14.00">MainRoutingModule</text>
</g>
<!-- MainRoutingModule&#45;&gt;MainModule -->
<g id="edge3" class="edge">
<title>MainRoutingModule&#45;&gt;MainModule</title>
<path fill="none" stroke="black" d="M511,-122.11C511,-141.34 511,-169 511,-169 511,-169 367.93,-169 367.93,-169"/>
<polygon fill="black" stroke="black" points="367.93,-165.5 357.93,-169 367.93,-172.5 367.93,-165.5"/>
</g>
<!-- SharedModule -->
<g id="node5" class="node">
<title>SharedModule</title>
<polygon fill="#8dd3c7" stroke="black" points="426.42,-122 423.42,-126 402.42,-126 399.42,-122 327.58,-122 327.58,-86 426.42,-86 426.42,-122"/>
<text text-anchor="middle" x="377" y="-99.8" font-family="Times,serif" font-size="14.00">SharedModule</text>
</g>
<!-- SharedModule&#45;&gt;MainModule -->
<g id="edge4" class="edge">
<title>SharedModule&#45;&gt;MainModule</title>
<path fill="none" stroke="black" d="M342.67,-122.11C342.67,-122.11 342.67,-140.99 342.67,-140.99"/>
<polygon fill="black" stroke="black" points="339.17,-140.99 342.67,-150.99 346.17,-140.99 339.17,-140.99"/>
</g>
</g>
</svg>
