<?xml version="1.0" encoding="utf-8"?>
<svg version="1.1" xmlns:xlink="http://www.w3.org/1999/xlink" width="34px" height="32px" xmlns="http://www.w3.org/2000/svg">
  <g transform="matrix(1 0 0 1 -22 -314 )">
    <path d="M 39 314  C 48.52 314  56 321.04  56 330  C 56 338.96  48.52 346  39 346  C 29.48 346  22 338.96  22 330  C 22 321.04  29.48 314  39 314  Z " fill-rule="nonzero" fill="#95f204" stroke="none" />
    <path d="M 39 314.5  C 48.24 314.5  55.5 321.32  55.5 330  C 55.5 338.68  48.24 345.5  39 345.5  C 29.76 345.5  22.5 338.68  22.5 330  C 22.5 321.32  29.76 314.5  39 314.5  Z " stroke-width="1" stroke="#70b603" fill="none" />
  </g>
</svg>