<?xml version="1.0" encoding="utf-8"?>
<svg version="1.1" xmlns:xlink="http://www.w3.org/1999/xlink" width="32px" height="32px" xmlns="http://www.w3.org/2000/svg">
  <g transform="matrix(1 0 0 1 -80 -314 )">
    <path d="M 96 314  C 104.96 314  112 321.04  112 330  C 112 338.96  104.96 346  96 346  C 87.04 346  80 338.96  80 330  C 80 321.04  87.04 314  96 314  Z " fill-rule="nonzero" fill="#ffffff" stroke="none" />
    <path d="M 96 314.5  C 104.68 314.5  111.5 321.32  111.5 330  C 111.5 338.68  104.68 345.5  96 345.5  C 87.32 345.5  80.5 338.68  80.5 330  C 80.5 321.32  87.32 314.5  96 314.5  Z " stroke-width="1" stroke="#797979" fill="none" />
  </g>
</svg>