<?xml version="1.0" encoding="UTF-8" standalone="no"?>
<!DOCTYPE svg PUBLIC "-//W3C//DTD SVG 1.1//EN"
 "http://www.w3.org/Graphics/SVG/1.1/DTD/svg11.dtd">
<!-- Generated by graphviz version 2.46.0 (20210119.1425)
 -->
<!-- Title: dependencies Pages: 1 -->
<svg width="597pt" height="284pt"
 viewBox="0.00 0.00 597.00 284.00" xmlns="http://www.w3.org/2000/svg" xmlns:xlink="http://www.w3.org/1999/xlink">
<g id="graph0" class="graph" transform="scale(1 1) rotate(0) translate(4 280)">
<title>dependencies</title>
<polygon fill="white" stroke="transparent" points="-4,4 -4,-280 593,-280 593,4 -4,4"/>
<text text-anchor="start" x="273.51" y="-42.4" font-family="sans-serif" font-weight="bold" font-size="14.00">Legend</text>
<polygon fill="#ffffb3" stroke="transparent" points="60.5,-10 60.5,-30 80.5,-30 80.5,-10 60.5,-10"/>
<text text-anchor="start" x="84.13" y="-15.4" font-family="sans-serif" font-size="14.00"> &#160;Declarations</text>
<polygon fill="#8dd3c7" stroke="transparent" points="173.5,-10 173.5,-30 193.5,-30 193.5,-10 173.5,-10"/>
<text text-anchor="start" x="197.23" y="-15.4" font-family="sans-serif" font-size="14.00"> &#160;Module</text>
<polygon fill="#80b1d3" stroke="transparent" points="259.5,-10 259.5,-30 279.5,-30 279.5,-10 259.5,-10"/>
<text text-anchor="start" x="283.28" y="-15.4" font-family="sans-serif" font-size="14.00"> &#160;Bootstrap</text>
<polygon fill="#fdb462" stroke="transparent" points="356.5,-10 356.5,-30 376.5,-30 376.5,-10 356.5,-10"/>
<text text-anchor="start" x="380.17" y="-15.4" font-family="sans-serif" font-size="14.00"> &#160;Providers</text>
<polygon fill="#fb8072" stroke="transparent" points="452.5,-10 452.5,-30 472.5,-30 472.5,-10 452.5,-10"/>
<text text-anchor="start" x="476.23" y="-15.4" font-family="sans-serif" font-size="14.00"> &#160;Exports</text>
<g id="clust1" class="cluster">
<title>cluster_AppModule</title>
<polygon fill="none" stroke="black" stroke-dasharray="1,5" points="8,-70 8,-268 581,-268 581,-70 8,-70"/>
</g>
<g id="clust7" class="cluster">
<title>cluster_AppModule_bootstrap</title>
<polygon fill="none" stroke="black" points="244,-208 244,-260 368,-260 368,-208 244,-208"/>
</g>
<g id="clust5" class="cluster">
<title>cluster_AppModule_imports</title>
<polygon fill="none" stroke="black" points="312,-78 312,-130 573,-130 573,-78 312,-78"/>
</g>
<g id="clust2" class="cluster">
<title>cluster_AppModule_declarations</title>
<polygon fill="none" stroke="black" points="16,-78 16,-130 304,-130 304,-78 16,-78"/>
</g>
<!-- AppComponent -->
<g id="node1" class="node">
<title>AppComponent</title>
<polygon fill="#ffffb3" stroke="black" points="295.94,-122 190.06,-122 190.06,-86 295.94,-86 295.94,-122"/>
<text text-anchor="middle" x="243" y="-99.8" font-family="Times,serif" font-size="14.00">AppComponent</text>
</g>
<!-- AppModule -->
<g id="node3" class="node">
<title>AppModule</title>
<polygon fill="#8dd3c7" stroke="black" points="347.66,-187 344.66,-191 323.66,-191 320.66,-187 264.34,-187 264.34,-151 347.66,-151 347.66,-187"/>
<text text-anchor="middle" x="306" y="-164.8" font-family="Times,serif" font-size="14.00">AppModule</text>
</g>
<!-- AppComponent&#45;&gt;AppModule -->
<g id="edge1" class="edge">
<title>AppComponent&#45;&gt;AppModule</title>
<path fill="none" stroke="black" d="M279.95,-122.11C279.95,-122.11 279.95,-140.99 279.95,-140.99"/>
<polygon fill="black" stroke="black" points="276.45,-140.99 279.95,-150.99 283.45,-140.99 276.45,-140.99"/>
</g>
<!-- PageLoaderComponent -->
<g id="node2" class="node">
<title>PageLoaderComponent</title>
<polygon fill="#ffffb3" stroke="black" points="172.19,-122 23.81,-122 23.81,-86 172.19,-86 172.19,-122"/>
<text text-anchor="middle" x="98" y="-99.8" font-family="Times,serif" font-size="14.00">PageLoaderComponent</text>
</g>
<!-- PageLoaderComponent&#45;&gt;AppModule -->
<g id="edge2" class="edge">
<title>PageLoaderComponent&#45;&gt;AppModule</title>
<path fill="none" stroke="black" d="M98,-122.11C98,-141.34 98,-169 98,-169 98,-169 253.91,-169 253.91,-169"/>
<polygon fill="black" stroke="black" points="253.91,-172.5 263.91,-169 253.91,-165.5 253.91,-172.5"/>
</g>
<!-- AppComponent  -->
<g id="node6" class="node">
<title>AppComponent </title>
<polygon fill="#80b1d3" stroke="black" points="360.44,-252 251.56,-252 251.56,-216 360.44,-216 360.44,-252"/>
<text text-anchor="middle" x="306" y="-229.8" font-family="Times,serif" font-size="14.00">AppComponent </text>
</g>
<!-- AppModule&#45;&gt;AppComponent  -->
<g id="edge5" class="edge">
<title>AppModule&#45;&gt;AppComponent </title>
<path fill="none" stroke="black" stroke-dasharray="1,5" d="M306,-187.11C306,-187.11 306,-205.99 306,-205.99"/>
<polygon fill="black" stroke="black" points="302.5,-205.99 306,-215.99 309.5,-205.99 302.5,-205.99"/>
</g>
<!-- AppRoutingModule -->
<g id="node4" class="node">
<title>AppRoutingModule</title>
<polygon fill="#8dd3c7" stroke="black" points="565.27,-122 562.27,-126 541.27,-126 538.27,-122 436.73,-122 436.73,-86 565.27,-86 565.27,-122"/>
<text text-anchor="middle" x="501" y="-99.8" font-family="Times,serif" font-size="14.00">AppRoutingModule</text>
</g>
<!-- AppRoutingModule&#45;&gt;AppModule -->
<g id="edge3" class="edge">
<title>AppRoutingModule&#45;&gt;AppModule</title>
<path fill="none" stroke="black" d="M501,-122.11C501,-141.34 501,-169 501,-169 501,-169 357.83,-169 357.83,-169"/>
<polygon fill="black" stroke="black" points="357.83,-165.5 347.83,-169 357.83,-172.5 357.83,-165.5"/>
</g>
<!-- SharedModule -->
<g id="node5" class="node">
<title>SharedModule</title>
<polygon fill="#8dd3c7" stroke="black" points="418.42,-122 415.42,-126 394.42,-126 391.42,-122 319.58,-122 319.58,-86 418.42,-86 418.42,-122"/>
<text text-anchor="middle" x="369" y="-99.8" font-family="Times,serif" font-size="14.00">SharedModule</text>
</g>
<!-- SharedModule&#45;&gt;AppModule -->
<g id="edge4" class="edge">
<title>SharedModule&#45;&gt;AppModule</title>
<path fill="none" stroke="black" d="M333.81,-122.11C333.81,-122.11 333.81,-140.99 333.81,-140.99"/>
<polygon fill="black" stroke="black" points="330.31,-140.99 333.81,-150.99 337.31,-140.99 330.31,-140.99"/>
</g>
</g>
</svg>
