<?xml version="1.0" encoding="UTF-8" standalone="no"?>
<!DOCTYPE svg PUBLIC "-//W3C//DTD SVG 1.1//EN"
 "http://www.w3.org/Graphics/SVG/1.1/DTD/svg11.dtd">
<!-- Generated by graphviz version 2.46.0 (20210119.1425)
 -->
<!-- Title: dependencies Pages: 1 -->
<svg width="1158pt" height="284pt"
 viewBox="0.00 0.00 1158.00 284.00" xmlns="http://www.w3.org/2000/svg" xmlns:xlink="http://www.w3.org/1999/xlink">
<g id="graph0" class="graph" transform="scale(1 1) rotate(0) translate(4 280)">
<title>dependencies</title>
<polygon fill="white" stroke="transparent" points="-4,4 -4,-280 1154,-280 1154,4 -4,4"/>
<text text-anchor="start" x="554.01" y="-42.4" font-family="sans-serif" font-weight="bold" font-size="14.00">Legend</text>
<polygon fill="#ffffb3" stroke="transparent" points="341,-10 341,-30 361,-30 361,-10 341,-10"/>
<text text-anchor="start" x="364.63" y="-15.4" font-family="sans-serif" font-size="14.00"> &#160;Declarations</text>
<polygon fill="#8dd3c7" stroke="transparent" points="454,-10 454,-30 474,-30 474,-10 454,-10"/>
<text text-anchor="start" x="477.73" y="-15.4" font-family="sans-serif" font-size="14.00"> &#160;Module</text>
<polygon fill="#80b1d3" stroke="transparent" points="540,-10 540,-30 560,-30 560,-10 540,-10"/>
<text text-anchor="start" x="563.78" y="-15.4" font-family="sans-serif" font-size="14.00"> &#160;Bootstrap</text>
<polygon fill="#fdb462" stroke="transparent" points="637,-10 637,-30 657,-30 657,-10 637,-10"/>
<text text-anchor="start" x="660.67" y="-15.4" font-family="sans-serif" font-size="14.00"> &#160;Providers</text>
<polygon fill="#fb8072" stroke="transparent" points="733,-10 733,-30 753,-30 753,-10 733,-10"/>
<text text-anchor="start" x="756.73" y="-15.4" font-family="sans-serif" font-size="14.00"> &#160;Exports</text>
<g id="clust1" class="cluster">
<title>cluster_HotelInformationModule</title>
<polygon fill="none" stroke="black" stroke-dasharray="1,5" points="8,-70 8,-268 1142,-268 1142,-70 8,-70"/>
</g>
<g id="clust2" class="cluster">
<title>cluster_HotelInformationModule_declarations</title>
<polygon fill="none" stroke="black" points="359,-78 359,-130 1134,-130 1134,-78 359,-78"/>
</g>
<g id="clust9" class="cluster">
<title>cluster_HotelInformationModule_exports</title>
<polygon fill="none" stroke="black" points="475,-208 475,-260 697,-260 697,-208 475,-208"/>
</g>
<g id="clust8" class="cluster">
<title>cluster_HotelInformationModule_imports</title>
<polygon fill="none" stroke="black" points="16,-78 16,-130 351,-130 351,-78 16,-78"/>
</g>
<!-- FacilitiesComponent -->
<g id="node1" class="node">
<title>FacilitiesComponent</title>
<polygon fill="#ffffb3" stroke="black" points="1126.16,-122 993.84,-122 993.84,-86 1126.16,-86 1126.16,-122"/>
<text text-anchor="middle" x="1060" y="-99.8" font-family="Times,serif" font-size="14.00">FacilitiesComponent</text>
</g>
<!-- HotelInformationModule -->
<g id="node6" class="node">
<title>HotelInformationModule</title>
<polygon fill="#8dd3c7" stroke="black" points="664.52,-187 661.52,-191 640.52,-191 637.52,-187 507.48,-187 507.48,-151 664.52,-151 664.52,-187"/>
<text text-anchor="middle" x="586" y="-164.8" font-family="Times,serif" font-size="14.00">HotelInformationModule</text>
</g>
<!-- FacilitiesComponent&#45;&gt;HotelInformationModule -->
<g id="edge1" class="edge">
<title>FacilitiesComponent&#45;&gt;HotelInformationModule</title>
<path fill="none" stroke="black" d="M1060,-122.29C1060,-144.21 1060,-178 1060,-178 1060,-178 674.54,-178 674.54,-178"/>
<polygon fill="black" stroke="black" points="674.54,-174.5 664.54,-178 674.54,-181.5 674.54,-174.5"/>
</g>
<!-- FaqComponent -->
<g id="node2" class="node">
<title>FaqComponent</title>
<polygon fill="#ffffb3" stroke="black" points="976.33,-122 873.67,-122 873.67,-86 976.33,-86 976.33,-122"/>
<text text-anchor="middle" x="925" y="-99.8" font-family="Times,serif" font-size="14.00">FaqComponent</text>
</g>
<!-- FaqComponent&#45;&gt;HotelInformationModule -->
<g id="edge2" class="edge">
<title>FaqComponent&#45;&gt;HotelInformationModule</title>
<path fill="none" stroke="black" d="M925,-122.11C925,-141.34 925,-169 925,-169 925,-169 674.63,-169 674.63,-169"/>
<polygon fill="black" stroke="black" points="674.63,-165.5 664.63,-169 674.63,-172.5 674.63,-165.5"/>
</g>
<!-- HotelInformationComponent -->
<g id="node3" class="node">
<title>HotelInformationComponent</title>
<polygon fill="#ffffb3" stroke="black" points="855.8,-122 676.2,-122 676.2,-86 855.8,-86 855.8,-122"/>
<text text-anchor="middle" x="766" y="-99.8" font-family="Times,serif" font-size="14.00">HotelInformationComponent</text>
</g>
<!-- HotelInformationComponent&#45;&gt;HotelInformationModule -->
<g id="edge3" class="edge">
<title>HotelInformationComponent&#45;&gt;HotelInformationModule</title>
<path fill="none" stroke="black" d="M682.71,-122.03C682.71,-138.4 682.71,-160 682.71,-160 682.71,-160 674.97,-160 674.97,-160"/>
<polygon fill="black" stroke="black" points="674.97,-156.5 664.97,-160 674.97,-163.5 674.97,-156.5"/>
</g>
<!-- NavHeaderComponent -->
<g id="node4" class="node">
<title>NavHeaderComponent</title>
<polygon fill="#ffffb3" stroke="black" points="658.56,-122 513.44,-122 513.44,-86 658.56,-86 658.56,-122"/>
<text text-anchor="middle" x="586" y="-99.8" font-family="Times,serif" font-size="14.00">NavHeaderComponent</text>
</g>
<!-- NavHeaderComponent&#45;&gt;HotelInformationModule -->
<g id="edge4" class="edge">
<title>NavHeaderComponent&#45;&gt;HotelInformationModule</title>
<path fill="none" stroke="black" d="M586,-122.11C586,-122.11 586,-140.99 586,-140.99"/>
<polygon fill="black" stroke="black" points="582.5,-140.99 586,-150.99 589.5,-140.99 582.5,-140.99"/>
</g>
<!-- ServicesComponent -->
<g id="node5" class="node">
<title>ServicesComponent</title>
<polygon fill="#ffffb3" stroke="black" points="495.25,-122 366.75,-122 366.75,-86 495.25,-86 495.25,-122"/>
<text text-anchor="middle" x="431" y="-99.8" font-family="Times,serif" font-size="14.00">ServicesComponent</text>
</g>
<!-- ServicesComponent&#45;&gt;HotelInformationModule -->
<g id="edge5" class="edge">
<title>ServicesComponent&#45;&gt;HotelInformationModule</title>
<path fill="none" stroke="black" d="M489.15,-122.03C489.15,-138.4 489.15,-160 489.15,-160 489.15,-160 497.37,-160 497.37,-160"/>
<polygon fill="black" stroke="black" points="497.37,-163.5 507.37,-160 497.37,-156.5 497.37,-163.5"/>
</g>
<!-- HotelInformationRoutingModule  -->
<g id="node9" class="node">
<title>HotelInformationRoutingModule </title>
<polygon fill="#fb8072" stroke="black" points="689.14,-252 482.86,-252 482.86,-216 689.14,-216 689.14,-252"/>
<text text-anchor="middle" x="586" y="-229.8" font-family="Times,serif" font-size="14.00">HotelInformationRoutingModule </text>
</g>
<!-- HotelInformationModule&#45;&gt;HotelInformationRoutingModule  -->
<g id="edge8" class="edge">
<title>HotelInformationModule&#45;&gt;HotelInformationRoutingModule </title>
<path fill="none" stroke="black" stroke-dasharray="5,2" d="M586,-187.11C586,-187.11 586,-205.99 586,-205.99"/>
<polygon fill="black" stroke="black" points="582.5,-205.99 586,-215.99 589.5,-205.99 582.5,-205.99"/>
</g>
<!-- HotelInformationRoutingModule -->
<g id="node7" class="node">
<title>HotelInformationRoutingModule</title>
<polygon fill="#8dd3c7" stroke="black" points="343.14,-122 340.14,-126 319.14,-126 316.14,-122 140.86,-122 140.86,-86 343.14,-86 343.14,-122"/>
<text text-anchor="middle" x="242" y="-99.8" font-family="Times,serif" font-size="14.00">HotelInformationRoutingModule</text>
</g>
<!-- HotelInformationRoutingModule&#45;&gt;HotelInformationModule -->
<g id="edge6" class="edge">
<title>HotelInformationRoutingModule&#45;&gt;HotelInformationModule</title>
<path fill="none" stroke="black" d="M242,-122.11C242,-141.34 242,-169 242,-169 242,-169 497.08,-169 497.08,-169"/>
<polygon fill="black" stroke="black" points="497.08,-172.5 507.08,-169 497.08,-165.5 497.08,-172.5"/>
</g>
<!-- SharedModule -->
<g id="node8" class="node">
<title>SharedModule</title>
<polygon fill="#8dd3c7" stroke="black" points="122.42,-122 119.42,-126 98.42,-126 95.42,-122 23.58,-122 23.58,-86 122.42,-86 122.42,-122"/>
<text text-anchor="middle" x="73" y="-99.8" font-family="Times,serif" font-size="14.00">SharedModule</text>
</g>
<!-- SharedModule&#45;&gt;HotelInformationModule -->
<g id="edge7" class="edge">
<title>SharedModule&#45;&gt;HotelInformationModule</title>
<path fill="none" stroke="black" d="M73,-122.29C73,-144.21 73,-178 73,-178 73,-178 497.25,-178 497.25,-178"/>
<polygon fill="black" stroke="black" points="497.25,-181.5 507.25,-178 497.25,-174.5 497.25,-181.5"/>
</g>
</g>
</svg>
