<?xml version="1.0" encoding="UTF-8" standalone="no"?>
<!DOCTYPE svg PUBLIC "-//W3C//DTD SVG 1.1//EN"
 "http://www.w3.org/Graphics/SVG/1.1/DTD/svg11.dtd">
<!-- Generated by graphviz version 2.46.0 (20210119.1425)
 -->
<!-- Title: dependencies Pages: 1 -->
<svg width="798pt" height="284pt"
 viewBox="0.00 0.00 798.00 284.00" xmlns="http://www.w3.org/2000/svg" xmlns:xlink="http://www.w3.org/1999/xlink">
<g id="graph0" class="graph" transform="scale(1 1) rotate(0) translate(4 280)">
<title>dependencies</title>
<polygon fill="white" stroke="transparent" points="-4,4 -4,-280 794,-280 794,4 -4,4"/>
<text text-anchor="start" x="374.01" y="-42.4" font-family="sans-serif" font-weight="bold" font-size="14.00">Legend</text>
<polygon fill="#ffffb3" stroke="transparent" points="161,-10 161,-30 181,-30 181,-10 161,-10"/>
<text text-anchor="start" x="184.63" y="-15.4" font-family="sans-serif" font-size="14.00"> &#160;Declarations</text>
<polygon fill="#8dd3c7" stroke="transparent" points="274,-10 274,-30 294,-30 294,-10 274,-10"/>
<text text-anchor="start" x="297.73" y="-15.4" font-family="sans-serif" font-size="14.00"> &#160;Module</text>
<polygon fill="#80b1d3" stroke="transparent" points="360,-10 360,-30 380,-30 380,-10 360,-10"/>
<text text-anchor="start" x="383.78" y="-15.4" font-family="sans-serif" font-size="14.00"> &#160;Bootstrap</text>
<polygon fill="#fdb462" stroke="transparent" points="457,-10 457,-30 477,-30 477,-10 457,-10"/>
<text text-anchor="start" x="480.67" y="-15.4" font-family="sans-serif" font-size="14.00"> &#160;Providers</text>
<polygon fill="#fb8072" stroke="transparent" points="553,-10 553,-30 573,-30 573,-10 553,-10"/>
<text text-anchor="start" x="576.73" y="-15.4" font-family="sans-serif" font-size="14.00"> &#160;Exports</text>
<g id="clust1" class="cluster">
<title>cluster_HotelInformationModule</title>
<polygon fill="none" stroke="black" stroke-dasharray="1,5" points="8,-70 8,-268 782,-268 782,-70 8,-70"/>
</g>
<g id="clust7" class="cluster">
<title>cluster_HotelInformationModule_exports</title>
<polygon fill="none" stroke="black" points="246,-208 246,-260 468,-260 468,-208 246,-208"/>
</g>
<g id="clust6" class="cluster">
<title>cluster_HotelInformationModule_imports</title>
<polygon fill="none" stroke="black" points="439,-78 439,-130 774,-130 774,-78 439,-78"/>
</g>
<g id="clust2" class="cluster">
<title>cluster_HotelInformationModule_declarations</title>
<polygon fill="none" stroke="black" points="16,-78 16,-130 431,-130 431,-78 16,-78"/>
</g>
<!-- FacilitiesComponent -->
<g id="node1" class="node">
<title>FacilitiesComponent</title>
<polygon fill="#ffffb3" stroke="black" points="423.16,-122 290.84,-122 290.84,-86 423.16,-86 423.16,-122"/>
<text text-anchor="middle" x="357" y="-99.8" font-family="Times,serif" font-size="14.00">FacilitiesComponent</text>
</g>
<!-- HotelInformationModule -->
<g id="node4" class="node">
<title>HotelInformationModule</title>
<polygon fill="#8dd3c7" stroke="black" points="435.52,-187 432.52,-191 411.52,-191 408.52,-187 278.48,-187 278.48,-151 435.52,-151 435.52,-187"/>
<text text-anchor="middle" x="357" y="-164.8" font-family="Times,serif" font-size="14.00">HotelInformationModule</text>
</g>
<!-- FacilitiesComponent&#45;&gt;HotelInformationModule -->
<g id="edge1" class="edge">
<title>FacilitiesComponent&#45;&gt;HotelInformationModule</title>
<path fill="none" stroke="black" d="M357,-122.11C357,-122.11 357,-140.99 357,-140.99"/>
<polygon fill="black" stroke="black" points="353.5,-140.99 357,-150.99 360.5,-140.99 353.5,-140.99"/>
</g>
<!-- FaqComponent -->
<g id="node2" class="node">
<title>FaqComponent</title>
<polygon fill="#ffffb3" stroke="black" points="273.33,-122 170.67,-122 170.67,-86 273.33,-86 273.33,-122"/>
<text text-anchor="middle" x="222" y="-99.8" font-family="Times,serif" font-size="14.00">FaqComponent</text>
</g>
<!-- FaqComponent&#45;&gt;HotelInformationModule -->
<g id="edge2" class="edge">
<title>FaqComponent&#45;&gt;HotelInformationModule</title>
<path fill="none" stroke="black" d="M273.29,-104C279.92,-104 284.46,-104 284.46,-104 284.46,-104 284.46,-140.89 284.46,-140.89"/>
<polygon fill="black" stroke="black" points="280.96,-140.89 284.46,-150.89 287.96,-140.89 280.96,-140.89"/>
</g>
<!-- ServicesComponent -->
<g id="node3" class="node">
<title>ServicesComponent</title>
<polygon fill="#ffffb3" stroke="black" points="152.25,-122 23.75,-122 23.75,-86 152.25,-86 152.25,-122"/>
<text text-anchor="middle" x="88" y="-99.8" font-family="Times,serif" font-size="14.00">ServicesComponent</text>
</g>
<!-- ServicesComponent&#45;&gt;HotelInformationModule -->
<g id="edge3" class="edge">
<title>ServicesComponent&#45;&gt;HotelInformationModule</title>
<path fill="none" stroke="black" d="M88,-122.11C88,-141.34 88,-169 88,-169 88,-169 268.47,-169 268.47,-169"/>
<polygon fill="black" stroke="black" points="268.47,-172.5 278.47,-169 268.47,-165.5 268.47,-172.5"/>
</g>
<!-- HotelInformationRoutingModule  -->
<g id="node7" class="node">
<title>HotelInformationRoutingModule </title>
<polygon fill="#fb8072" stroke="black" points="460.14,-252 253.86,-252 253.86,-216 460.14,-216 460.14,-252"/>
<text text-anchor="middle" x="357" y="-229.8" font-family="Times,serif" font-size="14.00">HotelInformationRoutingModule </text>
</g>
<!-- HotelInformationModule&#45;&gt;HotelInformationRoutingModule  -->
<g id="edge6" class="edge">
<title>HotelInformationModule&#45;&gt;HotelInformationRoutingModule </title>
<path fill="none" stroke="black" stroke-dasharray="5,2" d="M357,-187.11C357,-187.11 357,-205.99 357,-205.99"/>
<polygon fill="black" stroke="black" points="353.5,-205.99 357,-215.99 360.5,-205.99 353.5,-205.99"/>
</g>
<!-- HotelInformationRoutingModule -->
<g id="node5" class="node">
<title>HotelInformationRoutingModule</title>
<polygon fill="#8dd3c7" stroke="black" points="766.14,-122 763.14,-126 742.14,-126 739.14,-122 563.86,-122 563.86,-86 766.14,-86 766.14,-122"/>
<text text-anchor="middle" x="665" y="-99.8" font-family="Times,serif" font-size="14.00">HotelInformationRoutingModule</text>
</g>
<!-- HotelInformationRoutingModule&#45;&gt;HotelInformationModule -->
<g id="edge4" class="edge">
<title>HotelInformationRoutingModule&#45;&gt;HotelInformationModule</title>
<path fill="none" stroke="black" d="M665,-122.28C665,-143.32 665,-175 665,-175 665,-175 445.92,-175 445.92,-175"/>
<polygon fill="black" stroke="black" points="445.92,-171.5 435.92,-175 445.92,-178.5 445.92,-171.5"/>
</g>
<!-- SharedModule -->
<g id="node6" class="node">
<title>SharedModule</title>
<polygon fill="#8dd3c7" stroke="black" points="545.42,-122 542.42,-126 521.42,-126 518.42,-122 446.58,-122 446.58,-86 545.42,-86 545.42,-122"/>
<text text-anchor="middle" x="496" y="-99.8" font-family="Times,serif" font-size="14.00">SharedModule</text>
</g>
<!-- SharedModule&#45;&gt;HotelInformationModule -->
<g id="edge5" class="edge">
<title>SharedModule&#45;&gt;HotelInformationModule</title>
<path fill="none" stroke="black" d="M453.43,-122.02C453.43,-139.37 453.43,-163 453.43,-163 453.43,-163 445.74,-163 445.74,-163"/>
<polygon fill="black" stroke="black" points="445.74,-159.5 435.74,-163 445.74,-166.5 445.74,-159.5"/>
</g>
</g>
</svg>
