<?xml version="1.0" encoding="utf-8"?>
<svg version="1.1" xmlns:xlink="http://www.w3.org/1999/xlink" width="39px" height="37px" xmlns="http://www.w3.org/2000/svg">
  <g transform="matrix(1 0 0 1 -229 -766 )">
    <path d="M 31.94140625 28.0872395833333  C 32.3138020833333 27.2361111111111  32.5 26.4251302083333  32.5 25.654296875  C 32.5 25.4776475694444  32.4830729166667 25.3491753472222  32.44921875 25.2688802083333  C 32.4153645833333 25.1885850694444  32.2630208333333 25.0560980902778  31.9921875 24.8714192708333  C 31.7213541666667 24.6867404513889  31.3785807291667 24.4860026041667  30.9638671875 24.2692057291667  C 30.5491536458333 24.0524088541667  30.1471354166667 23.8396267361111  29.7578125 23.630859375  C 29.3684895833333 23.4220920138889  28.9833984375 23.2213541666667  28.6025390625 23.0286458333333  C 28.2216796875 22.8359375  27.98046875 22.7154947916667  27.87890625 22.6673177083333  C 27.7942708333333 22.619140625  27.6334635416667 22.5147569444444  27.396484375 22.3541666666667  C 27.1595052083333 22.1935763888889  26.9479166666667 22.0731336805556  26.76171875 21.9928385416667  C 26.5755208333333 21.9125434027778  26.3977864583333 21.8723958333333  26.228515625 21.8723958333333  C 25.974609375 21.8723958333333  25.6656901041667 22.0370008680556  25.3017578125 22.3662109375  C 24.9378255208333 22.6954210069444  24.603515625 23.0567491319444  24.298828125 23.4501953125  C 23.994140625 23.8436414930556  23.6682942708333 24.2049696180556  23.3212890625 24.5341796875  C 22.9742838541667 24.8633897569444  22.6907552083333 25.0279947916667  22.470703125 25.0279947916667  C 22.3522135416667 25.0279947916667  22.2125651041667 24.9998914930556  22.0517578125 24.9436848958333  C 21.8909505208333 24.8874782986111  21.759765625 24.8352864583333  21.658203125 24.787109375  C 21.556640625 24.7389322916667  21.4127604166667 24.6626519097222  21.2265625 24.5582682291667  C 21.0403645833333 24.4538845486111  20.921875 24.3856336805556  20.87109375 24.353515625  C 19.1953125 23.4702690972222  17.7565104166667 22.4545355902778  16.5546875 21.3063151041667  C 15.3528645833333 20.1580946180556  14.2779947916667 18.7890625  13.330078125 17.19921875  C 13.2962239583333 17.1510416666667  13.2242838541667 17.0386284722222  13.1142578125 16.8619791666667  C 13.0042317708333 16.6853298611111  12.923828125 16.548828125  12.873046875 16.4524739583333  C 12.822265625 16.3561197916667  12.7672526041667 16.2316623263889  12.7080078125 16.0791015625  C 12.6487630208333 15.9265407986111  12.619140625 15.7940538194444  12.619140625 15.681640625  C 12.619140625 15.4728732638889  12.7926432291667 15.2038845486111  13.1396484375 14.8746744791667  C 13.4866536458333 14.5454644097222  13.8675130208333 14.236328125  14.2822265625 13.947265625  C 14.6969401041667 13.658203125  15.0777994791667 13.3410373263889  15.4248046875 12.9957682291667  C 15.7718098958333 12.6504991319444  15.9453125 12.357421875  15.9453125 12.1165364583333  C 15.9453125 11.9559461805556  15.9029947916667 11.7873263888889  15.818359375 11.6106770833333  C 15.7337239583333 11.4340277777778  15.6067708333333 11.2332899305556  15.4375 11.0084635416667  C 15.2682291666667 10.7836371527778  15.158203125 10.6310763888889  15.107421875 10.55078125  C 15.056640625 10.4544270833333  14.9296875 10.2255859375  14.7265625 9.8642578125  C 14.5234375 9.5029296875  14.3118489583333 9.13758680555555  14.091796875 8.76822916666667  C 13.8717447916667 8.39887152777778  13.6474609375 8.01746961805555  13.4189453125 7.6240234375  C 13.1904296875 7.23057725694444  12.9788411458333 6.90538194444444  12.7841796875 6.6484375  C 12.5895182291667 6.39149305555555  12.4498697916667 6.24696180555555  12.365234375 6.21484375  C 12.2805989583333 6.18272569444444  12.1451822916667 6.16666666666667  11.958984375 6.16666666666667  C 11.146484375 6.16666666666667  10.2916666666667 6.34331597222222  9.39453125 6.69661458333333  C 8.61588541666667 7.03385416666667  7.93880208333333 7.79264322916667  7.36328125 8.97298177083333  C 6.78776041666667 10.1533203125  6.5 11.201171875  6.5 12.1165364583333  C 6.5 12.3734809027778  6.52115885416667 12.646484375  6.5634765625 12.935546875  C 6.60579427083333 13.224609375  6.64811197916667 13.4695095486111  6.6904296875 13.6702473958333  C 6.73274739583333 13.8709852430556  6.80891927083333 14.1359592013889  6.9189453125 14.4651692708333  C 7.02897135416667 14.7943793402778  7.11360677083333 15.03125  7.1728515625 15.17578125  C 7.23209635416667 15.3203125  7.337890625 15.5852864583333  7.490234375 15.970703125  C 7.642578125 16.3561197916667  7.73567708333333 16.5970052083333  7.76953125 16.693359375  C 8.78515625 19.3270399305556  10.6175130208333 21.9004991319444  13.2666015625 24.4137369791667  C 15.9156901041667 26.9269748263889  18.6282552083333 28.6653645833333  21.404296875 29.62890625  C 21.505859375 29.6610243055556  21.759765625 29.7493489583333  22.166015625 29.8938802083333  C 22.572265625 30.0384114583333  22.8515625 30.1387803819444  23.00390625 30.1949869791667  C 23.15625 30.2511935763889  23.4059244791667 30.3314887152778  23.7529296875 30.4358723958333  C 24.0999348958333 30.5402560763889  24.3792317708333 30.6125217013889  24.5908203125 30.6526692708333  C 24.8024088541667 30.6928168402778  25.060546875 30.7329644097222  25.365234375 30.7731119791667  C 25.669921875 30.8132595486111  25.9576822916667 30.8333333333333  26.228515625 30.8333333333333  C 27.193359375 30.8333333333333  28.2978515625 30.5603298611111  29.5419921875 30.0143229166667  C 30.7861328125 29.4683159722222  31.5859375 28.8259548611111  31.94140625 28.0872395833333  Z M 36.8544921875 2.03548177083333  C 38.2848307291667 3.39246961805555  39 5.02647569444444  39 6.9375  L 39 30.0625  C 39 31.9735243055556  38.2848307291667 33.6075303819445  36.8544921875 34.9645182291667  C 35.4241536458333 36.3215060763889  33.7018229166667 37  31.6875 37  L 7.3125 37  C 5.29817708333333 37  3.57584635416667 36.3215060763889  2.1455078125 34.9645182291667  C 0.715169270833333 33.6075303819445  0 31.9735243055556  0 30.0625  L 0 6.9375  C 0 5.02647569444444  0.715169270833333 3.39246961805555  2.1455078125 2.03548177083333  C 3.57584635416667 0.678493923611109  5.29817708333333 0  7.3125 0  L 31.6875 0  C 33.7018229166667 0  35.4241536458333 0.678493923611109  36.8544921875 2.03548177083333  Z " fill-rule="nonzero" fill="#000000" stroke="none" transform="matrix(1 0 0 1 229 766 )" />
  </g>
</svg>