<?xml version="1.0" encoding="utf-8"?>
<svg version="1.1" xmlns:xlink="http://www.w3.org/1999/xlink" width="39px" height="37px" xmlns="http://www.w3.org/2000/svg">
  <g transform="matrix(1 0 0 1 -278 -766 )">
    <path d="M 7.3125 0  L 31.6875 0  C 33.7018229166667 0  35.4241536458333 0.678493923611109  36.8544921875 2.03548177083333  C 38.2848307291667 3.39246961805555  39 5.02647569444444  39 6.9375  L 39 30.0625  C 39 31.9735243055556  38.2848307291667 33.6075303819445  36.8544921875 34.9645182291667  C 35.4241536458333 36.3215060763889  33.7018229166667 37  31.6875 37  L 7.3125 37  C 5.29817708333333 37  3.57584635416667 36.3215060763889  2.1455078125 34.9645182291667  C 0.715169270833333 33.6075303819445  0 31.9735243055556  0 30.0625  L 0 6.9375  C 0 5.02647569444444  0.715169270833333 3.39246961805555  2.1455078125 2.03548177083333  C 3.57584635416667 0.678493923611109  5.29817708333333 0  7.3125 0  Z M 31.7890625 27.0755208333333  C 32.2630208333333 26.6258680555556  32.5 26.0798611111111  32 25.4375  L 32 14.9348958333333  C 31.9752604166667 15.4969618055556  31.43359375 15.9385850694444  30.875 16.259765625  C 30.2994791666667 16.6130642361111  29.1780598958333 17.2955729166667  27.5107421875 18.3072916666667  C 25.8434244791667 19.3190104166667  24.5611979166667 20.1139322916667  23.6640625 20.6920572916667  C 22.0052083333333 21.8001302083333  20.6171875 22.3541666666667  19.5 22.3541666666667  C 18.3828125 22.3541666666667  16.9947916666667 21.8001302083333  15.3359375 20.6920572916667  C 14.5403645833333 20.1781684027778  13.3385416666667 19.4354383680556  11.73046875 18.4638671875  C 10.1223958333333 17.4922960069444  8.92057291666667 16.7495659722222  8.125 16.2356770833333  C 7.921875 16.1072048611111  7.642578125 15.8904079861111  7.287109375 15.5852864583333  C 6.931640625 15.2801649305556  6.66927083333333 15.0633680555556  7 14.9348958333333  L 7 25.4375  C 6.5 26.0798611111111  6.73697916666667 26.6258680555556  7.2109375 27.0755208333333  C 7.68489583333333 27.5251736111111  8.26041666666667 27.75  8.9375 27.75  L 30.0625 27.75  C 30.7395833333333 27.75  31.3151041666667 27.5251736111111  31.7890625 27.0755208333333  Z M 31.7001953125 13.4052734375  C 32.2333984375 12.7709418402778  32.5 12.1807725694444  32.5 11.634765625  C 32.5 10.9763454861111  32.2672526041667 10.4142795138889  31.8017578125 9.94856770833333  C 31.3362630208333 9.48285590277778  30.7565104166667 9.25  30.0625 9.25  L 8.9375 9.25  C 8.26041666666667 9.25  7.68489583333333 9.47482638888889  7.2109375 9.92447916666667  C 6.73697916666667 10.3741319444444  6.5 10.9201388888889  6.5 11.5625  C 6.5 12.1566840277778  6.75813802083333 12.7709418402778  7.2744140625 13.4052734375  C 7.79069010416667 14.0396050347222  8.36197916666667 14.5575086805556  8.98828125 14.958984375  C 9.78385416666667 15.4728732638889  10.9475911458333 16.1875  12.4794921875 17.1028645833333  C 14.0113932291667 18.0182291666667  15.107421875 18.6846788194444  15.767578125 19.1022135416667  C 15.818359375 19.1343315972222  15.9622395833333 19.2266710069444  16.19921875 19.3792317708333  C 16.4361979166667 19.5317925347222  16.6139322916667 19.6442057291667  16.732421875 19.7164713541667  C 16.8509114583333 19.7887369791667  17.0286458333333 19.8931206597222  17.265625 20.0296223958333  C 17.5026041666667 20.1661241319444  17.7014973958333 20.2705078125  17.8623046875 20.3427734375  C 18.0231119791667 20.4150390625  18.205078125 20.4913194444444  18.408203125 20.5716145833333  C 18.611328125 20.6519097222222  18.8017578125 20.7121310763889  18.9794921875 20.7522786458333  C 19.1572265625 20.7924262152778  19.3307291666667 20.8125  19.5 20.8125  C 19.6692708333333 20.8125  19.8427734375 20.7924262152778  20.0205078125 20.7522786458333  C 20.1982421875 20.7121310763889  20.388671875 20.6519097222222  20.591796875 20.5716145833333  C 20.794921875 20.4913194444444  20.9768880208333 20.4150390625  21.1376953125 20.3427734375  C 21.2985026041667 20.2705078125  21.4973958333333 20.1661241319444  21.734375 20.0296223958333  C 21.9713541666667 19.8931206597222  22.1490885416667 19.7887369791667  22.267578125 19.7164713541667  C 22.3860677083333 19.6442057291667  22.5638020833333 19.5317925347222  22.80078125 19.3792317708333  C 23.0377604166667 19.2266710069444  23.181640625 19.1343315972222  23.232421875 19.1022135416667  L 30.01171875 14.9108072916667  C 30.6041666666667 14.5414496527778  31.1669921875 14.0396050347222  31.7001953125 13.4052734375  Z " fill-rule="nonzero" fill="#000000" stroke="none" transform="matrix(1 0 0 1 278 766 )" />
  </g>
</svg>