<?xml version="1.0" encoding="utf-8"?>
<svg version="1.1" xmlns:xlink="http://www.w3.org/1999/xlink" width="39px" height="37px" xmlns="http://www.w3.org/2000/svg">
  <g transform="matrix(1 0 0 1 -327 -766 )">
    <path d="M 7.3125 0  L 31.6875 0  C 33.7018229166667 0  35.4241536458333 0.678493923611109  36.8544921875 2.03548177083333  C 38.2848307291667 3.39246961805555  39 5.02647569444444  39 6.9375  L 39 30.0625  C 39 31.9735243055556  38.2848307291667 33.6075303819445  36.8544921875 34.9645182291667  C 35.4241536458333 36.3215060763889  33.7018229166667 37  31.6875 37  L 27 37  L 27 22.6673177083333  L 31.966796875 22.6673177083333  L 32.728515625 17.0787760416667  L 26.9140625 17.0787760416667  L 26.9140625 13.513671875  C 26.9140625 12.6143663194444  27.1129557291667 11.9398871527778  27.5107421875 11.490234375  C 27.9085286458333 11.0405815972222  28.6829427083333 10.8157552083333  29.833984375 10.8157552083333  L 32.931640625 10.7916666666667  L 32.931640625 5.80533854166667  C 31.865234375 5.66080729166667  30.3587239583333 5.58854166666667  28.412109375 5.58854166666667  C 26.1100260416667 5.58854166666667  24.2692057291667 6.23090277777777  22.8896484375 7.515625  C 21.5100911458333 8.80034722222222  20.8203125 10.6150173611111  20.8203125 12.9596354166667  L 20.8203125 17.0787760416667  L 15.7421875 17.0787760416667  L 15.7421875 22.6673177083333  L 20.8203125 22.6673177083333  L 20.8203125 37  L 7.3125 37  C 5.29817708333333 37  3.57584635416667 36.3215060763889  2.1455078125 34.9645182291667  C 0.715169270833333 33.6075303819445  0 31.9735243055556  0 30.0625  L 0 6.9375  C 0 5.02647569444444  0.715169270833333 3.39246961805555  2.1455078125 2.03548177083333  C 3.57584635416667 0.678493923611109  5.29817708333333 0  7.3125 0  Z " fill-rule="nonzero" fill="#000000" stroke="none" transform="matrix(1 0 0 1 327 766 )" />
  </g>
</svg>