<?xml version="1.0" encoding="UTF-8" standalone="no"?>
<!DOCTYPE svg PUBLIC "-//W3C//DTD SVG 1.1//EN"
 "http://www.w3.org/Graphics/SVG/1.1/DTD/svg11.dtd">
<!-- Generated by graphviz version 2.46.0 (20210119.1425)
 -->
<!-- Title: dependencies Pages: 1 -->
<svg width="1704pt" height="211pt"
 viewBox="0.00 0.00 1704.00 211.00" xmlns="http://www.w3.org/2000/svg" xmlns:xlink="http://www.w3.org/1999/xlink">
<g id="graph0" class="graph" transform="scale(1 1) rotate(0) translate(4 207)">
<title>dependencies</title>
<polygon fill="white" stroke="transparent" points="-4,4 -4,-207 1700,-207 1700,4 -4,4"/>
<text text-anchor="start" x="827.01" y="-42.4" font-family="sans-serif" font-weight="bold" font-size="14.00">Legend</text>
<polygon fill="#ffffb3" stroke="transparent" points="614,-10 614,-30 634,-30 634,-10 614,-10"/>
<text text-anchor="start" x="637.63" y="-15.4" font-family="sans-serif" font-size="14.00"> &#160;Declarations</text>
<polygon fill="#8dd3c7" stroke="transparent" points="727,-10 727,-30 747,-30 747,-10 727,-10"/>
<text text-anchor="start" x="750.73" y="-15.4" font-family="sans-serif" font-size="14.00"> &#160;Module</text>
<polygon fill="#80b1d3" stroke="transparent" points="813,-10 813,-30 833,-30 833,-10 813,-10"/>
<text text-anchor="start" x="836.78" y="-15.4" font-family="sans-serif" font-size="14.00"> &#160;Bootstrap</text>
<polygon fill="#fdb462" stroke="transparent" points="910,-10 910,-30 930,-30 930,-10 910,-10"/>
<text text-anchor="start" x="933.67" y="-15.4" font-family="sans-serif" font-size="14.00"> &#160;Providers</text>
<polygon fill="#fb8072" stroke="transparent" points="1006,-10 1006,-30 1026,-30 1026,-10 1006,-10"/>
<text text-anchor="start" x="1029.73" y="-15.4" font-family="sans-serif" font-size="14.00"> &#160;Exports</text>
<g id="clust1" class="cluster">
<title>cluster_SelfServiceModule</title>
<polygon fill="none" stroke="black" stroke-dasharray="1,5" points="8,-70 8,-195 1688,-195 1688,-70 8,-70"/>
</g>
<g id="clust12" class="cluster">
<title>cluster_SelfServiceModule_imports</title>
<polygon fill="none" stroke="black" points="1378,-78 1378,-130 1680,-130 1680,-78 1378,-78"/>
</g>
<g id="clust2" class="cluster">
<title>cluster_SelfServiceModule_declarations</title>
<polygon fill="none" stroke="black" points="16,-78 16,-130 1370,-130 1370,-78 16,-78"/>
</g>
<!-- ConfirmDialogComponent -->
<g id="node1" class="node">
<title>ConfirmDialogComponent</title>
<polygon fill="#ffffb3" stroke="black" points="1362.37,-122 1195.63,-122 1195.63,-86 1362.37,-86 1362.37,-122"/>
<text text-anchor="middle" x="1279" y="-99.8" font-family="Times,serif" font-size="14.00">ConfirmDialogComponent</text>
</g>
<!-- SelfServiceModule -->
<g id="node10" class="node">
<title>SelfServiceModule</title>
<polygon fill="#8dd3c7" stroke="black" points="891.08,-187 888.08,-191 867.08,-191 864.08,-187 766.92,-187 766.92,-151 891.08,-151 891.08,-187"/>
<text text-anchor="middle" x="829" y="-164.8" font-family="Times,serif" font-size="14.00">SelfServiceModule</text>
</g>
<!-- ConfirmDialogComponent&#45;&gt;SelfServiceModule -->
<g id="edge1" class="edge">
<title>ConfirmDialogComponent&#45;&gt;SelfServiceModule</title>
<path fill="none" stroke="black" d="M1279,-122.11C1279,-141.34 1279,-169 1279,-169 1279,-169 901.1,-169 901.1,-169"/>
<polygon fill="black" stroke="black" points="901.1,-165.5 891.1,-169 901.1,-172.5 901.1,-165.5"/>
</g>
<!-- LoginComponent -->
<g id="node2" class="node">
<title>LoginComponent</title>
<polygon fill="#ffffb3" stroke="black" points="1177.28,-122 1062.72,-122 1062.72,-86 1177.28,-86 1177.28,-122"/>
<text text-anchor="middle" x="1120" y="-99.8" font-family="Times,serif" font-size="14.00">LoginComponent</text>
</g>
<!-- LoginComponent&#45;&gt;SelfServiceModule -->
<g id="edge2" class="edge">
<title>LoginComponent&#45;&gt;SelfServiceModule</title>
<path fill="none" stroke="black" d="M1120,-122.02C1120,-139.37 1120,-163 1120,-163 1120,-163 901.07,-163 901.07,-163"/>
<polygon fill="black" stroke="black" points="901.07,-159.5 891.07,-163 901.07,-166.5 901.07,-159.5"/>
</g>
<!-- StepFiveComponent -->
<g id="node3" class="node">
<title>StepFiveComponent</title>
<polygon fill="#ffffb3" stroke="black" points="1044.61,-122 913.39,-122 913.39,-86 1044.61,-86 1044.61,-122"/>
<text text-anchor="middle" x="979" y="-99.8" font-family="Times,serif" font-size="14.00">StepFiveComponent</text>
</g>
<!-- StepFiveComponent&#45;&gt;SelfServiceModule -->
<g id="edge3" class="edge">
<title>StepFiveComponent&#45;&gt;SelfServiceModule</title>
<path fill="none" stroke="black" d="M979,-122.24C979,-137.57 979,-157 979,-157 979,-157 901.31,-157 901.31,-157"/>
<polygon fill="black" stroke="black" points="901.31,-153.5 891.31,-157 901.31,-160.5 901.31,-153.5"/>
</g>
<!-- StepFourComponent -->
<g id="node4" class="node">
<title>StepFourComponent</title>
<polygon fill="#ffffb3" stroke="black" points="895.16,-122 762.84,-122 762.84,-86 895.16,-86 895.16,-122"/>
<text text-anchor="middle" x="829" y="-99.8" font-family="Times,serif" font-size="14.00">StepFourComponent</text>
</g>
<!-- StepFourComponent&#45;&gt;SelfServiceModule -->
<g id="edge4" class="edge">
<title>StepFourComponent&#45;&gt;SelfServiceModule</title>
<path fill="none" stroke="black" d="M829,-122.11C829,-122.11 829,-140.99 829,-140.99"/>
<polygon fill="black" stroke="black" points="825.5,-140.99 829,-150.99 832.5,-140.99 825.5,-140.99"/>
</g>
<!-- StepOneComponent -->
<g id="node5" class="node">
<title>StepOneComponent</title>
<polygon fill="#ffffb3" stroke="black" points="744.54,-122 615.46,-122 615.46,-86 744.54,-86 744.54,-122"/>
<text text-anchor="middle" x="680" y="-99.8" font-family="Times,serif" font-size="14.00">StepOneComponent</text>
</g>
<!-- StepOneComponent&#45;&gt;SelfServiceModule -->
<g id="edge5" class="edge">
<title>StepOneComponent&#45;&gt;SelfServiceModule</title>
<path fill="none" stroke="black" d="M680,-122.24C680,-137.57 680,-157 680,-157 680,-157 756.67,-157 756.67,-157"/>
<polygon fill="black" stroke="black" points="756.67,-160.5 766.67,-157 756.67,-153.5 756.67,-160.5"/>
</g>
<!-- StepSixComponent -->
<g id="node6" class="node">
<title>StepSixComponent</title>
<polygon fill="#ffffb3" stroke="black" points="597.39,-122 472.61,-122 472.61,-86 597.39,-86 597.39,-122"/>
<text text-anchor="middle" x="535" y="-99.8" font-family="Times,serif" font-size="14.00">StepSixComponent</text>
</g>
<!-- StepSixComponent&#45;&gt;SelfServiceModule -->
<g id="edge6" class="edge">
<title>StepSixComponent&#45;&gt;SelfServiceModule</title>
<path fill="none" stroke="black" d="M535,-122.02C535,-139.37 535,-163 535,-163 535,-163 756.65,-163 756.65,-163"/>
<polygon fill="black" stroke="black" points="756.65,-166.5 766.65,-163 756.65,-159.5 756.65,-166.5"/>
</g>
<!-- StepThreeComponent -->
<g id="node7" class="node">
<title>StepThreeComponent</title>
<polygon fill="#ffffb3" stroke="black" points="454.36,-122 315.64,-122 315.64,-86 454.36,-86 454.36,-122"/>
<text text-anchor="middle" x="385" y="-99.8" font-family="Times,serif" font-size="14.00">StepThreeComponent</text>
</g>
<!-- StepThreeComponent&#45;&gt;SelfServiceModule -->
<g id="edge7" class="edge">
<title>StepThreeComponent&#45;&gt;SelfServiceModule</title>
<path fill="none" stroke="black" d="M385,-122.11C385,-141.34 385,-169 385,-169 385,-169 756.8,-169 756.8,-169"/>
<polygon fill="black" stroke="black" points="756.8,-172.5 766.8,-169 756.8,-165.5 756.8,-172.5"/>
</g>
<!-- StepTwoComponent -->
<g id="node8" class="node">
<title>StepTwoComponent</title>
<polygon fill="#ffffb3" stroke="black" points="297.88,-122 166.12,-122 166.12,-86 297.88,-86 297.88,-122"/>
<text text-anchor="middle" x="232" y="-99.8" font-family="Times,serif" font-size="14.00">StepTwoComponent</text>
</g>
<!-- StepTwoComponent&#45;&gt;SelfServiceModule -->
<g id="edge8" class="edge">
<title>StepTwoComponent&#45;&gt;SelfServiceModule</title>
<path fill="none" stroke="black" d="M232,-122.28C232,-143.32 232,-175 232,-175 232,-175 756.8,-175 756.8,-175"/>
<polygon fill="black" stroke="black" points="756.8,-178.5 766.8,-175 756.8,-171.5 756.8,-178.5"/>
</g>
<!-- StepperComponent -->
<g id="node9" class="node">
<title>StepperComponent</title>
<polygon fill="#ffffb3" stroke="black" points="148.1,-122 23.9,-122 23.9,-86 148.1,-86 148.1,-122"/>
<text text-anchor="middle" x="86" y="-99.8" font-family="Times,serif" font-size="14.00">StepperComponent</text>
</g>
<!-- StepperComponent&#45;&gt;SelfServiceModule -->
<g id="edge9" class="edge">
<title>StepperComponent&#45;&gt;SelfServiceModule</title>
<path fill="none" stroke="black" d="M86,-122.09C86,-145.13 86,-182 86,-182 86,-182 756.93,-182 756.93,-182"/>
<polygon fill="black" stroke="black" points="756.93,-185.5 766.93,-182 756.93,-178.5 756.93,-185.5"/>
</g>
<!-- SelfServiceRoutingModule -->
<g id="node11" class="node">
<title>SelfServiceRoutingModule</title>
<polygon fill="#8dd3c7" stroke="black" points="1671.69,-122 1668.69,-126 1647.69,-126 1644.69,-122 1502.31,-122 1502.31,-86 1671.69,-86 1671.69,-122"/>
<text text-anchor="middle" x="1587" y="-99.8" font-family="Times,serif" font-size="14.00">SelfServiceRoutingModule</text>
</g>
<!-- SelfServiceRoutingModule&#45;&gt;SelfServiceModule -->
<g id="edge10" class="edge">
<title>SelfServiceRoutingModule&#45;&gt;SelfServiceModule</title>
<path fill="none" stroke="black" d="M1587,-122.09C1587,-145.13 1587,-182 1587,-182 1587,-182 901.35,-182 901.35,-182"/>
<polygon fill="black" stroke="black" points="901.35,-178.5 891.35,-182 901.35,-185.5 901.35,-178.5"/>
</g>
<!-- SharedModule -->
<g id="node12" class="node">
<title>SharedModule</title>
<polygon fill="#8dd3c7" stroke="black" points="1484.42,-122 1481.42,-126 1460.42,-126 1457.42,-122 1385.58,-122 1385.58,-86 1484.42,-86 1484.42,-122"/>
<text text-anchor="middle" x="1435" y="-99.8" font-family="Times,serif" font-size="14.00">SharedModule</text>
</g>
<!-- SharedModule&#45;&gt;SelfServiceModule -->
<g id="edge11" class="edge">
<title>SharedModule&#45;&gt;SelfServiceModule</title>
<path fill="none" stroke="black" d="M1435,-122.28C1435,-143.32 1435,-175 1435,-175 1435,-175 901.29,-175 901.29,-175"/>
<polygon fill="black" stroke="black" points="901.29,-171.5 891.29,-175 901.29,-178.5 901.29,-171.5"/>
</g>
</g>
</svg>
