<?xml version="1.0" encoding="UTF-8" standalone="no"?>
<!DOCTYPE svg PUBLIC "-//W3C//DTD SVG 1.1//EN"
 "http://www.w3.org/Graphics/SVG/1.1/DTD/svg11.dtd">
<!-- Generated by graphviz version 2.46.0 (20210119.1425)
 -->
<!-- Title: dependencies Pages: 1 -->
<svg width="1519pt" height="211pt"
 viewBox="0.00 0.00 1519.00 211.00" xmlns="http://www.w3.org/2000/svg" xmlns:xlink="http://www.w3.org/1999/xlink">
<g id="graph0" class="graph" transform="scale(1 1) rotate(0) translate(4 207)">
<title>dependencies</title>
<polygon fill="white" stroke="transparent" points="-4,4 -4,-207 1515,-207 1515,4 -4,4"/>
<text text-anchor="start" x="734.51" y="-42.4" font-family="sans-serif" font-weight="bold" font-size="14.00">Legend</text>
<polygon fill="#ffffb3" stroke="transparent" points="521.5,-10 521.5,-30 541.5,-30 541.5,-10 521.5,-10"/>
<text text-anchor="start" x="545.13" y="-15.4" font-family="sans-serif" font-size="14.00"> &#160;Declarations</text>
<polygon fill="#8dd3c7" stroke="transparent" points="634.5,-10 634.5,-30 654.5,-30 654.5,-10 634.5,-10"/>
<text text-anchor="start" x="658.23" y="-15.4" font-family="sans-serif" font-size="14.00"> &#160;Module</text>
<polygon fill="#80b1d3" stroke="transparent" points="720.5,-10 720.5,-30 740.5,-30 740.5,-10 720.5,-10"/>
<text text-anchor="start" x="744.28" y="-15.4" font-family="sans-serif" font-size="14.00"> &#160;Bootstrap</text>
<polygon fill="#fdb462" stroke="transparent" points="817.5,-10 817.5,-30 837.5,-30 837.5,-10 817.5,-10"/>
<text text-anchor="start" x="841.17" y="-15.4" font-family="sans-serif" font-size="14.00"> &#160;Providers</text>
<polygon fill="#fb8072" stroke="transparent" points="913.5,-10 913.5,-30 933.5,-30 933.5,-10 913.5,-10"/>
<text text-anchor="start" x="937.23" y="-15.4" font-family="sans-serif" font-size="14.00"> &#160;Exports</text>
<g id="clust1" class="cluster">
<title>cluster_SelfServiceModule</title>
<polygon fill="none" stroke="black" stroke-dasharray="1,5" points="8,-70 8,-195 1503,-195 1503,-70 8,-70"/>
</g>
<g id="clust11" class="cluster">
<title>cluster_SelfServiceModule_imports</title>
<polygon fill="none" stroke="black" points="1193,-78 1193,-130 1495,-130 1495,-78 1193,-78"/>
</g>
<g id="clust2" class="cluster">
<title>cluster_SelfServiceModule_declarations</title>
<polygon fill="none" stroke="black" points="16,-78 16,-130 1185,-130 1185,-78 16,-78"/>
</g>
<!-- LoginComponent -->
<g id="node1" class="node">
<title>LoginComponent</title>
<polygon fill="#ffffb3" stroke="black" points="1177.28,-122 1062.72,-122 1062.72,-86 1177.28,-86 1177.28,-122"/>
<text text-anchor="middle" x="1120" y="-99.8" font-family="Times,serif" font-size="14.00">LoginComponent</text>
</g>
<!-- SelfServiceModule -->
<g id="node9" class="node">
<title>SelfServiceModule</title>
<polygon fill="#8dd3c7" stroke="black" points="816.08,-187 813.08,-191 792.08,-191 789.08,-187 691.92,-187 691.92,-151 816.08,-151 816.08,-187"/>
<text text-anchor="middle" x="754" y="-164.8" font-family="Times,serif" font-size="14.00">SelfServiceModule</text>
</g>
<!-- LoginComponent&#45;&gt;SelfServiceModule -->
<g id="edge1" class="edge">
<title>LoginComponent&#45;&gt;SelfServiceModule</title>
<path fill="none" stroke="black" d="M1120,-122.27C1120,-140.56 1120,-166 1120,-166 1120,-166 826.09,-166 826.09,-166"/>
<polygon fill="black" stroke="black" points="826.09,-162.5 816.09,-166 826.09,-169.5 826.09,-162.5"/>
</g>
<!-- StepFiveComponent -->
<g id="node2" class="node">
<title>StepFiveComponent</title>
<polygon fill="#ffffb3" stroke="black" points="1044.61,-122 913.39,-122 913.39,-86 1044.61,-86 1044.61,-122"/>
<text text-anchor="middle" x="979" y="-99.8" font-family="Times,serif" font-size="14.00">StepFiveComponent</text>
</g>
<!-- StepFiveComponent&#45;&gt;SelfServiceModule -->
<g id="edge2" class="edge">
<title>StepFiveComponent&#45;&gt;SelfServiceModule</title>
<path fill="none" stroke="black" d="M979,-122.01C979,-138.05 979,-159 979,-159 979,-159 826.08,-159 826.08,-159"/>
<polygon fill="black" stroke="black" points="826.08,-155.5 816.08,-159 826.08,-162.5 826.08,-155.5"/>
</g>
<!-- StepFourComponent -->
<g id="node3" class="node">
<title>StepFourComponent</title>
<polygon fill="#ffffb3" stroke="black" points="895.16,-122 762.84,-122 762.84,-86 895.16,-86 895.16,-122"/>
<text text-anchor="middle" x="829" y="-99.8" font-family="Times,serif" font-size="14.00">StepFourComponent</text>
</g>
<!-- StepFourComponent&#45;&gt;SelfServiceModule -->
<g id="edge3" class="edge">
<title>StepFourComponent&#45;&gt;SelfServiceModule</title>
<path fill="none" stroke="black" d="M789.35,-122.11C789.35,-122.11 789.35,-140.99 789.35,-140.99"/>
<polygon fill="black" stroke="black" points="785.85,-140.99 789.35,-150.99 792.85,-140.99 785.85,-140.99"/>
</g>
<!-- StepOneComponent -->
<g id="node4" class="node">
<title>StepOneComponent</title>
<polygon fill="#ffffb3" stroke="black" points="744.54,-122 615.46,-122 615.46,-86 744.54,-86 744.54,-122"/>
<text text-anchor="middle" x="680" y="-99.8" font-family="Times,serif" font-size="14.00">StepOneComponent</text>
</g>
<!-- StepOneComponent&#45;&gt;SelfServiceModule -->
<g id="edge4" class="edge">
<title>StepOneComponent&#45;&gt;SelfServiceModule</title>
<path fill="none" stroke="black" d="M718.37,-122.11C718.37,-122.11 718.37,-140.99 718.37,-140.99"/>
<polygon fill="black" stroke="black" points="714.87,-140.99 718.37,-150.99 721.87,-140.99 714.87,-140.99"/>
</g>
<!-- StepSixComponent -->
<g id="node5" class="node">
<title>StepSixComponent</title>
<polygon fill="#ffffb3" stroke="black" points="597.39,-122 472.61,-122 472.61,-86 597.39,-86 597.39,-122"/>
<text text-anchor="middle" x="535" y="-99.8" font-family="Times,serif" font-size="14.00">StepSixComponent</text>
</g>
<!-- StepSixComponent&#45;&gt;SelfServiceModule -->
<g id="edge5" class="edge">
<title>StepSixComponent&#45;&gt;SelfServiceModule</title>
<path fill="none" stroke="black" d="M535,-122.01C535,-138.05 535,-159 535,-159 535,-159 681.83,-159 681.83,-159"/>
<polygon fill="black" stroke="black" points="681.83,-162.5 691.83,-159 681.83,-155.5 681.83,-162.5"/>
</g>
<!-- StepThreeComponent -->
<g id="node6" class="node">
<title>StepThreeComponent</title>
<polygon fill="#ffffb3" stroke="black" points="454.36,-122 315.64,-122 315.64,-86 454.36,-86 454.36,-122"/>
<text text-anchor="middle" x="385" y="-99.8" font-family="Times,serif" font-size="14.00">StepThreeComponent</text>
</g>
<!-- StepThreeComponent&#45;&gt;SelfServiceModule -->
<g id="edge6" class="edge">
<title>StepThreeComponent&#45;&gt;SelfServiceModule</title>
<path fill="none" stroke="black" d="M385,-122.27C385,-140.56 385,-166 385,-166 385,-166 681.82,-166 681.82,-166"/>
<polygon fill="black" stroke="black" points="681.82,-169.5 691.82,-166 681.82,-162.5 681.82,-169.5"/>
</g>
<!-- StepTwoComponent -->
<g id="node7" class="node">
<title>StepTwoComponent</title>
<polygon fill="#ffffb3" stroke="black" points="297.88,-122 166.12,-122 166.12,-86 297.88,-86 297.88,-122"/>
<text text-anchor="middle" x="232" y="-99.8" font-family="Times,serif" font-size="14.00">StepTwoComponent</text>
</g>
<!-- StepTwoComponent&#45;&gt;SelfServiceModule -->
<g id="edge7" class="edge">
<title>StepTwoComponent&#45;&gt;SelfServiceModule</title>
<path fill="none" stroke="black" d="M232,-122.13C232,-142.57 232,-173 232,-173 232,-173 681.81,-173 681.81,-173"/>
<polygon fill="black" stroke="black" points="681.81,-176.5 691.81,-173 681.81,-169.5 681.81,-176.5"/>
</g>
<!-- StepperComponent -->
<g id="node8" class="node">
<title>StepperComponent</title>
<polygon fill="#ffffb3" stroke="black" points="148.1,-122 23.9,-122 23.9,-86 148.1,-86 148.1,-122"/>
<text text-anchor="middle" x="86" y="-99.8" font-family="Times,serif" font-size="14.00">StepperComponent</text>
</g>
<!-- StepperComponent&#45;&gt;SelfServiceModule -->
<g id="edge8" class="edge">
<title>StepperComponent&#45;&gt;SelfServiceModule</title>
<path fill="none" stroke="black" d="M86,-122.01C86,-144.49 86,-180 86,-180 86,-180 681.76,-180 681.76,-180"/>
<polygon fill="black" stroke="black" points="681.76,-183.5 691.76,-180 681.76,-176.5 681.76,-183.5"/>
</g>
<!-- SelfServiceRoutingModule -->
<g id="node10" class="node">
<title>SelfServiceRoutingModule</title>
<polygon fill="#8dd3c7" stroke="black" points="1486.69,-122 1483.69,-126 1462.69,-126 1459.69,-122 1317.31,-122 1317.31,-86 1486.69,-86 1486.69,-122"/>
<text text-anchor="middle" x="1402" y="-99.8" font-family="Times,serif" font-size="14.00">SelfServiceRoutingModule</text>
</g>
<!-- SelfServiceRoutingModule&#45;&gt;SelfServiceModule -->
<g id="edge9" class="edge">
<title>SelfServiceRoutingModule&#45;&gt;SelfServiceModule</title>
<path fill="none" stroke="black" d="M1402,-122.01C1402,-144.49 1402,-180 1402,-180 1402,-180 826.13,-180 826.13,-180"/>
<polygon fill="black" stroke="black" points="826.13,-176.5 816.13,-180 826.13,-183.5 826.13,-176.5"/>
</g>
<!-- SharedModule -->
<g id="node11" class="node">
<title>SharedModule</title>
<polygon fill="#8dd3c7" stroke="black" points="1299.42,-122 1296.42,-126 1275.42,-126 1272.42,-122 1200.58,-122 1200.58,-86 1299.42,-86 1299.42,-122"/>
<text text-anchor="middle" x="1250" y="-99.8" font-family="Times,serif" font-size="14.00">SharedModule</text>
</g>
<!-- SharedModule&#45;&gt;SelfServiceModule -->
<g id="edge10" class="edge">
<title>SharedModule&#45;&gt;SelfServiceModule</title>
<path fill="none" stroke="black" d="M1250,-122.13C1250,-142.57 1250,-173 1250,-173 1250,-173 826.07,-173 826.07,-173"/>
<polygon fill="black" stroke="black" points="826.07,-169.5 816.07,-173 826.07,-176.5 826.07,-169.5"/>
</g>
</g>
</svg>
