<?xml version="1.0" encoding="UTF-8" standalone="no"?>
<!DOCTYPE svg PUBLIC "-//W3C//DTD SVG 1.1//EN"
 "http://www.w3.org/Graphics/SVG/1.1/DTD/svg11.dtd">
<!-- Generated by graphviz version 2.46.0 (20210119.1425)
 -->
<!-- Title: dependencies Pages: 1 -->
<svg width="1704pt" height="211pt"
 viewBox="0.00 0.00 1704.00 211.00" xmlns="http://www.w3.org/2000/svg" xmlns:xlink="http://www.w3.org/1999/xlink">
<g id="graph0" class="graph" transform="scale(1 1) rotate(0) translate(4 207)">
<title>dependencies</title>
<polygon fill="white" stroke="transparent" points="-4,4 -4,-207 1700,-207 1700,4 -4,4"/>
<text text-anchor="start" x="827.01" y="-42.4" font-family="sans-serif" font-weight="bold" font-size="14.00">Legend</text>
<polygon fill="#ffffb3" stroke="transparent" points="614,-10 614,-30 634,-30 634,-10 614,-10"/>
<text text-anchor="start" x="637.63" y="-15.4" font-family="sans-serif" font-size="14.00"> &#160;Declarations</text>
<polygon fill="#8dd3c7" stroke="transparent" points="727,-10 727,-30 747,-30 747,-10 727,-10"/>
<text text-anchor="start" x="750.73" y="-15.4" font-family="sans-serif" font-size="14.00"> &#160;Module</text>
<polygon fill="#80b1d3" stroke="transparent" points="813,-10 813,-30 833,-30 833,-10 813,-10"/>
<text text-anchor="start" x="836.78" y="-15.4" font-family="sans-serif" font-size="14.00"> &#160;Bootstrap</text>
<polygon fill="#fdb462" stroke="transparent" points="910,-10 910,-30 930,-30 930,-10 910,-10"/>
<text text-anchor="start" x="933.67" y="-15.4" font-family="sans-serif" font-size="14.00"> &#160;Providers</text>
<polygon fill="#fb8072" stroke="transparent" points="1006,-10 1006,-30 1026,-30 1026,-10 1006,-10"/>
<text text-anchor="start" x="1029.73" y="-15.4" font-family="sans-serif" font-size="14.00"> &#160;Exports</text>
<g id="clust1" class="cluster">
<title>cluster_SelfServiceModule</title>
<polygon fill="none" stroke="black" stroke-dasharray="1,5" points="8,-70 8,-195 1688,-195 1688,-70 8,-70"/>
</g>
<g id="clust2" class="cluster">
<title>cluster_SelfServiceModule_declarations</title>
<polygon fill="none" stroke="black" points="326,-78 326,-130 1680,-130 1680,-78 326,-78"/>
</g>
<g id="clust12" class="cluster">
<title>cluster_SelfServiceModule_imports</title>
<polygon fill="none" stroke="black" points="16,-78 16,-130 318,-130 318,-78 16,-78"/>
</g>
<!-- ConfirmDialogComponent -->
<g id="node1" class="node">
<title>ConfirmDialogComponent</title>
<polygon fill="#ffffb3" stroke="black" points="1672.37,-122 1505.63,-122 1505.63,-86 1672.37,-86 1672.37,-122"/>
<text text-anchor="middle" x="1589" y="-99.8" font-family="Times,serif" font-size="14.00">ConfirmDialogComponent</text>
</g>
<!-- SelfServiceModule -->
<g id="node10" class="node">
<title>SelfServiceModule</title>
<polygon fill="#8dd3c7" stroke="black" points="907.08,-187 904.08,-191 883.08,-191 880.08,-187 782.92,-187 782.92,-151 907.08,-151 907.08,-187"/>
<text text-anchor="middle" x="845" y="-164.8" font-family="Times,serif" font-size="14.00">SelfServiceModule</text>
</g>
<!-- ConfirmDialogComponent&#45;&gt;SelfServiceModule -->
<g id="edge1" class="edge">
<title>ConfirmDialogComponent&#45;&gt;SelfServiceModule</title>
<path fill="none" stroke="black" d="M1589,-122.09C1589,-145.13 1589,-182 1589,-182 1589,-182 917.15,-182 917.15,-182"/>
<polygon fill="black" stroke="black" points="917.15,-178.5 907.15,-182 917.15,-185.5 917.15,-178.5"/>
</g>
<!-- LoginComponent -->
<g id="node2" class="node">
<title>LoginComponent</title>
<polygon fill="#ffffb3" stroke="black" points="1487.28,-122 1372.72,-122 1372.72,-86 1487.28,-86 1487.28,-122"/>
<text text-anchor="middle" x="1430" y="-99.8" font-family="Times,serif" font-size="14.00">LoginComponent</text>
</g>
<!-- LoginComponent&#45;&gt;SelfServiceModule -->
<g id="edge2" class="edge">
<title>LoginComponent&#45;&gt;SelfServiceModule</title>
<path fill="none" stroke="black" d="M1430,-122.28C1430,-143.32 1430,-175 1430,-175 1430,-175 917.05,-175 917.05,-175"/>
<polygon fill="black" stroke="black" points="917.05,-171.5 907.05,-175 917.05,-178.5 917.05,-171.5"/>
</g>
<!-- StepFiveComponent -->
<g id="node3" class="node">
<title>StepFiveComponent</title>
<polygon fill="#ffffb3" stroke="black" points="1354.61,-122 1223.39,-122 1223.39,-86 1354.61,-86 1354.61,-122"/>
<text text-anchor="middle" x="1289" y="-99.8" font-family="Times,serif" font-size="14.00">StepFiveComponent</text>
</g>
<!-- StepFiveComponent&#45;&gt;SelfServiceModule -->
<g id="edge3" class="edge">
<title>StepFiveComponent&#45;&gt;SelfServiceModule</title>
<path fill="none" stroke="black" d="M1289,-122.11C1289,-141.34 1289,-169 1289,-169 1289,-169 917.2,-169 917.2,-169"/>
<polygon fill="black" stroke="black" points="917.2,-165.5 907.2,-169 917.2,-172.5 917.2,-165.5"/>
</g>
<!-- StepFourComponent -->
<g id="node4" class="node">
<title>StepFourComponent</title>
<polygon fill="#ffffb3" stroke="black" points="1205.16,-122 1072.84,-122 1072.84,-86 1205.16,-86 1205.16,-122"/>
<text text-anchor="middle" x="1139" y="-99.8" font-family="Times,serif" font-size="14.00">StepFourComponent</text>
</g>
<!-- StepFourComponent&#45;&gt;SelfServiceModule -->
<g id="edge4" class="edge">
<title>StepFourComponent&#45;&gt;SelfServiceModule</title>
<path fill="none" stroke="black" d="M1139,-122.02C1139,-139.37 1139,-163 1139,-163 1139,-163 917.35,-163 917.35,-163"/>
<polygon fill="black" stroke="black" points="917.35,-159.5 907.35,-163 917.35,-166.5 917.35,-159.5"/>
</g>
<!-- StepOneComponent -->
<g id="node5" class="node">
<title>StepOneComponent</title>
<polygon fill="#ffffb3" stroke="black" points="1054.54,-122 925.46,-122 925.46,-86 1054.54,-86 1054.54,-122"/>
<text text-anchor="middle" x="990" y="-99.8" font-family="Times,serif" font-size="14.00">StepOneComponent</text>
</g>
<!-- StepOneComponent&#45;&gt;SelfServiceModule -->
<g id="edge5" class="edge">
<title>StepOneComponent&#45;&gt;SelfServiceModule</title>
<path fill="none" stroke="black" d="M990,-122.24C990,-137.57 990,-157 990,-157 990,-157 917.33,-157 917.33,-157"/>
<polygon fill="black" stroke="black" points="917.33,-153.5 907.33,-157 917.33,-160.5 917.33,-153.5"/>
</g>
<!-- StepSixComponent -->
<g id="node6" class="node">
<title>StepSixComponent</title>
<polygon fill="#ffffb3" stroke="black" points="907.39,-122 782.61,-122 782.61,-86 907.39,-86 907.39,-122"/>
<text text-anchor="middle" x="845" y="-99.8" font-family="Times,serif" font-size="14.00">StepSixComponent</text>
</g>
<!-- StepSixComponent&#45;&gt;SelfServiceModule -->
<g id="edge6" class="edge">
<title>StepSixComponent&#45;&gt;SelfServiceModule</title>
<path fill="none" stroke="black" d="M845,-122.11C845,-122.11 845,-140.99 845,-140.99"/>
<polygon fill="black" stroke="black" points="841.5,-140.99 845,-150.99 848.5,-140.99 841.5,-140.99"/>
</g>
<!-- StepThreeComponent -->
<g id="node7" class="node">
<title>StepThreeComponent</title>
<polygon fill="#ffffb3" stroke="black" points="764.36,-122 625.64,-122 625.64,-86 764.36,-86 764.36,-122"/>
<text text-anchor="middle" x="695" y="-99.8" font-family="Times,serif" font-size="14.00">StepThreeComponent</text>
</g>
<!-- StepThreeComponent&#45;&gt;SelfServiceModule -->
<g id="edge7" class="edge">
<title>StepThreeComponent&#45;&gt;SelfServiceModule</title>
<path fill="none" stroke="black" d="M695,-122.24C695,-137.57 695,-157 695,-157 695,-157 772.69,-157 772.69,-157"/>
<polygon fill="black" stroke="black" points="772.69,-160.5 782.69,-157 772.69,-153.5 772.69,-160.5"/>
</g>
<!-- StepTwoComponent -->
<g id="node8" class="node">
<title>StepTwoComponent</title>
<polygon fill="#ffffb3" stroke="black" points="607.88,-122 476.12,-122 476.12,-86 607.88,-86 607.88,-122"/>
<text text-anchor="middle" x="542" y="-99.8" font-family="Times,serif" font-size="14.00">StepTwoComponent</text>
</g>
<!-- StepTwoComponent&#45;&gt;SelfServiceModule -->
<g id="edge8" class="edge">
<title>StepTwoComponent&#45;&gt;SelfServiceModule</title>
<path fill="none" stroke="black" d="M542,-122.02C542,-139.37 542,-163 542,-163 542,-163 772.95,-163 772.95,-163"/>
<polygon fill="black" stroke="black" points="772.95,-166.5 782.95,-163 772.95,-159.5 772.95,-166.5"/>
</g>
<!-- StepperComponent -->
<g id="node9" class="node">
<title>StepperComponent</title>
<polygon fill="#ffffb3" stroke="black" points="458.1,-122 333.9,-122 333.9,-86 458.1,-86 458.1,-122"/>
<text text-anchor="middle" x="396" y="-99.8" font-family="Times,serif" font-size="14.00">StepperComponent</text>
</g>
<!-- StepperComponent&#45;&gt;SelfServiceModule -->
<g id="edge9" class="edge">
<title>StepperComponent&#45;&gt;SelfServiceModule</title>
<path fill="none" stroke="black" d="M396,-122.11C396,-141.34 396,-169 396,-169 396,-169 772.57,-169 772.57,-169"/>
<polygon fill="black" stroke="black" points="772.57,-172.5 782.57,-169 772.57,-165.5 772.57,-172.5"/>
</g>
<!-- SelfServiceRoutingModule -->
<g id="node11" class="node">
<title>SelfServiceRoutingModule</title>
<polygon fill="#8dd3c7" stroke="black" points="309.69,-122 306.69,-126 285.69,-126 282.69,-122 140.31,-122 140.31,-86 309.69,-86 309.69,-122"/>
<text text-anchor="middle" x="225" y="-99.8" font-family="Times,serif" font-size="14.00">SelfServiceRoutingModule</text>
</g>
<!-- SelfServiceRoutingModule&#45;&gt;SelfServiceModule -->
<g id="edge10" class="edge">
<title>SelfServiceRoutingModule&#45;&gt;SelfServiceModule</title>
<path fill="none" stroke="black" d="M225,-122.28C225,-143.32 225,-175 225,-175 225,-175 772.71,-175 772.71,-175"/>
<polygon fill="black" stroke="black" points="772.71,-178.5 782.71,-175 772.71,-171.5 772.71,-178.5"/>
</g>
<!-- SharedModule -->
<g id="node12" class="node">
<title>SharedModule</title>
<polygon fill="#8dd3c7" stroke="black" points="122.42,-122 119.42,-126 98.42,-126 95.42,-122 23.58,-122 23.58,-86 122.42,-86 122.42,-122"/>
<text text-anchor="middle" x="73" y="-99.8" font-family="Times,serif" font-size="14.00">SharedModule</text>
</g>
<!-- SharedModule&#45;&gt;SelfServiceModule -->
<g id="edge11" class="edge">
<title>SharedModule&#45;&gt;SelfServiceModule</title>
<path fill="none" stroke="black" d="M73,-122.09C73,-145.13 73,-182 73,-182 73,-182 772.8,-182 772.8,-182"/>
<polygon fill="black" stroke="black" points="772.8,-185.5 782.8,-182 772.8,-178.5 772.8,-185.5"/>
</g>
</g>
</svg>
